STARTFONT 2.1
COMMENT
COMMENT Converted from OpenType font "Arial.otf" by "otf2bdf 3.0".
COMMENT
FONT -FreeType-Arial-Medium-R-Normal--22-160-100-100-P-108-ISO10646-1
SIZE 16 100 100
FONTBOUNDINGBOX 39 29 -15 -7
STARTPROPERTIES 19
FOUNDRY "FreeType"
FAMILY_NAME "Arial"
WEIGHT_NAME "Medium"
SLANT "R"
SETWIDTH_NAME "Normal"
ADD_STYLE_NAME ""
PIXEL_SIZE 22
POINT_SIZE 160
RESOLUTION_X 100
RESOLUTION_Y 100
SPACING "P"
AVERAGE_WIDTH 108
CHARSET_REGISTRY "ISO10646"
CHARSET_ENCODING "1"
FONT_ASCENT 19
FONT_DESCENT 4
COPYRIGHT "© 2006 The Monotype Corporation. All Rights Reserved."
_OTF_FONTFILE "Arial.otf"
_OTF_PSNAME "ArialMT"
ENDPROPERTIES
CHARS 1425
STARTCHAR 0020
ENCODING 32
SWIDTH 270 0
DWIDTH 6 0
BBX 0 0 0 0
BITMAP
ENDCHAR
STARTCHAR 0021
ENCODING 33
SWIDTH 270 0
DWIDTH 6 0
BBX 2 16 2 0
BITMAP
C0
C0
C0
C0
C0
C0
C0
C0
C0
C0
C0
C0
00
00
C0
C0
ENDCHAR
STARTCHAR 0022
ENCODING 34
SWIDTH 360 0
DWIDTH 8 0
BBX 6 6 1 10
BITMAP
CC
CC
CC
CC
CC
48
ENDCHAR
STARTCHAR 0023
ENCODING 35
SWIDTH 540 0
DWIDTH 12 0
BBX 12 16 0 0
BITMAP
0C60
0C60
0C60
0840
FFF0
FFF0
18C0
18C0
1080
3080
FFF0
FFF0
3180
2100
6100
6300
ENDCHAR
STARTCHAR 0024
ENCODING 36
SWIDTH 540 0
DWIDTH 12 0
BBX 10 19 1 -2
BITMAP
0400
3F00
7780
C4C0
C4C0
C400
E400
7400
3F00
0780
05C0
04C0
C4C0
C4C0
E4C0
7780
3F00
0400
0400
ENDCHAR
STARTCHAR 0025
ENCODING 37
SWIDTH 900 0
DWIDTH 20 0
BBX 17 17 1 -1
BITMAP
3C0C00
660800
C61800
C63000
C63000
C66000
666000
3CC000
008E00
019F80
011980
031080
021080
061080
041980
0C0F00
080600
ENDCHAR
STARTCHAR 0026
ENCODING 38
SWIDTH 675 0
DWIDTH 15 0
BBX 13 16 1 0
BITMAP
0F00
1B80
31C0
30C0
3180
1B80
1F00
1E00
7700
6330
C1B0
C1E0
C0E0
E0F0
73B8
3F18
ENDCHAR
STARTCHAR 0027
ENCODING 39
SWIDTH 180 0
DWIDTH 4 0
BBX 2 6 1 10
BITMAP
C0
C0
C0
C0
C0
C0
ENDCHAR
STARTCHAR 0028
ENCODING 40
SWIDTH 315 0
DWIDTH 7 0
BBX 5 21 1 -5
BITMAP
08
18
30
30
60
60
60
60
C0
C0
C0
C0
40
60
60
60
30
30
10
18
08
ENDCHAR
STARTCHAR 0029
ENCODING 41
SWIDTH 315 0
DWIDTH 7 0
BBX 6 21 1 -5
BITMAP
40
60
20
30
10
18
18
18
18
0C
0C
0C
18
18
18
18
30
30
20
60
C0
ENDCHAR
STARTCHAR 002A
ENCODING 42
SWIDTH 405 0
DWIDTH 9 0
BBX 7 6 1 9
BITMAP
10
10
FE
38
38
6C
ENDCHAR
STARTCHAR 002B
ENCODING 43
SWIDTH 585 0
DWIDTH 13 0
BBX 11 10 1 3
BITMAP
0400
0400
0400
0400
FFE0
FFE0
0400
0400
0400
0400
ENDCHAR
STARTCHAR 002C
ENCODING 44
SWIDTH 270 0
DWIDTH 6 0
BBX 2 5 2 -3
BITMAP
C0
C0
40
40
80
ENDCHAR
STARTCHAR 002D
ENCODING 45
SWIDTH 315 0
DWIDTH 7 0
BBX 6 2 1 5
BITMAP
FC
FC
ENDCHAR
STARTCHAR 002E
ENCODING 46
SWIDTH 270 0
DWIDTH 6 0
BBX 2 2 2 0
BITMAP
C0
C0
ENDCHAR
STARTCHAR 002F
ENCODING 47
SWIDTH 270 0
DWIDTH 6 0
BBX 6 16 0 0
BITMAP
0C
0C
08
08
18
18
10
30
30
20
20
60
60
40
C0
C0
ENDCHAR
STARTCHAR 0030
ENCODING 48
SWIDTH 540 0
DWIDTH 12 0
BBX 10 16 1 0
BITMAP
1E00
3F80
6180
60C0
C0C0
C0C0
C0C0
C0C0
C0C0
C0C0
C0C0
C0C0
C0C0
6180
7380
3F00
ENDCHAR
STARTCHAR 0031
ENCODING 49
SWIDTH 540 0
DWIDTH 12 0
BBX 6 16 2 0
BITMAP
04
0C
1C
7C
EC
8C
0C
0C
0C
0C
0C
0C
0C
0C
0C
0C
ENDCHAR
STARTCHAR 0032
ENCODING 50
SWIDTH 540 0
DWIDTH 12 0
BBX 10 16 1 0
BITMAP
1F00
7F80
61C0
C0C0
C0C0
00C0
01C0
0180
0300
0E00
1C00
3800
7000
E000
FFC0
FFC0
ENDCHAR
STARTCHAR 0033
ENCODING 51
SWIDTH 540 0
DWIDTH 12 0
BBX 10 16 1 0
BITMAP
1E00
7F80
6180
C1C0
00C0
0180
0380
0F00
0380
00C0
00C0
00C0
C0C0
E0C0
7380
3F00
ENDCHAR
STARTCHAR 0034
ENCODING 52
SWIDTH 540 0
DWIDTH 12 0
BBX 11 16 0 0
BITMAP
0180
0180
0380
0780
0D80
0D80
1980
3180
3180
6180
FFE0
FFE0
0180
0180
0180
0180
ENDCHAR
STARTCHAR 0035
ENCODING 53
SWIDTH 540 0
DWIDTH 12 0
BBX 10 16 1 0
BITMAP
3FC0
3FC0
6000
6000
6000
6400
7F80
F1C0
C0C0
00C0
00C0
00C0
C0C0
E0C0
7380
3F00
ENDCHAR
STARTCHAR 0036
ENCODING 54
SWIDTH 540 0
DWIDTH 12 0
BBX 10 16 1 0
BITMAP
1F00
3F80
61C0
60C0
C000
C000
DF00
FB80
E0C0
C0C0
C0C0
C0C0
C0C0
60C0
7380
1F00
ENDCHAR
STARTCHAR 0037
ENCODING 55
SWIDTH 540 0
DWIDTH 12 0
BBX 10 16 1 0
BITMAP
FFC0
FFC0
00C0
0180
0300
0300
0600
0E00
0C00
0C00
1800
1800
1800
1800
3000
3000
ENDCHAR
STARTCHAR 0038
ENCODING 56
SWIDTH 540 0
DWIDTH 12 0
BBX 10 16 1 0
BITMAP
1E00
3F80
6180
60C0
60C0
6180
7380
1F00
7380
E0C0
C0C0
C0C0
C0C0
E0C0
7380
3F00
ENDCHAR
STARTCHAR 0039
ENCODING 57
SWIDTH 540 0
DWIDTH 12 0
BBX 10 16 1 0
BITMAP
1E00
7F80
6180
C0C0
C0C0
C0C0
C0C0
C0C0
71C0
3FC0
0CC0
00C0
C0C0
E180
7380
3E00
ENDCHAR
STARTCHAR 003A
ENCODING 58
SWIDTH 270 0
DWIDTH 6 0
BBX 2 12 2 0
BITMAP
C0
C0
C0
00
00
00
00
00
00
00
C0
C0
ENDCHAR
STARTCHAR 003B
ENCODING 59
SWIDTH 270 0
DWIDTH 6 0
BBX 2 15 2 -3
BITMAP
C0
C0
C0
00
00
00
00
00
00
00
C0
C0
40
40
80
ENDCHAR
STARTCHAR 003C
ENCODING 60
SWIDTH 585 0
DWIDTH 13 0
BBX 11 10 1 2
BITMAP
0060
01E0
0F80
3C00
F000
E000
7C00
0F00
03C0
00E0
ENDCHAR
STARTCHAR 003D
ENCODING 61
SWIDTH 585 0
DWIDTH 13 0
BBX 11 6 1 5
BITMAP
FFE0
FFE0
0000
0000
0000
FFE0
ENDCHAR
STARTCHAR 003E
ENCODING 62
SWIDTH 585 0
DWIDTH 13 0
BBX 11 10 1 2
BITMAP
C000
F000
3E00
0780
01E0
00E0
07C0
1E00
F800
E000
ENDCHAR
STARTCHAR 003F
ENCODING 63
SWIDTH 540 0
DWIDTH 12 0
BBX 10 16 1 0
BITMAP
3F00
7B80
E0C0
C0C0
40C0
00C0
0180
0380
0700
0E00
0C00
0C00
0000
0000
0C00
0C00
ENDCHAR
STARTCHAR 0040
ENCODING 64
SWIDTH 1035 0
DWIDTH 23 0
BBX 20 21 1 -5
BITMAP
01FE00
078F80
0C01C0
180060
306060
61FE30
630E30
460E10
C60610
C60430
CC0C30
CC0C30
CC0C60
C61CC0
67EF80
63CF00
300030
180070
0E01C0
07FF80
007C00
ENDCHAR
STARTCHAR 0041
ENCODING 65
SWIDTH 675 0
DWIDTH 15 0
BBX 15 16 0 0
BITMAP
0300
0380
0780
06C0
0CC0
0CE0
0C60
1860
1830
3FF0
3FF8
3018
6018
601C
600C
C00E
ENDCHAR
STARTCHAR 0042
ENCODING 66
SWIDTH 675 0
DWIDTH 15 0
BBX 12 16 2 0
BITMAP
FF00
FFC0
C0C0
C060
C060
C060
C1C0
FF80
FFC0
C060
C070
C070
C070
C060
FFC0
FF80
ENDCHAR
STARTCHAR 0043
ENCODING 67
SWIDTH 720 0
DWIDTH 16 0
BBX 14 16 1 0
BITMAP
0FE0
1FF0
3838
601C
600C
E000
C000
C000
C000
C000
E000
600C
601C
3038
3FF0
0FE0
ENDCHAR
STARTCHAR 0044
ENCODING 68
SWIDTH 720 0
DWIDTH 16 0
BBX 13 16 2 0
BITMAP
FF80
FFC0
C0E0
C070
C030
C038
C018
C018
C018
C018
C038
C030
C030
C0E0
FFC0
FF80
ENDCHAR
STARTCHAR 0045
ENCODING 69
SWIDTH 675 0
DWIDTH 15 0
BBX 12 16 2 0
BITMAP
FFE0
FFE0
C000
C000
C000
C000
C000
FFE0
FFE0
C000
C000
C000
C000
C000
FFF0
FFF0
ENDCHAR
STARTCHAR 0046
ENCODING 70
SWIDTH 630 0
DWIDTH 14 0
BBX 11 16 2 0
BITMAP
FFE0
FFE0
C000
C000
C000
C000
C000
FF80
FF80
C000
C000
C000
C000
C000
C000
C000
ENDCHAR
STARTCHAR 0047
ENCODING 71
SWIDTH 765 0
DWIDTH 17 0
BBX 15 16 1 0
BITMAP
07F0
1FF8
381C
700C
6006
6000
C000
C000
C0FE
C0FE
E006
6006
7006
380E
1FFC
07F0
ENDCHAR
STARTCHAR 0048
ENCODING 72
SWIDTH 720 0
DWIDTH 16 0
BBX 12 16 2 0
BITMAP
C030
C030
C030
C030
C030
C030
C030
FFF0
FFF0
C030
C030
C030
C030
C030
C030
C030
ENDCHAR
STARTCHAR 0049
ENCODING 73
SWIDTH 270 0
DWIDTH 6 0
BBX 2 16 2 0
BITMAP
C0
C0
C0
C0
C0
C0
C0
C0
C0
C0
C0
C0
C0
C0
C0
C0
ENDCHAR
STARTCHAR 004A
ENCODING 74
SWIDTH 495 0
DWIDTH 11 0
BBX 8 16 1 0
BITMAP
03
03
03
03
03
03
03
03
03
03
03
C3
C3
C3
FF
7E
ENDCHAR
STARTCHAR 004B
ENCODING 75
SWIDTH 675 0
DWIDTH 15 0
BBX 12 16 2 0
BITMAP
C070
C0E0
C1C0
C380
C700
CE00
DC00
FC00
F600
E700
C380
C180
C0C0
C0E0
C070
C030
ENDCHAR
STARTCHAR 004C
ENCODING 76
SWIDTH 540 0
DWIDTH 12 0
BBX 10 16 2 0
BITMAP
C000
C000
C000
C000
C000
C000
C000
C000
C000
C000
C000
C000
C000
C000
FFC0
FFC0
ENDCHAR
STARTCHAR 004D
ENCODING 77
SWIDTH 855 0
DWIDTH 19 0
BBX 15 16 2 0
BITMAP
E00E
E00E
F01E
F01E
F036
D836
D826
D866
CC66
CC46
CCC6
C6C6
C686
C786
C386
C306
ENDCHAR
STARTCHAR 004E
ENCODING 78
SWIDTH 720 0
DWIDTH 16 0
BBX 12 16 2 0
BITMAP
C030
E030
E030
F030
F830
D830
CC30
CE30
C630
C330
C3B0
C1B0
C0F0
C0F0
C070
C030
ENDCHAR
STARTCHAR 004F
ENCODING 79
SWIDTH 765 0
DWIDTH 17 0
BBX 15 16 1 0
BITMAP
0FE0
1FF8
381C
700C
600E
E006
C006
C006
C006
C006
E006
600E
700C
381C
1FF8
0FE0
ENDCHAR
STARTCHAR 0050
ENCODING 80
SWIDTH 675 0
DWIDTH 15 0
BBX 12 16 2 0
BITMAP
FF80
FFE0
C060
C070
C030
C030
C070
C0E0
FFC0
FE00
C000
C000
C000
C000
C000
C000
ENDCHAR
STARTCHAR 0051
ENCODING 81
SWIDTH 765 0
DWIDTH 17 0
BBX 15 17 1 -1
BITMAP
0FE0
1FF0
3818
600C
600E
C006
C006
C006
C006
C006
C006
600E
60CC
3078
1FF8
0FEE
0006
ENDCHAR
STARTCHAR 0052
ENCODING 82
SWIDTH 720 0
DWIDTH 16 0
BBX 13 16 2 0
BITMAP
FFC0
FFE0
C070
C030
C030
C030
C070
FFE0
FF80
C180
C1C0
C0E0
C070
C030
C038
C018
ENDCHAR
STARTCHAR 0053
ENCODING 83
SWIDTH 675 0
DWIDTH 15 0
BBX 13 16 1 0
BITMAP
1FC0
3FE0
6070
6030
6030
6000
7C00
1FC0
07E0
0070
0038
C018
E038
6030
7FE0
1FC0
ENDCHAR
STARTCHAR 0054
ENCODING 84
SWIDTH 630 0
DWIDTH 14 0
BBX 12 16 1 0
BITMAP
FFF0
FFF0
0600
0600
0600
0600
0600
0600
0600
0600
0600
0600
0600
0600
0600
0600
ENDCHAR
STARTCHAR 0055
ENCODING 85
SWIDTH 720 0
DWIDTH 16 0
BBX 12 16 2 0
BITMAP
C030
C030
C030
C030
C030
C030
C030
C030
C030
C030
C030
C030
C030
E070
7FE0
3FC0
ENDCHAR
STARTCHAR 0056
ENCODING 86
SWIDTH 675 0
DWIDTH 15 0
BBX 14 16 0 0
BITMAP
E00C
600C
600C
7018
3018
3038
1830
1830
1860
0C60
0C60
04C0
06C0
0680
0380
0380
ENDCHAR
STARTCHAR 0057
ENCODING 87
SWIDTH 945 0
DWIDTH 21 0
BBX 21 16 0 0
BITMAP
E07038
607030
605030
60D830
60D830
30D860
318C60
318C60
318C40
1904C0
1B06C0
1B06C0
0B0680
0A0380
0E0380
0E0300
ENDCHAR
STARTCHAR 0058
ENCODING 88
SWIDTH 675 0
DWIDTH 15 0
BBX 14 16 0 0
BITMAP
700C
3018
1830
1C70
0C60
06C0
0780
0380
0380
06C0
0EE0
1C60
1830
3038
701C
E00C
ENDCHAR
STARTCHAR 0059
ENCODING 89
SWIDTH 675 0
DWIDTH 15 0
BBX 14 16 0 0
BITMAP
E00C
701C
3018
3830
1870
0C60
0EC0
07C0
0380
0300
0300
0300
0300
0300
0300
0300
ENDCHAR
STARTCHAR 005A
ENCODING 90
SWIDTH 630 0
DWIDTH 14 0
BBX 13 16 0 0
BITMAP
7FF8
7FF8
0030
0070
00E0
01C0
0380
0300
0600
0E00
1C00
3800
3000
6000
FFF8
FFF8
ENDCHAR
STARTCHAR 005B
ENCODING 91
SWIDTH 270 0
DWIDTH 6 0
BBX 4 20 2 -4
BITMAP
F0
F0
80
80
80
80
80
80
80
80
80
80
80
80
80
80
80
80
80
F0
ENDCHAR
STARTCHAR 005C
ENCODING 92
SWIDTH 270 0
DWIDTH 6 0
BBX 6 16 0 0
BITMAP
C0
C0
40
60
60
20
20
30
30
10
18
18
08
08
0C
0C
ENDCHAR
STARTCHAR 005D
ENCODING 93
SWIDTH 270 0
DWIDTH 6 0
BBX 5 20 0 -4
BITMAP
F8
F8
18
18
18
18
18
18
18
18
18
18
18
18
18
18
18
18
18
F8
ENDCHAR
STARTCHAR 005E
ENCODING 94
SWIDTH 450 0
DWIDTH 10 0
BBX 9 9 1 7
BITMAP
1800
1C00
3C00
3600
6600
6200
C300
C300
C180
ENDCHAR
STARTCHAR 005F
ENCODING 95
SWIDTH 540 0
DWIDTH 12 0
BBX 13 1 0 -4
BITMAP
FFF8
ENDCHAR
STARTCHAR 0060
ENCODING 96
SWIDTH 315 0
DWIDTH 7 0
BBX 4 3 1 13
BITMAP
E0
60
30
ENDCHAR
STARTCHAR 0061
ENCODING 97
SWIDTH 540 0
DWIDTH 12 0
BBX 10 12 1 0
BITMAP
1E00
7F80
61C0
C0C0
00C0
1FC0
7EC0
E0C0
C0C0
C1C0
E3C0
7EC0
ENDCHAR
STARTCHAR 0062
ENCODING 98
SWIDTH 540 0
DWIDTH 12 0
BBX 10 16 1 0
BITMAP
C000
C000
C000
C000
CE00
DF80
F1C0
E0C0
C0C0
C0C0
C0C0
C0C0
E0C0
E0C0
F380
DF00
ENDCHAR
STARTCHAR 0063
ENCODING 99
SWIDTH 495 0
DWIDTH 11 0
BBX 10 12 1 0
BITMAP
1E00
3F80
6180
C0C0
C000
C000
C000
C000
C0C0
E180
7380
3F00
ENDCHAR
STARTCHAR 0064
ENCODING 100
SWIDTH 540 0
DWIDTH 12 0
BBX 10 16 1 0
BITMAP
00C0
00C0
00C0
00C0
1CC0
7FC0
61C0
C1C0
C0C0
C0C0
C0C0
C0C0
C0C0
E1C0
73C0
3EC0
ENDCHAR
STARTCHAR 0065
ENCODING 101
SWIDTH 540 0
DWIDTH 12 0
BBX 10 12 1 0
BITMAP
1E00
3F80
61C0
C0C0
C0C0
FFC0
FFC0
C000
C0C0
E0C0
7380
3F00
ENDCHAR
STARTCHAR 0066
ENCODING 102
SWIDTH 270 0
DWIDTH 6 0
BBX 7 16 0 0
BITMAP
1E
3E
30
30
FC
FC
30
30
30
30
30
30
30
30
30
30
ENDCHAR
STARTCHAR 0067
ENCODING 103
SWIDTH 540 0
DWIDTH 12 0
BBX 10 17 1 -5
BITMAP
1CC0
7FC0
61C0
C0C0
C0C0
C0C0
C0C0
C0C0
C0C0
E1C0
7FC0
3EC0
00C0
C0C0
E180
7F00
1C00
ENDCHAR
STARTCHAR 0068
ENCODING 104
SWIDTH 540 0
DWIDTH 12 0
BBX 10 16 1 0
BITMAP
C000
C000
C000
C000
CF00
DF80
F1C0
E0C0
C0C0
C0C0
C0C0
C0C0
C0C0
C0C0
C0C0
C0C0
ENDCHAR
STARTCHAR 0069
ENCODING 105
SWIDTH 225 0
DWIDTH 5 0
BBX 2 16 1 0
BITMAP
C0
C0
00
00
C0
C0
C0
C0
C0
C0
C0
C0
C0
C0
C0
C0
ENDCHAR
STARTCHAR 006A
ENCODING 106
SWIDTH 225 0
DWIDTH 5 0
BBX 4 21 -1 -5
BITMAP
30
30
00
00
30
30
30
30
30
30
30
30
30
30
30
30
30
30
30
F0
E0
ENDCHAR
STARTCHAR 006B
ENCODING 107
SWIDTH 495 0
DWIDTH 11 0
BBX 10 16 1 0
BITMAP
C000
C000
C000
C000
C1C0
C380
C600
CC00
D800
FC00
EC00
C600
C700
C300
C180
C1C0
ENDCHAR
STARTCHAR 006C
ENCODING 108
SWIDTH 225 0
DWIDTH 5 0
BBX 2 16 1 0
BITMAP
C0
C0
C0
C0
C0
C0
C0
C0
C0
C0
C0
C0
C0
C0
C0
C0
ENDCHAR
STARTCHAR 006D
ENCODING 109
SWIDTH 855 0
DWIDTH 19 0
BBX 16 12 1 0
BITMAP
CE1C
DFBE
F1C3
E1C3
E183
C183
C183
C183
C183
C183
C183
C183
ENDCHAR
STARTCHAR 006E
ENCODING 110
SWIDTH 540 0
DWIDTH 12 0
BBX 10 12 1 0
BITMAP
CF00
DF80
F1C0
E0C0
C0C0
C0C0
C0C0
C0C0
C0C0
C0C0
C0C0
C0C0
ENDCHAR
STARTCHAR 006F
ENCODING 111
SWIDTH 540 0
DWIDTH 12 0
BBX 11 12 1 0
BITMAP
1E00
3F80
61C0
C0C0
C0C0
C0E0
C060
C0C0
C0C0
E0C0
7380
3F00
ENDCHAR
STARTCHAR 0070
ENCODING 112
SWIDTH 540 0
DWIDTH 12 0
BBX 10 16 1 -4
BITMAP
CE00
DF80
F1C0
E0C0
C0C0
C0C0
C0C0
C0C0
E0C0
E0C0
F380
DF00
C000
C000
C000
C000
ENDCHAR
STARTCHAR 0071
ENCODING 113
SWIDTH 540 0
DWIDTH 12 0
BBX 10 16 1 -4
BITMAP
1CC0
7FC0
61C0
C1C0
C0C0
C0C0
C0C0
C0C0
C0C0
E1C0
73C0
3EC0
00C0
00C0
00C0
00C0
ENDCHAR
STARTCHAR 0072
ENCODING 114
SWIDTH 315 0
DWIDTH 7 0
BBX 6 12 1 0
BITMAP
CC
DC
F0
E0
E0
C0
C0
C0
C0
C0
C0
C0
ENDCHAR
STARTCHAR 0073
ENCODING 115
SWIDTH 495 0
DWIDTH 11 0
BBX 9 12 1 0
BITMAP
3C00
7F00
C380
C100
E000
7C00
3F00
0380
C180
C180
E380
7F00
ENDCHAR
STARTCHAR 0074
ENCODING 116
SWIDTH 270 0
DWIDTH 6 0
BBX 6 15 0 1
BITMAP
30
30
30
FC
FC
30
30
30
30
30
30
30
30
3C
3C
ENDCHAR
STARTCHAR 0075
ENCODING 117
SWIDTH 540 0
DWIDTH 12 0
BBX 10 12 1 0
BITMAP
C0C0
C0C0
C0C0
C0C0
C0C0
C0C0
C0C0
C0C0
C0C0
61C0
73C0
3EC0
ENDCHAR
STARTCHAR 0076
ENCODING 118
SWIDTH 495 0
DWIDTH 11 0
BBX 11 12 0 0
BITMAP
C060
60C0
60C0
60C0
3180
3180
1180
1B00
1B00
0A00
0E00
0E00
ENDCHAR
STARTCHAR 0077
ENCODING 119
SWIDTH 720 0
DWIDTH 16 0
BBX 16 12 0 0
BITMAP
C183
C183
63C6
63C6
63C6
224C
366C
366C
1668
1C38
1C38
1C30
ENDCHAR
STARTCHAR 0078
ENCODING 120
SWIDTH 495 0
DWIDTH 11 0
BBX 11 12 0 0
BITMAP
E0E0
70C0
3180
1B00
1F00
0E00
0E00
1F00
1B00
3180
70C0
60E0
ENDCHAR
STARTCHAR 0079
ENCODING 121
SWIDTH 495 0
DWIDTH 11 0
BBX 11 17 0 -5
BITMAP
C060
6060
60C0
70C0
3180
3180
1980
1B00
1B00
0F00
0E00
0600
0400
0C00
1C00
7800
3000
ENDCHAR
STARTCHAR 007A
ENCODING 122
SWIDTH 495 0
DWIDTH 11 0
BBX 11 12 0 0
BITMAP
7FC0
7FC0
01C0
0380
0300
0600
0C00
1800
3800
7000
FFE0
FFE0
ENDCHAR
STARTCHAR 007B
ENCODING 123
SWIDTH 315 0
DWIDTH 7 0
BBX 6 21 1 -5
BITMAP
1C
3C
30
30
30
30
30
30
60
E0
C0
60
20
30
30
30
30
30
30
3C
0C
ENDCHAR
STARTCHAR 007C
ENCODING 124
SWIDTH 270 0
DWIDTH 6 0
BBX 2 21 2 -5
BITMAP
C0
C0
C0
C0
C0
C0
C0
C0
C0
C0
C0
C0
C0
C0
C0
C0
C0
C0
C0
C0
C0
ENDCHAR
STARTCHAR 007D
ENCODING 125
SWIDTH 315 0
DWIDTH 7 0
BBX 6 21 1 -5
BITMAP
E0
E0
20
30
30
30
30
30
30
1C
1C
38
30
30
30
30
30
20
60
E0
C0
ENDCHAR
STARTCHAR 007E
ENCODING 126
SWIDTH 585 0
DWIDTH 13 0
BBX 11 4 1 6
BITMAP
3000
FE20
FFE0
03C0
ENDCHAR
STARTCHAR 00A0
ENCODING 160
SWIDTH 270 0
DWIDTH 6 0
BBX 0 0 0 0
BITMAP
ENDCHAR
STARTCHAR 00A1
ENCODING 161
SWIDTH 315 0
DWIDTH 7 0
BBX 2 16 3 -4
BITMAP
C0
C0
C0
00
80
80
80
C0
C0
C0
C0
C0
C0
C0
C0
C0
ENDCHAR
STARTCHAR 00A2
ENCODING 162
SWIDTH 540 0
DWIDTH 12 0
BBX 10 20 1 -4
BITMAP
0180
0100
0100
0100
0F00
3F80
63C0
66C0
C400
C400
C400
CC00
C8C0
68C0
7B80
3F00
1000
3000
3000
2000
ENDCHAR
STARTCHAR 00A3
ENCODING 163
SWIDTH 540 0
DWIDTH 12 0
BBX 12 16 0 0
BITMAP
0F80
1DC0
3060
3060
3000
3000
3000
FF00
FF00
1800
1800
1000
3000
6000
FFE0
63F0
ENDCHAR
STARTCHAR 00A4
ENCODING 164
SWIDTH 540 0
DWIDTH 12 0
BBX 10 10 1 3
BITMAP
C040
FFC0
7380
6180
40C0
40C0
60C0
7180
FFC0
CEC0
ENDCHAR
STARTCHAR 00A5
ENCODING 165
SWIDTH 540 0
DWIDTH 12 0
BBX 12 16 0 0
BITMAP
C030
6060
6060
30C0
38C0
1980
0D80
0F00
7FF0
0600
0600
7FF0
0600
0600
0600
0600
ENDCHAR
STARTCHAR 00A6
ENCODING 166
SWIDTH 270 0
DWIDTH 6 0
BBX 2 21 2 -5
BITMAP
C0
C0
C0
C0
C0
C0
C0
C0
00
00
00
00
C0
C0
C0
C0
C0
C0
C0
C0
C0
ENDCHAR
STARTCHAR 00A7
ENCODING 167
SWIDTH 540 0
DWIDTH 12 0
BBX 10 21 1 -5
BITMAP
3F00
7380
6180
6180
7000
3800
7C00
CF00
C380
C1C0
E0C0
70C0
3CC0
0F80
0700
0180
21C0
60C0
7180
3F80
0E00
ENDCHAR
STARTCHAR 00A8
ENCODING 168
SWIDTH 315 0
DWIDTH 7 0
BBX 6 2 1 14
BITMAP
CC
CC
ENDCHAR
STARTCHAR 00A9
ENCODING 169
SWIDTH 720 0
DWIDTH 16 0
BBX 16 16 0 0
BITMAP
07E0
1C38
300C
6186
47E3
C431
CC01
8801
8801
CC01
CC31
47E3
61C6
300C
1C38
07F0
ENDCHAR
STARTCHAR 00AA
ENCODING 170
SWIDTH 360 0
DWIDTH 8 0
BBX 7 8 1 8
BITMAP
7C
CC
04
7C
C4
84
DC
76
ENDCHAR
STARTCHAR 00AB
ENCODING 171
SWIDTH 540 0
DWIDTH 12 0
BBX 9 10 2 1
BITMAP
1180
3300
6200
6600
CC00
CC00
C600
6600
3300
3100
ENDCHAR
STARTCHAR 00AC
ENCODING 172
SWIDTH 585 0
DWIDTH 13 0
BBX 11 6 1 5
BITMAP
FFE0
FFE0
0060
0060
0060
0060
ENDCHAR
STARTCHAR 00AD
ENCODING 173
SWIDTH 315 0
DWIDTH 7 0
BBX 6 2 1 5
BITMAP
FC
FC
ENDCHAR
STARTCHAR 00AE
ENCODING 174
SWIDTH 720 0
DWIDTH 16 0
BBX 16 16 0 0
BITMAP
07E0
1C38
300C
6006
47E3
C421
C421
8461
87C1
C4C1
C461
4423
6436
300C
1C38
07F0
ENDCHAR
STARTCHAR 00AF
ENCODING 175
SWIDTH 540 0
DWIDTH 12 0
BBX 13 1 0 17
BITMAP
FFF8
ENDCHAR
STARTCHAR 00B0
ENCODING 176
SWIDTH 405 0
DWIDTH 9 0
BBX 6 6 1 10
BITMAP
78
44
C4
C4
6C
38
ENDCHAR
STARTCHAR 00B1
ENCODING 177
SWIDTH 540 0
DWIDTH 12 0
BBX 10 13 1 0
BITMAP
0C00
0C00
0C00
0C00
FFC0
FFC0
0C00
0C00
0C00
0C00
0000
FFC0
FFC0
ENDCHAR
STARTCHAR 00B2
ENCODING 178
SWIDTH 315 0
DWIDTH 7 0
BBX 7 8 0 8
BITMAP
3C
66
06
06
1C
30
60
FE
ENDCHAR
STARTCHAR 00B3
ENCODING 179
SWIDTH 315 0
DWIDTH 7 0
BBX 6 8 1 8
BITMAP
F8
CC
0C
38
0C
0C
8C
F8
ENDCHAR
STARTCHAR 00B4
ENCODING 180
SWIDTH 315 0
DWIDTH 7 0
BBX 3 3 3 13
BITMAP
60
C0
80
ENDCHAR
STARTCHAR 00B5
ENCODING 181
SWIDTH 585 0
DWIDTH 13 0
BBX 9 16 2 -4
BITMAP
C180
C180
C180
C180
C180
C180
C180
C180
C180
C380
F780
FF80
C000
C000
C000
C000
ENDCHAR
STARTCHAR 00B6
ENCODING 182
SWIDTH 540 0
DWIDTH 12 0
BBX 12 20 0 -4
BITMAP
1FF0
7FF0
FC40
FC40
FC40
FC40
FC40
7C40
3C40
0C40
0C40
0C40
0C40
0C40
0C40
0C40
0C40
0C40
0C40
0C40
ENDCHAR
STARTCHAR 00B7
ENCODING 183
SWIDTH 270 0
DWIDTH 6 0
BBX 2 2 2 7
BITMAP
C0
C0
ENDCHAR
STARTCHAR 00B8
ENCODING 184
SWIDTH 315 0
DWIDTH 7 0
BBX 5 5 1 -5
BITMAP
20
70
18
F8
60
ENDCHAR
STARTCHAR 00B9
ENCODING 185
SWIDTH 315 0
DWIDTH 7 0
BBX 4 8 1 8
BITMAP
30
70
D0
10
10
10
10
10
ENDCHAR
STARTCHAR 00BA
ENCODING 186
SWIDTH 360 0
DWIDTH 8 0
BBX 8 8 0 8
BITMAP
3C
66
42
C3
43
42
7E
3C
ENDCHAR
STARTCHAR 00BB
ENCODING 187
SWIDTH 540 0
DWIDTH 12 0
BBX 9 10 2 1
BITMAP
8800
CC00
6600
6300
3300
3380
3300
6600
4600
CC00
ENDCHAR
STARTCHAR 00BC
ENCODING 188
SWIDTH 855 0
DWIDTH 19 0
BBX 17 17 1 -1
BITMAP
300600
700C00
D00800
101800
103000
102000
106000
10C000
008300
010300
030700
060F00
041B00
0C3300
183F80
100300
300000
ENDCHAR
STARTCHAR 00BD
ENCODING 189
SWIDTH 855 0
DWIDTH 19 0
BBX 17 17 1 -1
BITMAP
300600
700C00
D00800
101000
103000
106000
104000
10C000
018F00
011F80
031180
060180
0C0300
080600
181C00
301F80
200000
ENDCHAR
STARTCHAR 00BE
ENCODING 190
SWIDTH 855 0
DWIDTH 19 0
BBX 17 17 1 -1
BITMAP
F80600
CC0C00
0C0800
381800
0C3000
0C2000
8C6000
F8C000
008300
010300
030700
060F00
041B00
0C3300
183F80
100300
300000
ENDCHAR
STARTCHAR 00BF
ENCODING 191
SWIDTH 630 0
DWIDTH 14 0
BBX 10 17 2 -5
BITMAP
0C00
0C00
0C00
0000
0C00
0C00
0C00
1800
3800
6000
C000
C000
C0C0
C1C0
E180
7F00
1C00
ENDCHAR
STARTCHAR 00C0
ENCODING 192
SWIDTH 675 0
DWIDTH 15 0
BBX 15 20 0 0
BITMAP
0700
0300
0180
0000
0300
0380
0780
06C0
0CC0
0CE0
0C60
1860
1830
3FF0
3FF8
3018
6018
601C
600C
C00E
ENDCHAR
STARTCHAR 00C1
ENCODING 193
SWIDTH 675 0
DWIDTH 15 0
BBX 15 20 0 0
BITMAP
01C0
0180
0300
0000
0300
0380
0780
06C0
0CC0
0CE0
0C60
1860
1830
3FF0
3FF8
3018
6018
601C
600C
C00E
ENDCHAR
STARTCHAR 00C2
ENCODING 194
SWIDTH 675 0
DWIDTH 15 0
BBX 15 20 0 0
BITMAP
0300
0780
0CC0
0000
0300
0380
0780
06C0
0CC0
0CE0
0C60
1860
1830
3FF0
3FF8
3018
6018
601C
600C
C00E
ENDCHAR
STARTCHAR 00C3
ENCODING 195
SWIDTH 675 0
DWIDTH 15 0
BBX 15 19 0 0
BITMAP
0F60
09C0
0000
0300
0380
0780
06C0
0CC0
0CE0
0C60
1860
1830
3FF0
3FF8
3018
6018
601C
600C
C00E
ENDCHAR
STARTCHAR 00C4
ENCODING 196
SWIDTH 675 0
DWIDTH 15 0
BBX 15 19 0 0
BITMAP
0CC0
0CC0
0000
0300
0380
0780
06C0
0CC0
0CE0
0C60
1860
1830
3FF0
3FF8
3018
6018
601C
600C
C00E
ENDCHAR
STARTCHAR 00C5
ENCODING 197
SWIDTH 675 0
DWIDTH 15 0
BBX 15 19 0 0
BITMAP
0380
0480
0480
0300
0380
0780
06C0
0CC0
0CE0
0C60
1860
1830
3FF0
3FF8
3018
6018
601C
600C
C00E
ENDCHAR
STARTCHAR 00C6
ENCODING 198
SWIDTH 990 0
DWIDTH 22 0
BBX 21 16 0 0
BITMAP
01FFF8
01FFF8
019800
031800
031800
061800
061800
0C1FF0
0C1FF0
181800
1FF800
301800
301800
601800
601FF8
E01FF8
ENDCHAR
STARTCHAR 00C7
ENCODING 199
SWIDTH 720 0
DWIDTH 16 0
BBX 14 21 1 -5
BITMAP
0FE0
1FF0
3838
601C
600C
E000
C000
C000
C000
C000
E000
600C
601C
3038
3FF0
0FE0
0300
0380
0180
0780
0600
ENDCHAR
STARTCHAR 00C8
ENCODING 200
SWIDTH 675 0
DWIDTH 15 0
BBX 12 20 2 0
BITMAP
1C00
0C00
0600
0000
FFE0
FFE0
C000
C000
C000
C000
C000
FFE0
FFE0
C000
C000
C000
C000
C000
FFF0
FFF0
ENDCHAR
STARTCHAR 00C9
ENCODING 201
SWIDTH 675 0
DWIDTH 15 0
BBX 12 20 2 0
BITMAP
0700
0600
0C00
0000
FFE0
FFE0
C000
C000
C000
C000
C000
FFE0
FFE0
C000
C000
C000
C000
C000
FFF0
FFF0
ENDCHAR
STARTCHAR 00CA
ENCODING 202
SWIDTH 675 0
DWIDTH 15 0
BBX 12 20 2 0
BITMAP
0E00
1F00
1B80
0000
FFE0
FFE0
C000
C000
C000
C000
C000
FFE0
FFE0
C000
C000
C000
C000
C000
FFF0
FFF0
ENDCHAR
STARTCHAR 00CB
ENCODING 203
SWIDTH 675 0
DWIDTH 15 0
BBX 12 19 2 0
BITMAP
1980
1980
0000
FFE0
FFE0
C000
C000
C000
C000
C000
FFE0
FFE0
C000
C000
C000
C000
C000
FFF0
FFF0
ENDCHAR
STARTCHAR 00CC
ENCODING 204
SWIDTH 270 0
DWIDTH 6 0
BBX 3 20 1 0
BITMAP
C0
60
20
00
60
60
60
60
60
60
60
60
60
60
60
60
60
60
60
60
ENDCHAR
STARTCHAR 00CD
ENCODING 205
SWIDTH 270 0
DWIDTH 6 0
BBX 3 20 2 0
BITMAP
60
C0
C0
00
C0
C0
C0
C0
C0
C0
C0
C0
C0
C0
C0
C0
C0
C0
C0
C0
ENDCHAR
STARTCHAR 00CE
ENCODING 206
SWIDTH 270 0
DWIDTH 6 0
BBX 6 20 0 0
BITMAP
30
78
CC
00
30
30
30
30
30
30
30
30
30
30
30
30
30
30
30
30
ENDCHAR
STARTCHAR 00CF
ENCODING 207
SWIDTH 270 0
DWIDTH 6 0
BBX 6 19 0 0
BITMAP
CC
CC
00
30
30
30
30
30
30
30
30
30
30
30
30
30
30
30
30
ENDCHAR
STARTCHAR 00D0
ENCODING 208
SWIDTH 720 0
DWIDTH 16 0
BBX 15 16 0 0
BITMAP
3FE0
3FF0
3038
301C
300C
300E
3006
FF06
FF06
3006
300E
300C
300C
3038
3FF0
3FE0
ENDCHAR
STARTCHAR 00D1
ENCODING 209
SWIDTH 720 0
DWIDTH 16 0
BBX 12 19 2 0
BITMAP
1EC0
1380
0000
C030
E030
E030
F030
F830
D830
CC30
CE30
C630
C330
C3B0
C1B0
C0F0
C0F0
C070
C030
ENDCHAR
STARTCHAR 00D2
ENCODING 210
SWIDTH 765 0
DWIDTH 17 0
BBX 15 20 1 0
BITMAP
0700
0300
0180
0000
0FE0
1FF8
381C
700C
600E
E006
C006
C006
C006
C006
E006
600E
700C
381C
1FF8
0FE0
ENDCHAR
STARTCHAR 00D3
ENCODING 211
SWIDTH 765 0
DWIDTH 17 0
BBX 15 20 1 0
BITMAP
00C0
0180
0100
0000
0FE0
1FF8
381C
700C
600E
E006
C006
C006
C006
C006
E006
600E
700C
381C
1FF8
0FE0
ENDCHAR
STARTCHAR 00D4
ENCODING 212
SWIDTH 765 0
DWIDTH 17 0
BBX 15 20 1 0
BITMAP
0380
07C0
06E0
0000
0FE0
1FF8
381C
700C
600E
E006
C006
C006
C006
C006
E006
600E
700C
381C
1FF8
0FE0
ENDCHAR
STARTCHAR 00D5
ENCODING 213
SWIDTH 765 0
DWIDTH 17 0
BBX 15 19 1 0
BITMAP
07E0
0DE0
0000
0FE0
1FF8
381C
700C
600E
E006
C006
C006
C006
C006
E006
600E
700C
381C
1FF8
0FE0
ENDCHAR
STARTCHAR 00D6
ENCODING 214
SWIDTH 765 0
DWIDTH 17 0
BBX 15 19 1 0
BITMAP
0660
0660
0000
0FE0
1FF8
381C
700C
600E
E006
C006
C006
C006
C006
E006
600E
700C
381C
1FF8
0FE0
ENDCHAR
STARTCHAR 00D7
ENCODING 215
SWIDTH 585 0
DWIDTH 13 0
BBX 9 9 2 4
BITMAP
C180
E300
7600
3C00
1C00
3E00
6700
C380
0100
ENDCHAR
STARTCHAR 00D8
ENCODING 216
SWIDTH 765 0
DWIDTH 17 0
BBX 15 16 1 -1
BITMAP
0FE6
1FF6
381C
701C
603E
E066
C0C6
C186
C306
C606
C406
6C0E
780C
381C
7FF8
CFE0
ENDCHAR
STARTCHAR 00D9
ENCODING 217
SWIDTH 720 0
DWIDTH 16 0
BBX 12 20 2 0
BITMAP
0C00
0C00
0600
0000
C030
C030
C030
C030
C030
C030
C030
C030
C030
C030
C030
C030
C030
E070
7FE0
3FC0
ENDCHAR
STARTCHAR 00DA
ENCODING 218
SWIDTH 720 0
DWIDTH 16 0
BBX 12 20 2 0
BITMAP
0300
0700
0600
0000
C030
C030
C030
C030
C030
C030
C030
C030
C030
C030
C030
C030
C030
E070
7FE0
3FC0
ENDCHAR
STARTCHAR 00DB
ENCODING 219
SWIDTH 720 0
DWIDTH 16 0
BBX 12 20 2 0
BITMAP
0600
0F00
1980
0000
C030
C030
C030
C030
C030
C030
C030
C030
C030
C030
C030
C030
C030
E070
7FE0
3FC0
ENDCHAR
STARTCHAR 00DC
ENCODING 220
SWIDTH 720 0
DWIDTH 16 0
BBX 12 19 2 0
BITMAP
1980
1980
0000
C030
C030
C030
C030
C030
C030
C030
C030
C030
C030
C030
C030
C030
E070
7FE0
3FC0
ENDCHAR
STARTCHAR 00DD
ENCODING 221
SWIDTH 675 0
DWIDTH 15 0
BBX 14 20 0 0
BITMAP
01C0
0180
0300
0000
E00C
701C
3018
3830
1870
0C60
0EC0
07C0
0380
0300
0300
0300
0300
0300
0300
0300
ENDCHAR
STARTCHAR 00DE
ENCODING 222
SWIDTH 675 0
DWIDTH 15 0
BBX 12 16 2 0
BITMAP
C000
C000
C000
FF00
FFC0
C0E0
C070
C030
C030
C070
C0E0
FFC0
FF00
C000
C000
C000
ENDCHAR
STARTCHAR 00DF
ENCODING 223
SWIDTH 630 0
DWIDTH 14 0
BBX 11 16 2 0
BITMAP
3E00
F700
C300
C300
C300
C600
C600
C600
C600
C380
C1C0
C0E0
C060
D860
DCC0
CF80
ENDCHAR
STARTCHAR 00E0
ENCODING 224
SWIDTH 540 0
DWIDTH 12 0
BBX 10 16 1 0
BITMAP
1C00
0C00
0400
0000
1E00
7F80
61C0
C0C0
00C0
1FC0
7EC0
E0C0
C0C0
C1C0
E3C0
7EC0
ENDCHAR
STARTCHAR 00E1
ENCODING 225
SWIDTH 540 0
DWIDTH 12 0
BBX 10 16 1 0
BITMAP
0700
0600
0C00
0000
1E00
7F80
61C0
C0C0
00C0
1FC0
7EC0
E0C0
C0C0
C1C0
E3C0
7EC0
ENDCHAR
STARTCHAR 00E2
ENCODING 226
SWIDTH 540 0
DWIDTH 12 0
BBX 10 16 1 0
BITMAP
0C00
1E00
3300
0000
1E00
7F80
61C0
C0C0
00C0
1FC0
7EC0
E0C0
C0C0
C1C0
E3C0
7EC0
ENDCHAR
STARTCHAR 00E3
ENCODING 227
SWIDTH 540 0
DWIDTH 12 0
BBX 10 16 1 0
BITMAP
1980
3F80
6300
0000
1E00
7F80
61C0
C0C0
00C0
1FC0
7EC0
E0C0
C0C0
C1C0
E3C0
7EC0
ENDCHAR
STARTCHAR 00E4
ENCODING 228
SWIDTH 540 0
DWIDTH 12 0
BBX 10 16 1 0
BITMAP
3300
3300
0000
0000
1E00
7F80
61C0
C0C0
00C0
1FC0
7EC0
E0C0
C0C0
C1C0
E3C0
7EC0
ENDCHAR
STARTCHAR 00E5
ENCODING 229
SWIDTH 540 0
DWIDTH 12 0
BBX 10 16 1 0
BITMAP
1E00
1200
1200
0C00
1E00
7F80
61C0
C0C0
00C0
1FC0
7EC0
E0C0
C0C0
C1C0
E3C0
7EC0
ENDCHAR
STARTCHAR 00E6
ENCODING 230
SWIDTH 900 0
DWIDTH 20 0
BBX 18 12 1 0
BITMAP
1E1E00
7FFF00
61E180
C0C180
00C0C0
1FFFC0
7EFFC0
E0C000
C1C0C0
C1C180
E77380
7E3F00
ENDCHAR
STARTCHAR 00E7
ENCODING 231
SWIDTH 495 0
DWIDTH 11 0
BBX 10 16 1 -4
BITMAP
1E00
3F80
6180
C0C0
C000
C000
C000
C000
C0C0
E180
7380
3F00
0800
0E00
0600
3C00
ENDCHAR
STARTCHAR 00E8
ENCODING 232
SWIDTH 540 0
DWIDTH 12 0
BBX 10 16 1 0
BITMAP
1800
0C00
0C00
0000
1E00
3F80
61C0
C0C0
C0C0
FFC0
FFC0
C000
C0C0
E0C0
7380
3F00
ENDCHAR
STARTCHAR 00E9
ENCODING 233
SWIDTH 540 0
DWIDTH 12 0
BBX 10 16 1 0
BITMAP
0700
0600
0C00
0000
1E00
3F80
61C0
C0C0
C0C0
FFC0
FFC0
C000
C0C0
E0C0
7380
3F00
ENDCHAR
STARTCHAR 00EA
ENCODING 234
SWIDTH 540 0
DWIDTH 12 0
BBX 10 16 1 0
BITMAP
0C00
1E00
3300
0000
1E00
3F80
61C0
C0C0
C0C0
FFC0
FFC0
C000
C0C0
E0C0
7380
3F00
ENDCHAR
STARTCHAR 00EB
ENCODING 235
SWIDTH 540 0
DWIDTH 12 0
BBX 10 16 1 0
BITMAP
3300
3300
0000
0000
1E00
3F80
61C0
C0C0
C0C0
FFC0
FFC0
C000
C0C0
E0C0
7380
3F00
ENDCHAR
STARTCHAR 00EC
ENCODING 236
SWIDTH 270 0
DWIDTH 6 0
BBX 3 16 1 0
BITMAP
C0
60
60
00
60
60
60
60
60
60
60
60
60
60
60
60
ENDCHAR
STARTCHAR 00ED
ENCODING 237
SWIDTH 270 0
DWIDTH 6 0
BBX 4 16 2 0
BITMAP
70
60
C0
00
C0
C0
C0
C0
C0
C0
C0
C0
C0
C0
C0
C0
ENDCHAR
STARTCHAR 00EE
ENCODING 238
SWIDTH 270 0
DWIDTH 6 0
BBX 6 16 0 0
BITMAP
38
78
CC
00
30
30
30
30
30
30
30
30
30
30
30
30
ENDCHAR
STARTCHAR 00EF
ENCODING 239
SWIDTH 270 0
DWIDTH 6 0
BBX 6 16 0 0
BITMAP
CC
CC
00
00
30
30
30
30
30
30
30
30
30
30
30
30
ENDCHAR
STARTCHAR 00F0
ENCODING 240
SWIDTH 540 0
DWIDTH 12 0
BBX 10 16 1 0
BITMAP
1880
0F00
1E00
3300
0980
3F80
61C0
C0C0
C0C0
C0C0
C0C0
C0C0
C0C0
E0C0
7380
3F00
ENDCHAR
STARTCHAR 00F1
ENCODING 241
SWIDTH 540 0
DWIDTH 12 0
BBX 10 16 1 0
BITMAP
1880
3F80
2300
0000
CF00
DF80
F1C0
E0C0
C0C0
C0C0
C0C0
C0C0
C0C0
C0C0
C0C0
C0C0
ENDCHAR
STARTCHAR 00F2
ENCODING 242
SWIDTH 540 0
DWIDTH 12 0
BBX 11 16 1 0
BITMAP
1800
0C00
0C00
0000
1E00
3F80
61C0
C0C0
C0C0
C0E0
C060
C0C0
C0C0
E0C0
7380
3F00
ENDCHAR
STARTCHAR 00F3
ENCODING 243
SWIDTH 540 0
DWIDTH 12 0
BBX 11 16 1 0
BITMAP
0700
0600
0C00
0000
1E00
3F80
61C0
C0C0
C0C0
C0E0
C060
C0C0
C0C0
E0C0
7380
3F00
ENDCHAR
STARTCHAR 00F4
ENCODING 244
SWIDTH 540 0
DWIDTH 12 0
BBX 11 16 1 0
BITMAP
0E00
1E00
3300
0000
1E00
3F80
61C0
C0C0
C0C0
C0E0
C060
C0C0
C0C0
E0C0
7380
3F00
ENDCHAR
STARTCHAR 00F5
ENCODING 245
SWIDTH 540 0
DWIDTH 12 0
BBX 11 16 1 0
BITMAP
1980
3F80
2300
4000
1E00
3F80
61C0
C0C0
C0C0
C0E0
C060
C0C0
C0C0
E0C0
7380
3F00
ENDCHAR
STARTCHAR 00F6
ENCODING 246
SWIDTH 540 0
DWIDTH 12 0
BBX 11 16 1 0
BITMAP
3300
3300
0000
0000
1E00
3F80
61C0
C0C0
C0C0
C0E0
C060
C0C0
C0C0
E0C0
7380
3F00
ENDCHAR
STARTCHAR 00F7
ENCODING 247
SWIDTH 540 0
DWIDTH 12 0
BBX 10 9 1 3
BITMAP
0C00
0C00
0000
FFC0
FFC0
0000
0C00
0C00
0C00
ENDCHAR
STARTCHAR 00F8
ENCODING 248
SWIDTH 630 0
DWIDTH 14 0
BBX 11 13 1 -1
BITMAP
0F60
3FC0
70C0
61E0
6360
C260
C460
EC60
7860
70E0
39C0
7F80
4000
ENDCHAR
STARTCHAR 00F9
ENCODING 249
SWIDTH 540 0
DWIDTH 12 0
BBX 10 16 1 0
BITMAP
1C00
0C00
0600
0000
C0C0
C0C0
C0C0
C0C0
C0C0
C0C0
C0C0
C0C0
C0C0
61C0
73C0
3EC0
ENDCHAR
STARTCHAR 00FA
ENCODING 250
SWIDTH 540 0
DWIDTH 12 0
BBX 10 16 1 0
BITMAP
0700
0600
0C00
0000
C0C0
C0C0
C0C0
C0C0
C0C0
C0C0
C0C0
C0C0
C0C0
61C0
73C0
3EC0
ENDCHAR
STARTCHAR 00FB
ENCODING 251
SWIDTH 540 0
DWIDTH 12 0
BBX 10 16 1 0
BITMAP
0C00
1E00
3300
0000
C0C0
C0C0
C0C0
C0C0
C0C0
C0C0
C0C0
C0C0
C0C0
61C0
73C0
3EC0
ENDCHAR
STARTCHAR 00FC
ENCODING 252
SWIDTH 540 0
DWIDTH 12 0
BBX 10 16 1 0
BITMAP
3300
3300
0000
0000
C0C0
C0C0
C0C0
C0C0
C0C0
C0C0
C0C0
C0C0
C0C0
61C0
73C0
3EC0
ENDCHAR
STARTCHAR 00FD
ENCODING 253
SWIDTH 495 0
DWIDTH 11 0
BBX 11 21 0 -5
BITMAP
0300
0600
0600
0000
C060
6060
60C0
70C0
3180
3180
1980
1B00
1B00
0F00
0E00
0600
0400
0C00
1C00
7800
3000
ENDCHAR
STARTCHAR 00FE
ENCODING 254
SWIDTH 540 0
DWIDTH 12 0
BBX 10 20 1 -4
BITMAP
C000
C000
C000
C000
CE00
DF80
F1C0
E0C0
C0C0
C0C0
C0C0
C0C0
E0C0
E0C0
F380
DF00
C000
C000
C000
C000
ENDCHAR
STARTCHAR 00FF
ENCODING 255
SWIDTH 495 0
DWIDTH 11 0
BBX 11 21 0 -5
BITMAP
1980
1980
0000
0000
C060
6060
60C0
70C0
3180
3180
1980
1B00
1B00
0F00
0E00
0600
0400
0C00
1C00
7800
3000
ENDCHAR
STARTCHAR 0100
ENCODING 256
SWIDTH 675 0
DWIDTH 15 0
BBX 15 19 0 0
BITMAP
0FE0
0FE0
0000
0300
0380
0780
06C0
0CC0
0CE0
0C60
1860
1830
3FF0
3FF8
3018
6018
601C
600C
C00E
ENDCHAR
STARTCHAR 0101
ENCODING 257
SWIDTH 540 0
DWIDTH 12 0
BBX 10 15 1 0
BITMAP
3F80
3F80
0000
1E00
7F80
61C0
C0C0
00C0
1FC0
7EC0
E0C0
C0C0
C1C0
E3C0
7EC0
ENDCHAR
STARTCHAR 0102
ENCODING 258
SWIDTH 675 0
DWIDTH 15 0
BBX 15 20 0 0
BITMAP
0C60
0C40
0780
0000
0300
0380
0780
06C0
0CC0
0CE0
0C60
1860
1830
3FF0
3FF8
3018
6018
601C
600C
C00E
ENDCHAR
STARTCHAR 0103
ENCODING 259
SWIDTH 540 0
DWIDTH 12 0
BBX 10 16 1 0
BITMAP
3180
1B00
0E00
0000
1E00
7F80
61C0
C0C0
00C0
1FC0
7EC0
E0C0
C0C0
C1C0
E3C0
7EC0
ENDCHAR
STARTCHAR 0104
ENCODING 260
SWIDTH 675 0
DWIDTH 15 0
BBX 17 21 0 -5
BITMAP
030000
038000
078000
06C000
0CC000
0CE000
0C6000
186000
183000
3FF000
3FF800
301800
601800
601C00
600C00
C00E00
000C00
000800
000C00
000F80
000200
ENDCHAR
STARTCHAR 0105
ENCODING 261
SWIDTH 540 0
DWIDTH 12 0
BBX 13 16 1 -4
BITMAP
1E00
7F80
61C0
C0C0
00C0
1FC0
7EC0
E0C0
C0C0
C1C0
E3C0
7EC0
0080
0080
00C0
00F8
ENDCHAR
STARTCHAR 0106
ENCODING 262
SWIDTH 720 0
DWIDTH 16 0
BBX 14 20 1 0
BITMAP
01C0
0180
0300
0000
0FE0
1FF0
3838
601C
600C
E000
C000
C000
C000
C000
E000
600C
601C
3038
3FF0
0FE0
ENDCHAR
STARTCHAR 0107
ENCODING 263
SWIDTH 495 0
DWIDTH 11 0
BBX 10 16 1 0
BITMAP
0600
0C00
0C00
0000
1E00
3F80
6180
C0C0
C000
C000
C000
C000
C0C0
E180
7380
3F00
ENDCHAR
STARTCHAR 0108
ENCODING 264
SWIDTH 720 0
DWIDTH 16 0
BBX 14 20 1 0
BITMAP
0380
0680
0EC0
0000
0FE0
1FF0
3838
601C
600C
E000
C000
C000
C000
C000
E000
600C
601C
3038
3FF0
0FE0
ENDCHAR
STARTCHAR 0109
ENCODING 265
SWIDTH 495 0
DWIDTH 11 0
BBX 10 16 1 0
BITMAP
0E00
1B00
3B00
0000
1E00
3F80
6180
C0C0
C000
C000
C000
C000
C0C0
E180
7380
3F00
ENDCHAR
STARTCHAR 010A
ENCODING 266
SWIDTH 720 0
DWIDTH 16 0
BBX 14 20 1 0
BITMAP
0380
0380
0380
0000
0FE0
1FF0
3838
601C
600C
E000
C000
C000
C000
C000
E000
600C
601C
3038
3FF0
0FE0
ENDCHAR
STARTCHAR 010B
ENCODING 267
SWIDTH 495 0
DWIDTH 11 0
BBX 10 15 1 0
BITMAP
0E00
0E00
0000
1E00
3F80
6180
C0C0
C000
C000
C000
C000
C0C0
E180
7380
3F00
ENDCHAR
STARTCHAR 010C
ENCODING 268
SWIDTH 720 0
DWIDTH 16 0
BBX 14 20 1 0
BITMAP
0E60
06C0
0380
0000
0FE0
1FF0
3838
601C
600C
E000
C000
C000
C000
C000
E000
600C
601C
3038
3FF0
0FE0
ENDCHAR
STARTCHAR 010D
ENCODING 269
SWIDTH 495 0
DWIDTH 11 0
BBX 10 16 1 0
BITMAP
3300
1E00
0C00
0000
1E00
3F80
6180
C0C0
C000
C000
C000
C000
C0C0
E180
7380
3F00
ENDCHAR
STARTCHAR 010E
ENCODING 270
SWIDTH 720 0
DWIDTH 16 0
BBX 13 20 2 0
BITMAP
7700
3600
1C00
0000
FF80
FFC0
C0E0
C070
C030
C038
C018
C018
C018
C018
C038
C030
C030
C0E0
FFC0
FF80
ENDCHAR
STARTCHAR 010F
ENCODING 271
SWIDTH 630 0
DWIDTH 14 0
BBX 13 16 1 0
BITMAP
00D8
00D8
00C8
00D0
1CD0
7FC0
61C0
C1C0
C0C0
C0C0
C0C0
C0C0
C0C0
E1C0
73C0
3EC0
ENDCHAR
STARTCHAR 0110
ENCODING 272
SWIDTH 720 0
DWIDTH 16 0
BBX 15 16 0 0
BITMAP
3FE0
3FF0
3038
301C
300C
300E
3006
FF06
FF06
3006
300E
300C
300C
3038
3FF0
3FE0
ENDCHAR
STARTCHAR 0111
ENCODING 273
SWIDTH 540 0
DWIDTH 12 0
BBX 11 16 1 0
BITMAP
00C0
0FE0
0FE0
00C0
1CC0
7FC0
61C0
C1C0
C0C0
C0C0
C0C0
C0C0
C0C0
E1C0
73C0
3EC0
ENDCHAR
STARTCHAR 0112
ENCODING 274
SWIDTH 675 0
DWIDTH 15 0
BBX 12 19 2 0
BITMAP
3F80
3F80
0000
FFE0
FFE0
C000
C000
C000
C000
C000
FFE0
FFE0
C000
C000
C000
C000
C000
FFF0
FFF0
ENDCHAR
STARTCHAR 0113
ENCODING 275
SWIDTH 540 0
DWIDTH 12 0
BBX 10 15 1 0
BITMAP
3F80
3F80
0000
1E00
3F80
61C0
C0C0
C0C0
FFC0
FFC0
C000
C0C0
E0C0
7380
3F00
ENDCHAR
STARTCHAR 0114
ENCODING 276
SWIDTH 675 0
DWIDTH 15 0
BBX 12 20 2 0
BITMAP
3180
1900
0F00
0000
FFE0
FFE0
C000
C000
C000
C000
C000
FFE0
FFE0
C000
C000
C000
C000
C000
FFF0
FFF0
ENDCHAR
STARTCHAR 0115
ENCODING 277
SWIDTH 540 0
DWIDTH 12 0
BBX 10 16 1 0
BITMAP
3100
1B00
0E00
0000
1E00
3F80
61C0
C0C0
C0C0
FFC0
FFC0
C000
C0C0
E0C0
7380
3F00
ENDCHAR
STARTCHAR 0116
ENCODING 278
SWIDTH 675 0
DWIDTH 15 0
BBX 12 19 2 0
BITMAP
0600
0600
0000
FFE0
FFE0
C000
C000
C000
C000
C000
FFE0
FFE0
C000
C000
C000
C000
C000
FFF0
FFF0
ENDCHAR
STARTCHAR 0117
ENCODING 279
SWIDTH 540 0
DWIDTH 12 0
BBX 10 15 1 0
BITMAP
0E00
0E00
0000
1E00
3F80
61C0
C0C0
C0C0
FFC0
FFC0
C000
C0C0
E0C0
7380
3F00
ENDCHAR
STARTCHAR 0118
ENCODING 280
SWIDTH 675 0
DWIDTH 15 0
BBX 12 21 2 -5
BITMAP
FFE0
FFE0
C000
C000
C000
C000
C000
FFE0
FFE0
C000
C000
C000
C000
C000
FFF0
FFF0
0100
0100
0100
01F0
00C0
ENDCHAR
STARTCHAR 0119
ENCODING 281
SWIDTH 540 0
DWIDTH 12 0
BBX 10 17 1 -5
BITMAP
1E00
3F80
61C0
C0C0
C0C0
FFC0
FFC0
C000
C0C0
E0C0
7380
3F00
0400
0C00
0C00
0780
0300
ENDCHAR
STARTCHAR 011A
ENCODING 282
SWIDTH 675 0
DWIDTH 15 0
BBX 12 20 2 0
BITMAP
3300
1B00
0E00
0000
FFE0
FFE0
C000
C000
C000
C000
C000
FFE0
FFE0
C000
C000
C000
C000
C000
FFF0
FFF0
ENDCHAR
STARTCHAR 011B
ENCODING 283
SWIDTH 540 0
DWIDTH 12 0
BBX 10 16 1 0
BITMAP
3300
1B00
0E00
0000
1E00
3F80
61C0
C0C0
C0C0
FFC0
FFC0
C000
C0C0
E0C0
7380
3F00
ENDCHAR
STARTCHAR 011C
ENCODING 284
SWIDTH 765 0
DWIDTH 17 0
BBX 15 20 1 0
BITMAP
01C0
03C0
0360
0400
07F0
1FF8
381C
700C
6006
6000
C000
C000
C0FE
C0FE
E006
6006
7006
380E
1FFC
07F0
ENDCHAR
STARTCHAR 011D
ENCODING 285
SWIDTH 540 0
DWIDTH 12 0
BBX 10 21 1 -5
BITMAP
1C00
1E00
3300
0000
1CC0
7FC0
61C0
C0C0
C0C0
C0C0
C0C0
C0C0
C0C0
E1C0
7FC0
3EC0
00C0
C0C0
E180
7F00
1C00
ENDCHAR
STARTCHAR 011E
ENCODING 286
SWIDTH 765 0
DWIDTH 17 0
BBX 15 20 1 0
BITMAP
0630
0220
03C0
0000
07F0
1FF8
381C
700C
6006
6000
C000
C000
C0FE
C0FE
E006
6006
7006
380E
1FFC
07F0
ENDCHAR
STARTCHAR 011F
ENCODING 287
SWIDTH 540 0
DWIDTH 12 0
BBX 10 21 1 -5
BITMAP
2100
3300
1E00
0000
1CC0
7FC0
61C0
C0C0
C0C0
C0C0
C0C0
C0C0
C0C0
E1C0
7FC0
3EC0
00C0
C0C0
E180
7F00
1C00
ENDCHAR
STARTCHAR 0120
ENCODING 288
SWIDTH 765 0
DWIDTH 17 0
BBX 15 19 1 0
BITMAP
01C0
01C0
0000
07F0
1FF8
381C
700C
6006
6000
C000
C000
C0FE
C0FE
E006
6006
7006
380E
1FFC
07F0
ENDCHAR
STARTCHAR 0121
ENCODING 289
SWIDTH 540 0
DWIDTH 12 0
BBX 10 20 1 -5
BITMAP
0C00
0C00
0000
1CC0
7FC0
61C0
C0C0
C0C0
C0C0
C0C0
C0C0
C0C0
E1C0
7FC0
3EC0
00C0
C0C0
E180
7F00
1C00
ENDCHAR
STARTCHAR 0122
ENCODING 290
SWIDTH 765 0
DWIDTH 17 0
BBX 15 21 1 -5
BITMAP
07F0
1FF8
381C
700C
6006
6000
C000
C000
C0FE
C0FE
E006
6006
7006
380E
1FFC
07F0
0180
01C0
0060
03C0
0300
ENDCHAR
STARTCHAR 0123
ENCODING 291
SWIDTH 540 0
DWIDTH 12 0
BBX 10 22 1 -5
BITMAP
0C00
0800
0C00
0C00
0000
1CC0
7FC0
61C0
C1C0
C0C0
C0C0
C0C0
C0C0
C0C0
E1C0
7FC0
3EC0
00C0
C0C0
E180
7F00
1C00
ENDCHAR
STARTCHAR 0124
ENCODING 292
SWIDTH 720 0
DWIDTH 16 0
BBX 12 20 2 0
BITMAP
0700
0D00
1D80
0000
C030
C030
C030
C030
C030
C030
C030
FFF0
FFF0
C030
C030
C030
C030
C030
C030
C030
ENDCHAR
STARTCHAR 0125
ENCODING 293
SWIDTH 540 0
DWIDTH 12 0
BBX 10 20 1 0
BITMAP
0600
0F00
1980
0000
C000
C000
C000
C000
CF00
DF80
F1C0
E0C0
C0C0
C0C0
C0C0
C0C0
C0C0
C0C0
C0C0
C0C0
ENDCHAR
STARTCHAR 0126
ENCODING 294
SWIDTH 720 0
DWIDTH 16 0
BBX 16 16 0 0
BITMAP
300C
300C
FFFF
FFFF
300C
300C
300C
3FFC
3FFC
300C
300C
300C
300C
300C
300C
300C
ENDCHAR
STARTCHAR 0127
ENCODING 295
SWIDTH 540 0
DWIDTH 12 0
BBX 11 16 0 0
BITMAP
6000
6000
FE00
6000
6780
6FC0
78E0
7060
6060
6060
6060
6060
6060
6060
6060
6060
ENDCHAR
STARTCHAR 0128
ENCODING 296
SWIDTH 270 0
DWIDTH 6 0
BBX 8 20 -1 0
BITMAP
23
7E
CE
00
18
18
18
18
18
18
18
18
18
18
18
18
18
18
18
18
ENDCHAR
STARTCHAR 0129
ENCODING 297
SWIDTH 270 0
DWIDTH 6 0
BBX 7 16 0 0
BITMAP
66
FE
8C
00
30
30
30
30
30
30
30
30
30
30
30
30
ENDCHAR
STARTCHAR 012A
ENCODING 298
SWIDTH 270 0
DWIDTH 6 0
BBX 6 19 0 0
BITMAP
FC
FC
00
30
30
30
30
30
30
30
30
30
30
30
30
30
30
30
30
ENDCHAR
STARTCHAR 012B
ENCODING 299
SWIDTH 270 0
DWIDTH 6 0
BBX 7 15 0 0
BITMAP
FE
FE
00
30
30
30
30
30
30
30
30
30
30
30
30
ENDCHAR
STARTCHAR 012C
ENCODING 300
SWIDTH 270 0
DWIDTH 6 0
BBX 6 20 0 0
BITMAP
84
C4
78
00
30
30
30
30
30
30
30
30
30
30
30
30
30
30
30
30
ENDCHAR
STARTCHAR 012D
ENCODING 301
SWIDTH 270 0
DWIDTH 6 0
BBX 6 16 0 0
BITMAP
84
CC
78
00
30
30
30
30
30
30
30
30
30
30
30
30
ENDCHAR
STARTCHAR 012E
ENCODING 302
SWIDTH 270 0
DWIDTH 6 0
BBX 5 21 2 -5
BITMAP
C0
C0
C0
C0
C0
C0
C0
C0
C0
C0
C0
C0
C0
C0
C0
C0
80
80
80
F8
60
ENDCHAR
STARTCHAR 012F
ENCODING 303
SWIDTH 225 0
DWIDTH 5 0
BBX 5 21 1 -5
BITMAP
C0
C0
00
00
C0
C0
C0
C0
C0
C0
C0
C0
C0
C0
C0
C0
C0
80
C0
F8
20
ENDCHAR
STARTCHAR 0130
ENCODING 304
SWIDTH 270 0
DWIDTH 6 0
BBX 2 19 2 0
BITMAP
C0
C0
00
C0
C0
C0
C0
C0
C0
C0
C0
C0
C0
C0
C0
C0
C0
C0
C0
ENDCHAR
STARTCHAR 0131
ENCODING 305
SWIDTH 270 0
DWIDTH 6 0
BBX 2 12 2 0
BITMAP
C0
C0
C0
C0
C0
C0
C0
C0
C0
C0
C0
C0
ENDCHAR
STARTCHAR 0132
ENCODING 306
SWIDTH 720 0
DWIDTH 16 0
BBX 13 16 2 0
BITMAP
C018
C018
C018
C018
C018
C018
C018
C018
C018
C018
C018
CC18
CC18
C618
C7F0
C3F0
ENDCHAR
STARTCHAR 0133
ENCODING 307
SWIDTH 450 0
DWIDTH 10 0
BBX 8 21 1 -5
BITMAP
C3
C3
00
00
C3
C3
C3
C3
C3
C3
C3
C3
C3
C3
C3
C3
03
03
06
1E
1C
ENDCHAR
STARTCHAR 0134
ENCODING 308
SWIDTH 495 0
DWIDTH 11 0
BBX 11 20 1 0
BITMAP
0380
06C0
06E0
0000
0300
0300
0300
0300
0300
0300
0300
0300
0300
0300
0300
C300
C300
C300
FF00
7E00
ENDCHAR
STARTCHAR 0135
ENCODING 309
SWIDTH 225 0
DWIDTH 5 0
BBX 6 21 -1 -5
BITMAP
38
6C
EC
00
30
30
30
30
30
30
30
30
30
30
30
30
30
30
30
F0
E0
ENDCHAR
STARTCHAR 0136
ENCODING 310
SWIDTH 675 0
DWIDTH 15 0
BBX 12 21 2 -5
BITMAP
C070
C0E0
C1C0
C380
C700
CE00
DC00
FC00
F600
E700
C380
C180
C0C0
C0E0
C070
C030
0000
0780
0180
0F80
0600
ENDCHAR
STARTCHAR 0137
ENCODING 311
SWIDTH 495 0
DWIDTH 11 0
BBX 10 21 1 -5
BITMAP
C000
C000
C000
C000
C1C0
C380
C600
CC00
D800
FC00
EC00
C600
C700
C300
C180
C1C0
0000
0F00
0300
1F00
0C00
ENDCHAR
STARTCHAR 0138
ENCODING 312
SWIDTH 495 0
DWIDTH 11 0
BBX 10 12 1 0
BITMAP
C1C0
C380
C600
CC00
D800
FC00
EC00
C600
C700
C300
C180
C1C0
ENDCHAR
STARTCHAR 0139
ENCODING 313
SWIDTH 540 0
DWIDTH 12 0
BBX 10 20 2 0
BITMAP
1800
3000
2000
0000
C000
C000
C000
C000
C000
C000
C000
C000
C000
C000
C000
C000
C000
C000
FFC0
FFC0
ENDCHAR
STARTCHAR 013A
ENCODING 314
SWIDTH 225 0
DWIDTH 5 0
BBX 4 20 1 0
BITMAP
70
60
C0
00
C0
C0
C0
C0
C0
C0
C0
C0
C0
C0
C0
C0
C0
C0
C0
C0
ENDCHAR
STARTCHAR 013B
ENCODING 315
SWIDTH 540 0
DWIDTH 12 0
BBX 10 21 2 -5
BITMAP
C000
C000
C000
C000
C000
C000
C000
C000
C000
C000
C000
C000
C000
C000
FFC0
FFC0
0000
0E00
0300
1E00
1800
ENDCHAR
STARTCHAR 013C
ENCODING 316
SWIDTH 225 0
DWIDTH 5 0
BBX 5 21 0 -5
BITMAP
60
60
60
60
60
60
60
60
60
60
60
60
60
60
60
60
00
70
18
F0
E0
ENDCHAR
STARTCHAR 013D
ENCODING 317
SWIDTH 540 0
DWIDTH 12 0
BBX 10 16 2 0
BITMAP
C300
C300
C100
C100
C200
C000
C000
C000
C000
C000
C000
C000
C000
C000
FFC0
FFC0
ENDCHAR
STARTCHAR 013E
ENCODING 318
SWIDTH 270 0
DWIDTH 6 0
BBX 5 16 1 0
BITMAP
D8
D8
C8
C8
C8
C0
C0
C0
C0
C0
C0
C0
C0
C0
C0
C0
ENDCHAR
STARTCHAR 013F
ENCODING 319
SWIDTH 540 0
DWIDTH 12 0
BBX 10 16 2 0
BITMAP
C000
C000
C000
C000
C000
C000
C000
C300
C300
C000
C000
C000
C000
C000
FFC0
FFC0
ENDCHAR
STARTCHAR 0140
ENCODING 320
SWIDTH 315 0
DWIDTH 7 0
BBX 6 16 1 0
BITMAP
C0
C0
C0
C0
C0
C0
C0
CC
CC
C0
C0
C0
C0
C0
C0
C0
ENDCHAR
STARTCHAR 0141
ENCODING 321
SWIDTH 540 0
DWIDTH 12 0
BBX 12 16 0 0
BITMAP
3000
3000
3000
3000
3200
3600
3C00
3000
7000
F000
B000
3000
3000
3000
3FF0
3FF0
ENDCHAR
STARTCHAR 0142
ENCODING 322
SWIDTH 225 0
DWIDTH 5 0
BBX 5 16 0 0
BITMAP
60
60
60
60
60
68
78
70
60
E0
E0
60
60
60
60
60
ENDCHAR
STARTCHAR 0143
ENCODING 323
SWIDTH 720 0
DWIDTH 16 0
BBX 12 20 2 0
BITMAP
0700
0600
0C00
0000
C030
E030
E030
F030
F830
D830
CC30
CE30
C630
C330
C3B0
C1B0
C0F0
C0F0
C070
C030
ENDCHAR
STARTCHAR 0144
ENCODING 324
SWIDTH 540 0
DWIDTH 12 0
BBX 10 16 1 0
BITMAP
0600
0600
0C00
0000
CF00
DF80
F1C0
E0C0
C0C0
C0C0
C0C0
C0C0
C0C0
C0C0
C0C0
C0C0
ENDCHAR
STARTCHAR 0145
ENCODING 325
SWIDTH 720 0
DWIDTH 16 0
BBX 12 21 2 -5
BITMAP
C030
E030
E030
F030
F830
D830
CC30
CE30
C630
C330
C3B0
C1B0
C0F0
C0F0
C070
C030
0000
0380
0180
0780
0600
ENDCHAR
STARTCHAR 0146
ENCODING 326
SWIDTH 540 0
DWIDTH 12 0
BBX 10 17 1 -5
BITMAP
CF00
DF80
F1C0
E0C0
C0C0
C0C0
C0C0
C0C0
C0C0
C0C0
C0C0
C0C0
0000
0E00
0300
1E00
1800
ENDCHAR
STARTCHAR 0147
ENCODING 327
SWIDTH 720 0
DWIDTH 16 0
BBX 12 20 2 0
BITMAP
1980
0F00
0E00
0000
C030
E030
E030
F030
F830
D830
CC30
CE30
C630
C330
C3B0
C1B0
C0F0
C0F0
C070
C030
ENDCHAR
STARTCHAR 0148
ENCODING 328
SWIDTH 540 0
DWIDTH 12 0
BBX 10 16 1 0
BITMAP
3300
1B00
0E00
0000
CF00
DF80
F1C0
E0C0
C0C0
C0C0
C0C0
C0C0
C0C0
C0C0
C0C0
C0C0
ENDCHAR
STARTCHAR 0149
ENCODING 329
SWIDTH 585 0
DWIDTH 13 0
BBX 12 16 1 0
BITMAP
C000
C000
4000
4000
D9C0
1FF0
1C30
1830
1830
1830
1830
1830
1830
1830
1830
1830
ENDCHAR
STARTCHAR 014A
ENCODING 330
SWIDTH 720 0
DWIDTH 16 0
BBX 13 16 2 0
BITMAP
CFC0
FFE0
F070
E030
C038
C018
C018
C018
C018
C018
C018
C038
C030
C070
C3E0
C7C0
ENDCHAR
STARTCHAR 014B
ENCODING 331
SWIDTH 540 0
DWIDTH 12 0
BBX 9 17 2 -5
BITMAP
9E00
BF00
E380
C180
C180
8180
8180
8180
8180
8180
8180
8180
0180
0180
0180
0700
0600
ENDCHAR
STARTCHAR 014C
ENCODING 332
SWIDTH 765 0
DWIDTH 17 0
BBX 15 19 1 0
BITMAP
0FE0
0FE0
0000
0FE0
1FF8
381C
700C
600E
E006
C006
C006
C006
C006
E006
600E
700C
381C
1FF8
0FE0
ENDCHAR
STARTCHAR 014D
ENCODING 333
SWIDTH 540 0
DWIDTH 12 0
BBX 11 15 1 0
BITMAP
3F80
3F80
0000
1E00
3F80
61C0
C0C0
C0C0
C0E0
C060
C0C0
C0C0
E0C0
7380
3F00
ENDCHAR
STARTCHAR 014E
ENCODING 334
SWIDTH 765 0
DWIDTH 17 0
BBX 15 20 1 0
BITMAP
0420
0660
03C0
0000
0FE0
1FF8
381C
700C
600E
E006
C006
C006
C006
C006
E006
600E
700C
381C
1FF8
0FE0
ENDCHAR
STARTCHAR 014F
ENCODING 335
SWIDTH 540 0
DWIDTH 12 0
BBX 11 16 1 0
BITMAP
2100
3B00
1E00
0000
1E00
3F80
61C0
C0C0
C0C0
C0E0
C060
C0C0
C0C0
E0C0
7380
3F00
ENDCHAR
STARTCHAR 0150
ENCODING 336
SWIDTH 765 0
DWIDTH 17 0
BBX 15 20 1 0
BITMAP
0760
0660
0CC0
0000
0FE0
1FF8
381C
700C
600E
E006
C006
C006
C006
C006
E006
600E
700C
381C
1FF8
0FE0
ENDCHAR
STARTCHAR 0151
ENCODING 337
SWIDTH 540 0
DWIDTH 12 0
BBX 11 16 1 0
BITMAP
1D80
1980
3300
0000
1E00
3F80
61C0
C0C0
C0C0
C0E0
C060
C0C0
C0C0
E0C0
7380
3F00
ENDCHAR
STARTCHAR 0152
ENCODING 338
SWIDTH 990 0
DWIDTH 22 0
BBX 21 16 1 0
BITMAP
0F9FF0
3FFFF0
307800
703800
601800
601800
E01800
E01FF0
E01FF0
E01800
601800
601800
603800
307800
3CFFF8
0FDFF8
ENDCHAR
STARTCHAR 0153
ENCODING 339
SWIDTH 945 0
DWIDTH 21 0
BBX 19 12 1 0
BITMAP
1E0F00
3FBF80
61F0C0
E0E060
C0E060
C07FE0
C07FE0
C06000
C0E060
60F0E0
73B9C0
3F1F80
ENDCHAR
STARTCHAR 0154
ENCODING 340
SWIDTH 720 0
DWIDTH 16 0
BBX 13 20 2 0
BITMAP
0600
0C00
0C00
0000
FFC0
FFE0
C070
C030
C030
C030
C070
FFE0
FF80
C180
C1C0
C0E0
C070
C030
C038
C018
ENDCHAR
STARTCHAR 0155
ENCODING 341
SWIDTH 315 0
DWIDTH 7 0
BBX 6 16 1 0
BITMAP
18
30
30
00
CC
DC
F0
E0
E0
C0
C0
C0
C0
C0
C0
C0
ENDCHAR
STARTCHAR 0156
ENCODING 342
SWIDTH 720 0
DWIDTH 16 0
BBX 13 21 2 -5
BITMAP
FFC0
FFE0
C070
C030
C030
C030
C070
FFE0
FF80
C180
C1C0
C0E0
C070
C030
C038
C018
0000
0380
0180
0780
0600
ENDCHAR
STARTCHAR 0157
ENCODING 343
SWIDTH 315 0
DWIDTH 7 0
BBX 6 17 1 -5
BITMAP
CC
DC
F0
E0
E0
C0
C0
C0
C0
C0
C0
C0
00
38
18
78
60
ENDCHAR
STARTCHAR 0158
ENCODING 344
SWIDTH 720 0
DWIDTH 16 0
BBX 13 20 2 0
BITMAP
3300
1E00
1E00
0000
FFC0
FFE0
C070
C030
C030
C030
C070
FFE0
FF80
C180
C1C0
C0E0
C070
C030
C038
C018
ENDCHAR
STARTCHAR 0159
ENCODING 345
SWIDTH 315 0
DWIDTH 7 0
BBX 6 16 1 0
BITMAP
CC
78
38
00
CC
DC
F0
E0
E0
C0
C0
C0
C0
C0
C0
C0
ENDCHAR
STARTCHAR 015A
ENCODING 346
SWIDTH 675 0
DWIDTH 15 0
BBX 13 20 1 0
BITMAP
0300
0600
0400
0000
1FC0
3FE0
6070
6030
6030
6000
7C00
1FC0
07E0
0070
0038
C018
E038
6030
7FE0
1FC0
ENDCHAR
STARTCHAR 015B
ENCODING 347
SWIDTH 495 0
DWIDTH 11 0
BBX 9 16 1 0
BITMAP
0E00
0C00
0800
0000
3C00
7F00
C380
C100
E000
7C00
3F00
0380
C180
C180
E380
7F00
ENDCHAR
STARTCHAR 015C
ENCODING 348
SWIDTH 675 0
DWIDTH 15 0
BBX 13 20 1 0
BITMAP
0700
0F00
1D80
0000
1FC0
3FE0
6070
6030
6030
6000
7C00
1FC0
07E0
0070
0038
C018
E038
6030
7FE0
1FC0
ENDCHAR
STARTCHAR 015D
ENCODING 349
SWIDTH 495 0
DWIDTH 11 0
BBX 9 16 1 0
BITMAP
1C00
1E00
3300
0000
3C00
7F00
C380
C100
E000
7C00
3F00
0380
C180
C180
E380
7F00
ENDCHAR
STARTCHAR 015E
ENCODING 350
SWIDTH 675 0
DWIDTH 15 0
BBX 13 20 1 -4
BITMAP
1FC0
3FE0
6070
6030
6030
6000
7C00
1FC0
07E0
0070
0038
C018
E038
6030
7FE0
1FC0
0600
0700
0180
0F00
ENDCHAR
STARTCHAR 015F
ENCODING 351
SWIDTH 495 0
DWIDTH 11 0
BBX 9 16 1 -4
BITMAP
3C00
7F00
C380
C100
E000
7C00
3F00
0380
C180
C180
E380
7F00
1800
0C00
0600
3C00
ENDCHAR
STARTCHAR 0160
ENCODING 352
SWIDTH 675 0
DWIDTH 15 0
BBX 13 20 1 0
BITMAP
1980
0F00
0F00
0000
1FC0
3FE0
6070
6030
6030
6000
7C00
1FC0
07E0
0070
0038
C018
E038
6030
7FE0
1FC0
ENDCHAR
STARTCHAR 0161
ENCODING 353
SWIDTH 495 0
DWIDTH 11 0
BBX 9 16 1 0
BITMAP
7700
3600
1C00
0000
3C00
7F00
C380
C100
E000
7C00
3F00
0380
C180
C180
E380
7F00
ENDCHAR
STARTCHAR 0162
ENCODING 354
SWIDTH 630 0
DWIDTH 14 0
BBX 12 22 1 -6
BITMAP
FFF0
FFF0
0600
0600
0600
0600
0600
0600
0600
0600
0600
0600
0600
0600
0600
0600
0000
0600
0600
0600
0200
0400
ENDCHAR
STARTCHAR 0163
ENCODING 355
SWIDTH 270 0
DWIDTH 6 0
BBX 6 21 0 -5
BITMAP
30
30
30
FC
FC
30
30
30
30
30
30
30
30
3C
3C
00
18
18
08
08
10
ENDCHAR
STARTCHAR 0164
ENCODING 356
SWIDTH 630 0
DWIDTH 14 0
BBX 12 20 1 0
BITMAP
1980
1B00
0E00
0000
FFF0
FFF0
0600
0600
0600
0600
0600
0600
0600
0600
0600
0600
0600
0600
0600
0600
ENDCHAR
STARTCHAR 0165
ENCODING 357
SWIDTH 360 0
DWIDTH 8 0
BBX 8 16 0 0
BITMAP
03
33
31
31
FE
FC
30
30
30
30
30
30
30
30
3C
3C
ENDCHAR
STARTCHAR 0166
ENCODING 358
SWIDTH 630 0
DWIDTH 14 0
BBX 12 16 1 0
BITMAP
FFF0
FFF0
0600
0600
0600
0600
0600
0600
7FC0
0600
0600
0600
0600
0600
0600
0600
ENDCHAR
STARTCHAR 0167
ENCODING 359
SWIDTH 270 0
DWIDTH 6 0
BBX 6 16 0 0
BITMAP
10
30
30
30
F8
F8
30
30
30
F8
30
30
30
30
3C
3C
ENDCHAR
STARTCHAR 0168
ENCODING 360
SWIDTH 720 0
DWIDTH 16 0
BBX 12 20 2 0
BITMAP
08C0
1FC0
1380
0000
C030
C030
C030
C030
C030
C030
C030
C030
C030
C030
C030
C030
C030
E070
7FE0
3FC0
ENDCHAR
STARTCHAR 0169
ENCODING 361
SWIDTH 540 0
DWIDTH 12 0
BBX 10 16 1 0
BITMAP
1980
3F80
2300
0000
C0C0
C0C0
C0C0
C0C0
C0C0
C0C0
C0C0
C0C0
C0C0
61C0
73C0
3EC0
ENDCHAR
STARTCHAR 016A
ENCODING 362
SWIDTH 720 0
DWIDTH 16 0
BBX 12 19 2 0
BITMAP
1FC0
1FC0
0000
C030
C030
C030
C030
C030
C030
C030
C030
C030
C030
C030
C030
C030
E070
7FE0
3FC0
ENDCHAR
STARTCHAR 016B
ENCODING 363
SWIDTH 540 0
DWIDTH 12 0
BBX 10 15 1 0
BITMAP
3F80
3F80
0000
C0C0
C0C0
C0C0
C0C0
C0C0
C0C0
C0C0
C0C0
C0C0
61C0
73C0
3EC0
ENDCHAR
STARTCHAR 016C
ENCODING 364
SWIDTH 720 0
DWIDTH 16 0
BBX 12 20 2 0
BITMAP
1080
1980
0F00
0000
C030
C030
C030
C030
C030
C030
C030
C030
C030
C030
C030
C030
C030
E070
7FE0
3FC0
ENDCHAR
STARTCHAR 016D
ENCODING 365
SWIDTH 540 0
DWIDTH 12 0
BBX 10 16 1 0
BITMAP
2100
3B00
1E00
0000
C0C0
C0C0
C0C0
C0C0
C0C0
C0C0
C0C0
C0C0
C0C0
61C0
73C0
3EC0
ENDCHAR
STARTCHAR 016E
ENCODING 366
SWIDTH 720 0
DWIDTH 16 0
BBX 12 20 2 0
BITMAP
0600
0900
0900
0600
C030
C030
C030
C030
C030
C030
C030
C030
C030
C030
C030
C030
C030
E070
7FE0
3FC0
ENDCHAR
STARTCHAR 016F
ENCODING 367
SWIDTH 540 0
DWIDTH 12 0
BBX 10 16 1 0
BITMAP
1E00
1200
1200
0C00
C0C0
C0C0
C0C0
C0C0
C0C0
C0C0
C0C0
C0C0
C0C0
61C0
73C0
3EC0
ENDCHAR
STARTCHAR 0170
ENCODING 368
SWIDTH 720 0
DWIDTH 16 0
BBX 12 20 2 0
BITMAP
0EC0
0CC0
1980
0000
C030
C030
C030
C030
C030
C030
C030
C030
C030
C030
C030
C030
C030
E070
7FE0
3FC0
ENDCHAR
STARTCHAR 0171
ENCODING 369
SWIDTH 540 0
DWIDTH 12 0
BBX 10 16 1 0
BITMAP
1B80
3300
3200
0000
C0C0
C0C0
C0C0
C0C0
C0C0
C0C0
C0C0
C0C0
C0C0
61C0
73C0
3EC0
ENDCHAR
STARTCHAR 0172
ENCODING 370
SWIDTH 720 0
DWIDTH 16 0
BBX 12 21 2 -5
BITMAP
C030
C030
C030
C030
C030
C030
C030
C030
C030
C030
C030
C030
C030
E070
7FE0
3FC0
0400
0400
0600
07C0
0300
ENDCHAR
STARTCHAR 0173
ENCODING 371
SWIDTH 540 0
DWIDTH 12 0
BBX 12 17 1 -5
BITMAP
C0C0
C0C0
C0C0
C0C0
C0C0
C0C0
C0C0
C0C0
C0C0
61C0
73C0
3EC0
0080
0080
0080
00F0
0060
ENDCHAR
STARTCHAR 0174
ENCODING 372
SWIDTH 945 0
DWIDTH 21 0
BBX 21 20 0 0
BITMAP
007000
00D800
01D800
000000
E07038
607030
605030
60D830
60D830
30D860
318C60
318C60
318C40
1904C0
1B06C0
1B06C0
0B0680
0A0380
0E0380
0E0300
ENDCHAR
STARTCHAR 0175
ENCODING 373
SWIDTH 720 0
DWIDTH 16 0
BBX 16 16 0 0
BITMAP
01C0
03C0
0660
0000
C183
C183
63C6
63C6
63C6
224C
366C
366C
1668
1C38
1C38
1C30
ENDCHAR
STARTCHAR 0176
ENCODING 374
SWIDTH 675 0
DWIDTH 15 0
BBX 14 20 0 0
BITMAP
0380
07C0
06E0
0000
E00C
701C
3018
3830
1870
0C60
0EC0
07C0
0380
0300
0300
0300
0300
0300
0300
0300
ENDCHAR
STARTCHAR 0177
ENCODING 375
SWIDTH 495 0
DWIDTH 11 0
BBX 11 21 0 -5
BITMAP
0600
0F00
1980
0000
C060
6060
60C0
70C0
3180
3180
1980
1B00
1B00
0F00
0E00
0600
0400
0C00
1C00
7800
3000
ENDCHAR
STARTCHAR 0178
ENCODING 376
SWIDTH 675 0
DWIDTH 15 0
BBX 14 19 0 0
BITMAP
0CC0
0CC0
0000
E00C
701C
3018
3830
1870
0C60
0EC0
07C0
0380
0300
0300
0300
0300
0300
0300
0300
ENDCHAR
STARTCHAR 0179
ENCODING 377
SWIDTH 630 0
DWIDTH 14 0
BBX 13 20 0 0
BITMAP
0380
0300
0600
0000
7FF8
7FF8
0030
0070
00E0
01C0
0380
0300
0600
0E00
1C00
3800
3000
6000
FFF8
FFF8
ENDCHAR
STARTCHAR 017A
ENCODING 378
SWIDTH 495 0
DWIDTH 11 0
BBX 11 16 0 0
BITMAP
0700
0600
0C00
0000
7FC0
7FC0
01C0
0380
0300
0600
0C00
1800
3800
7000
FFE0
FFE0
ENDCHAR
STARTCHAR 017B
ENCODING 379
SWIDTH 630 0
DWIDTH 14 0
BBX 13 19 0 0
BITMAP
0300
0300
0000
7FF8
7FF8
0030
0070
00E0
01C0
0380
0300
0600
0E00
1C00
3800
3000
6000
FFF8
FFF8
ENDCHAR
STARTCHAR 017C
ENCODING 380
SWIDTH 495 0
DWIDTH 11 0
BBX 11 15 0 0
BITMAP
0E00
0E00
0000
7FC0
7FC0
01C0
0380
0300
0600
0C00
1800
3800
7000
FFE0
FFE0
ENDCHAR
STARTCHAR 017D
ENCODING 381
SWIDTH 630 0
DWIDTH 14 0
BBX 13 20 0 0
BITMAP
0CC0
0F80
0700
0000
7FF8
7FF8
0030
0070
00E0
01C0
0380
0300
0600
0E00
1C00
3800
3000
6000
FFF8
FFF8
ENDCHAR
STARTCHAR 017E
ENCODING 382
SWIDTH 495 0
DWIDTH 11 0
BBX 11 16 0 0
BITMAP
1980
0F00
0E00
0000
7FC0
7FC0
01C0
0380
0300
0600
0C00
1800
3800
7000
FFE0
FFE0
ENDCHAR
STARTCHAR 017F
ENCODING 383
SWIDTH 225 0
DWIDTH 5 0
BBX 5 16 1 0
BITMAP
78
78
60
C0
C0
C0
C0
C0
C0
C0
C0
C0
C0
C0
C0
C0
ENDCHAR
STARTCHAR 018F
ENCODING 399
SWIDTH 765 0
DWIDTH 17 0
BBX 15 16 1 0
BITMAP
0FE0
1FF0
3838
701C
600C
000C
000E
FFFE
FFFE
C00E
C00C
600C
601C
3038
3EF0
0FE0
ENDCHAR
STARTCHAR 0192
ENCODING 402
SWIDTH 540 0
DWIDTH 12 0
BBX 11 21 1 -5
BITMAP
03E0
03C0
0600
0600
1F80
1F80
0600
0600
0C00
0C00
0C00
0C00
0C00
0800
1800
1800
1800
1800
1800
F000
E000
ENDCHAR
STARTCHAR 01A0
ENCODING 416
SWIDTH 855 0
DWIDTH 19 0
BBX 18 16 1 0
BITMAP
0FE1C0
1FF1C0
381880
700C80
600F80
E00600
C00600
C00600
C00600
C00600
E00600
600E00
700C00
381C00
1FF800
0FE000
ENDCHAR
STARTCHAR 01A1
ENCODING 417
SWIDTH 675 0
DWIDTH 15 0
BBX 13 12 1 0
BITMAP
1E18
3F98
61C8
C0C8
C0D0
C0E0
C060
C0C0
C0C0
E0C0
7380
3F00
ENDCHAR
STARTCHAR 01AF
ENCODING 431
SWIDTH 855 0
DWIDTH 19 0
BBX 16 16 2 0
BITMAP
C033
C033
C031
C031
C033
C03E
C030
C030
C030
C030
C030
C030
C030
E070
7FE0
3FC0
ENDCHAR
STARTCHAR 01B0
ENCODING 432
SWIDTH 675 0
DWIDTH 15 0
BBX 13 12 1 0
BITMAP
C0D8
C0D8
C0D8
C0C8
C0C8
C0D0
C0E0
C0C0
C0C0
61C0
73C0
3EC0
ENDCHAR
STARTCHAR 01CD
ENCODING 461
SWIDTH 675 0
DWIDTH 15 0
BBX 15 20 0 0
BITMAP
0CC0
06C0
0380
0000
0300
0380
0780
06C0
0CC0
0CE0
0C60
1860
1830
3FF0
3FF8
3018
6018
601C
600C
C00E
ENDCHAR
STARTCHAR 01CE
ENCODING 462
SWIDTH 540 0
DWIDTH 12 0
BBX 10 16 1 0
BITMAP
3B80
1B00
0E00
0000
1E00
7F80
61C0
C0C0
00C0
1FC0
7EC0
E0C0
C0C0
C1C0
E3C0
7EC0
ENDCHAR
STARTCHAR 01CF
ENCODING 463
SWIDTH 270 0
DWIDTH 6 0
BBX 6 20 0 0
BITMAP
CC
78
78
00
30
30
30
30
30
30
30
30
30
30
30
30
30
30
30
30
ENDCHAR
STARTCHAR 01D0
ENCODING 464
SWIDTH 225 0
DWIDTH 5 0
BBX 7 16 -1 0
BITMAP
EE
6C
38
00
30
30
30
30
30
30
30
30
30
30
30
30
ENDCHAR
STARTCHAR 01D1
ENCODING 465
SWIDTH 765 0
DWIDTH 17 0
BBX 15 20 1 0
BITMAP
0660
06C0
0380
0000
0FE0
1FF8
381C
700C
600E
E006
C006
C006
C006
C006
E006
600E
700C
381C
1FF8
0FE0
ENDCHAR
STARTCHAR 01D2
ENCODING 466
SWIDTH 540 0
DWIDTH 12 0
BBX 11 16 1 0
BITMAP
3300
1E00
0E00
0000
1E00
3F80
61C0
C0C0
C0C0
C0E0
C060
C0C0
C0C0
E0C0
7380
3F00
ENDCHAR
STARTCHAR 01D3
ENCODING 467
SWIDTH 720 0
DWIDTH 16 0
BBX 12 20 2 0
BITMAP
1980
0D80
0700
0000
C030
C030
C030
C030
C030
C030
C030
C030
C030
C030
C030
C030
C030
E070
7FE0
3FC0
ENDCHAR
STARTCHAR 01D4
ENCODING 468
SWIDTH 540 0
DWIDTH 12 0
BBX 10 16 1 0
BITMAP
3300
1A00
0E00
0000
C0C0
C0C0
C0C0
C0C0
C0C0
C0C0
C0C0
C0C0
C0C0
61C0
73C0
3EC0
ENDCHAR
STARTCHAR 01D5
ENCODING 469
SWIDTH 720 0
DWIDTH 16 0
BBX 12 20 2 0
BITMAP
1F80
0000
1980
1980
C030
C030
C030
C030
C030
C030
C030
C030
C030
C030
C030
C030
C030
E070
7FE0
3FC0
ENDCHAR
STARTCHAR 01D6
ENCODING 470
SWIDTH 540 0
DWIDTH 12 0
BBX 10 19 1 0
BITMAP
3F00
3F00
0000
3300
3300
0000
0000
C0C0
C0C0
C0C0
C0C0
C0C0
C0C0
C0C0
C0C0
C0C0
61C0
73C0
3EC0
ENDCHAR
STARTCHAR 01D7
ENCODING 471
SWIDTH 720 0
DWIDTH 16 0
BBX 12 20 2 0
BITMAP
0300
0600
1980
1980
C030
C030
C030
C030
C030
C030
C030
C030
C030
C030
C030
C030
C030
E070
7FE0
3FC0
ENDCHAR
STARTCHAR 01D8
ENCODING 472
SWIDTH 540 0
DWIDTH 12 0
BBX 10 20 1 0
BITMAP
0700
0600
0C00
0000
3300
3300
0000
0000
C0C0
C0C0
C0C0
C0C0
C0C0
C0C0
C0C0
C0C0
C0C0
61C0
73C0
3EC0
ENDCHAR
STARTCHAR 01D9
ENCODING 473
SWIDTH 720 0
DWIDTH 16 0
BBX 12 20 2 0
BITMAP
0D00
0600
1980
1980
C030
C030
C030
C030
C030
C030
C030
C030
C030
C030
C030
C030
C030
E070
7FE0
3FC0
ENDCHAR
STARTCHAR 01DA
ENCODING 474
SWIDTH 540 0
DWIDTH 12 0
BBX 10 20 1 0
BITMAP
3300
1A00
0E00
0000
3300
3300
0000
0000
C0C0
C0C0
C0C0
C0C0
C0C0
C0C0
C0C0
C0C0
C0C0
61C0
73C0
3EC0
ENDCHAR
STARTCHAR 01DB
ENCODING 475
SWIDTH 720 0
DWIDTH 16 0
BBX 12 20 2 0
BITMAP
0C00
0600
1980
1980
C030
C030
C030
C030
C030
C030
C030
C030
C030
C030
C030
C030
C030
E070
7FE0
3FC0
ENDCHAR
STARTCHAR 01DC
ENCODING 476
SWIDTH 540 0
DWIDTH 12 0
BBX 10 20 1 0
BITMAP
1800
1C00
0C00
0000
3300
3300
0000
0000
C0C0
C0C0
C0C0
C0C0
C0C0
C0C0
C0C0
C0C0
C0C0
61C0
73C0
3EC0
ENDCHAR
STARTCHAR 01FA
ENCODING 506
SWIDTH 675 0
DWIDTH 15 0
BBX 15 22 0 0
BITMAP
01C0
0180
0300
0380
0480
0480
0300
0380
0780
06C0
0CC0
0CE0
0C60
1860
1830
3FF0
3FF8
3018
6018
601C
600C
C00E
ENDCHAR
STARTCHAR 01FB
ENCODING 507
SWIDTH 540 0
DWIDTH 12 0
BBX 10 21 1 0
BITMAP
0300
0600
0400
0000
0000
1E00
1200
1200
0C00
1E00
7F80
61C0
C0C0
00C0
1FC0
7EC0
E0C0
C0C0
C1C0
E3C0
7EC0
ENDCHAR
STARTCHAR 01FC
ENCODING 508
SWIDTH 990 0
DWIDTH 22 0
BBX 21 20 0 0
BITMAP
001800
003000
003000
000000
01FFF8
01FFF8
019800
031800
031800
061800
061800
0C1FF0
0C1FF0
181800
1FF800
301800
301800
601800
601FF8
E01FF8
ENDCHAR
STARTCHAR 01FD
ENCODING 509
SWIDTH 900 0
DWIDTH 20 0
BBX 18 16 1 0
BITMAP
007000
006000
00C000
000000
1E1E00
7FFF00
61E180
C0C180
00C0C0
1FFFC0
7EFFC0
E0C000
C1C0C0
C1C180
E77380
7E3F00
ENDCHAR
STARTCHAR 01FE
ENCODING 510
SWIDTH 765 0
DWIDTH 17 0
BBX 15 20 1 -1
BITMAP
00C0
0180
0100
0000
0FE6
1FF6
381C
701C
603E
E066
C0C6
C186
C306
C606
C406
6C0E
780C
381C
7FF8
CFE0
ENDCHAR
STARTCHAR 01FF
ENCODING 511
SWIDTH 630 0
DWIDTH 14 0
BBX 11 17 1 -1
BITMAP
0300
0700
0600
0000
0F60
3FC0
70C0
61E0
6360
C260
C460
EC60
7860
70E0
39C0
7F80
4000
ENDCHAR
STARTCHAR 0218
ENCODING 536
SWIDTH 675 0
DWIDTH 15 0
BBX 13 22 1 -6
BITMAP
1FC0
3FE0
6070
6030
6030
6000
7C00
1FC0
07E0
0070
0038
C018
E038
6030
7FE0
1FC0
0000
0000
0700
0300
0200
0600
ENDCHAR
STARTCHAR 0219
ENCODING 537
SWIDTH 495 0
DWIDTH 11 0
BBX 9 18 1 -6
BITMAP
3C00
7F00
C380
C100
E000
7C00
3F00
0380
C180
C180
E380
7F00
0000
0000
1C00
0C00
0800
1800
ENDCHAR
STARTCHAR 021A
ENCODING 538
SWIDTH 630 0
DWIDTH 14 0
BBX 12 22 1 -6
BITMAP
FFF0
FFF0
0600
0600
0600
0600
0600
0600
0600
0600
0600
0600
0600
0600
0600
0600
0000
0600
0600
0600
0200
0400
ENDCHAR
STARTCHAR 021B
ENCODING 539
SWIDTH 270 0
DWIDTH 6 0
BBX 6 21 0 -5
BITMAP
30
30
30
FC
FC
30
30
30
30
30
30
30
30
3C
3C
00
18
18
08
08
10
ENDCHAR
STARTCHAR 0259
ENCODING 601
SWIDTH 540 0
DWIDTH 12 0
BBX 11 12 1 0
BITMAP
1E00
7F80
61C0
C0C0
00C0
00E0
FFE0
C0C0
C0C0
60C0
7380
3F00
ENDCHAR
STARTCHAR 02C6
ENCODING 710
SWIDTH 315 0
DWIDTH 7 0
BBX 6 3 1 13
BITMAP
70
F8
CC
ENDCHAR
STARTCHAR 02C7
ENCODING 711
SWIDTH 315 0
DWIDTH 7 0
BBX 6 3 1 13
BITMAP
CC
78
70
ENDCHAR
STARTCHAR 02C9
ENCODING 713
SWIDTH 315 0
DWIDTH 7 0
BBX 7 2 0 13
BITMAP
FE
FE
ENDCHAR
STARTCHAR 02D8
ENCODING 728
SWIDTH 315 0
DWIDTH 7 0
BBX 6 3 1 13
BITMAP
8C
D8
70
ENDCHAR
STARTCHAR 02D9
ENCODING 729
SWIDTH 315 0
DWIDTH 7 0
BBX 3 2 2 13
BITMAP
E0
E0
ENDCHAR
STARTCHAR 02DA
ENCODING 730
SWIDTH 315 0
DWIDTH 7 0
BBX 4 4 2 12
BITMAP
E0
90
A0
40
ENDCHAR
STARTCHAR 02DB
ENCODING 731
SWIDTH 315 0
DWIDTH 7 0
BBX 5 5 2 -5
BITMAP
80
80
C0
F8
60
ENDCHAR
STARTCHAR 02DC
ENCODING 732
SWIDTH 315 0
DWIDTH 7 0
BBX 7 3 0 13
BITMAP
62
FE
CC
ENDCHAR
STARTCHAR 02DD
ENCODING 733
SWIDTH 315 0
DWIDTH 7 0
BBX 7 3 1 13
BITMAP
66
CC
C8
ENDCHAR
STARTCHAR 0300
ENCODING 768
SWIDTH 0 0
DWIDTH 0 0
BBX 4 3 -6 17
BITMAP
E0
60
30
ENDCHAR
STARTCHAR 0301
ENCODING 769
SWIDTH 0 0
DWIDTH 0 0
BBX 4 3 -4 17
BITMAP
70
60
C0
ENDCHAR
STARTCHAR 0303
ENCODING 771
SWIDTH 0 0
DWIDTH 0 0
BBX 7 2 -10 17
BITMAP
7A
DE
ENDCHAR
STARTCHAR 0309
ENCODING 777
SWIDTH 0 0
DWIDTH 0 0
BBX 5 4 -5 16
BITMAP
F0
18
70
60
ENDCHAR
STARTCHAR 0323
ENCODING 803
SWIDTH 0 0
DWIDTH 0 0
BBX 2 3 -8 -4
BITMAP
C0
C0
C0
ENDCHAR
STARTCHAR 037E
ENCODING 894
SWIDTH 270 0
DWIDTH 6 0
BBX 2 15 2 -3
BITMAP
C0
C0
C0
00
00
00
00
00
00
00
C0
C0
40
40
80
ENDCHAR
STARTCHAR 0384
ENCODING 900
SWIDTH 315 0
DWIDTH 7 0
BBX 3 3 3 13
BITMAP
60
C0
80
ENDCHAR
STARTCHAR 0385
ENCODING 901
SWIDTH 315 0
DWIDTH 7 0
BBX 8 3 0 13
BITMAP
18
D3
F3
ENDCHAR
STARTCHAR 0386
ENCODING 902
SWIDTH 675 0
DWIDTH 15 0
BBX 15 16 0 0
BITMAP
3380
6380
6780
06C0
0CC0
0CE0
0C60
1860
1830
3FF0
3FF8
3018
6018
600C
600C
C00E
ENDCHAR
STARTCHAR 0387
ENCODING 903
SWIDTH 270 0
DWIDTH 6 0
BBX 2 3 2 9
BITMAP
C0
C0
C0
ENDCHAR
STARTCHAR 0388
ENCODING 904
SWIDTH 765 0
DWIDTH 17 0
BBX 17 16 -1 0
BITMAP
77FF80
67FF80
C60000
060000
060000
060000
060000
07FF00
07FF00
060000
060000
060000
060000
060000
07FF80
07FF80
ENDCHAR
STARTCHAR 0389
ENCODING 905
SWIDTH 855 0
DWIDTH 19 0
BBX 17 16 -1 0
BITMAP
760180
660180
C60180
060180
060180
060180
060180
07FF80
07FF80
060180
060180
060180
060180
060180
060180
060180
ENDCHAR
STARTCHAR 038A
ENCODING 906
SWIDTH 405 0
DWIDTH 9 0
BBX 7 16 -1 0
BITMAP
76
66
C6
06
06
06
06
06
06
06
06
06
06
06
06
06
ENDCHAR
STARTCHAR 038C
ENCODING 908
SWIDTH 765 0
DWIDTH 17 0
BBX 17 16 -1 0
BITMAP
73F800
67FC00
CE0600
180300
180380
300180
300180
300180
300180
300180
300180
180380
180300
0C0600
07FE00
03F800
ENDCHAR
STARTCHAR 038E
ENCODING 910
SWIDTH 855 0
DWIDTH 19 0
BBX 19 16 -1 0
BITMAP
770060
6380E0
C180C0
01C180
00E380
006300
007600
003E00
001C00
001800
001800
001800
001800
001800
001800
001800
ENDCHAR
STARTCHAR 038F
ENCODING 911
SWIDTH 765 0
DWIDTH 17 0
BBX 17 16 -1 0
BITMAP
73F800
67FC00
CE0E00
1C0700
180300
180300
380300
380300
380300
180300
180300
180200
0C0600
060C00
3F3F80
3F3F80
ENDCHAR
STARTCHAR 0390
ENCODING 912
SWIDTH 225 0
DWIDTH 5 0
BBX 7 16 -1 0
BITMAP
18
92
A2
00
30
30
30
30
30
30
30
30
30
30
30
30
ENDCHAR
STARTCHAR 0391
ENCODING 913
SWIDTH 675 0
DWIDTH 15 0
BBX 15 16 0 0
BITMAP
0300
0380
0780
06C0
0CC0
0CE0
0C60
1860
1830
3FF0
3FF8
3018
6018
601C
600C
C00E
ENDCHAR
STARTCHAR 0392
ENCODING 914
SWIDTH 675 0
DWIDTH 15 0
BBX 12 16 2 0
BITMAP
FF00
FFC0
C0C0
C060
C060
C060
C1C0
FF80
FFC0
C060
C070
C070
C070
C060
FFC0
FF80
ENDCHAR
STARTCHAR 0393
ENCODING 915
SWIDTH 540 0
DWIDTH 12 0
BBX 10 16 2 0
BITMAP
FFC0
FFC0
C000
C000
C000
C000
C000
C000
C000
C000
C000
C000
C000
C000
C000
C000
ENDCHAR
STARTCHAR 0394
ENCODING 916
SWIDTH 675 0
DWIDTH 15 0
BBX 15 16 0 0
BITMAP
0380
0380
0780
06C0
0CC0
0CE0
0C60
1860
1830
3830
3038
3018
6018
601C
7FFC
FFFE
ENDCHAR
STARTCHAR 0395
ENCODING 917
SWIDTH 675 0
DWIDTH 15 0
BBX 12 16 2 0
BITMAP
FFE0
FFE0
C000
C000
C000
C000
C000
FFE0
FFE0
C000
C000
C000
C000
C000
FFF0
FFF0
ENDCHAR
STARTCHAR 0396
ENCODING 918
SWIDTH 630 0
DWIDTH 14 0
BBX 13 16 0 0
BITMAP
7FF8
7FF8
0030
0070
00E0
01C0
0380
0300
0600
0E00
1C00
3800
3000
6000
FFF8
FFF8
ENDCHAR
STARTCHAR 0397
ENCODING 919
SWIDTH 720 0
DWIDTH 16 0
BBX 12 16 2 0
BITMAP
C030
C030
C030
C030
C030
C030
C030
FFF0
FFF0
C030
C030
C030
C030
C030
C030
C030
ENDCHAR
STARTCHAR 0398
ENCODING 920
SWIDTH 765 0
DWIDTH 17 0
BBX 15 16 1 0
BITMAP
0FE0
1FF8
3818
700C
600E
E006
C006
CFE6
CFE6
C006
C006
600E
600C
301C
1FF8
0FE0
ENDCHAR
STARTCHAR 0399
ENCODING 921
SWIDTH 270 0
DWIDTH 6 0
BBX 2 16 2 0
BITMAP
C0
C0
C0
C0
C0
C0
C0
C0
C0
C0
C0
C0
C0
C0
C0
C0
ENDCHAR
STARTCHAR 039A
ENCODING 922
SWIDTH 675 0
DWIDTH 15 0
BBX 12 16 2 0
BITMAP
C070
C0E0
C1C0
C380
C700
CE00
DC00
FC00
F600
E700
C380
C180
C0C0
C0E0
C070
C030
ENDCHAR
STARTCHAR 039B
ENCODING 923
SWIDTH 675 0
DWIDTH 15 0
BBX 14 16 0 0
BITMAP
0380
0380
0680
06C0
06C0
0C60
0C60
1860
1830
1830
3038
3018
7018
601C
600C
C00C
ENDCHAR
STARTCHAR 039C
ENCODING 924
SWIDTH 855 0
DWIDTH 19 0
BBX 15 16 2 0
BITMAP
E00E
E00E
F01E
F01E
F036
D836
D826
D866
CC66
CC46
CCC6
C6C6
C686
C786
C386
C306
ENDCHAR
STARTCHAR 039D
ENCODING 925
SWIDTH 720 0
DWIDTH 16 0
BBX 12 16 2 0
BITMAP
C030
E030
E030
F030
F830
D830
CC30
CE30
C630
C330
C3B0
C1B0
C0F0
C0F0
C070
C030
ENDCHAR
STARTCHAR 039E
ENCODING 926
SWIDTH 630 0
DWIDTH 14 0
BBX 12 16 1 0
BITMAP
FFF0
FFF0
0000
0000
0000
0000
0000
7FE0
7FE0
0000
0000
0000
0000
0000
FFF0
FFF0
ENDCHAR
STARTCHAR 039F
ENCODING 927
SWIDTH 765 0
DWIDTH 17 0
BBX 15 16 1 0
BITMAP
0FE0
1FF8
381C
700C
600E
E006
C006
C006
C006
C006
E006
600E
700C
381C
1FF8
0FE0
ENDCHAR
STARTCHAR 03A0
ENCODING 928
SWIDTH 720 0
DWIDTH 16 0
BBX 12 16 2 0
BITMAP
FFF0
FFF0
C030
C030
C030
C030
C030
C030
C030
C030
C030
C030
C030
C030
C030
C030
ENDCHAR
STARTCHAR 03A1
ENCODING 929
SWIDTH 675 0
DWIDTH 15 0
BBX 12 16 2 0
BITMAP
FF80
FFE0
C060
C070
C030
C030
C070
C0E0
FFC0
FE00
C000
C000
C000
C000
C000
C000
ENDCHAR
STARTCHAR 03A3
ENCODING 931
SWIDTH 630 0
DWIDTH 14 0
BBX 11 16 2 0
BITMAP
FFC0
FFC0
C000
6000
3000
1800
0C00
0600
0E00
1C00
3800
3000
6000
C000
FFE0
FFE0
ENDCHAR
STARTCHAR 03A4
ENCODING 932
SWIDTH 630 0
DWIDTH 14 0
BBX 12 16 1 0
BITMAP
FFF0
FFF0
0600
0600
0600
0600
0600
0600
0600
0600
0600
0600
0600
0600
0600
0600
ENDCHAR
STARTCHAR 03A5
ENCODING 933
SWIDTH 675 0
DWIDTH 15 0
BBX 14 16 0 0
BITMAP
E00C
701C
3018
3830
1870
0C60
0EC0
07C0
0380
0300
0300
0300
0300
0300
0300
0300
ENDCHAR
STARTCHAR 03A6
ENCODING 934
SWIDTH 810 0
DWIDTH 18 0
BBX 16 17 1 -1
BITMAP
0180
0180
1FF8
3DBC
618E
E186
C187
C183
C183
C187
E186
718E
3FFC
1FF0
0180
0180
0180
ENDCHAR
STARTCHAR 03A7
ENCODING 935
SWIDTH 675 0
DWIDTH 15 0
BBX 14 16 0 0
BITMAP
700C
3018
1830
1C70
0C60
06C0
0780
0380
0380
06C0
0EE0
1C60
1830
3038
701C
E00C
ENDCHAR
STARTCHAR 03A8
ENCODING 936
SWIDTH 855 0
DWIDTH 19 0
BBX 16 16 1 0
BITMAP
C183
C183
C183
C183
C183
E183
6183
6187
718E
3FFC
0FF8
0180
0180
0180
0180
0180
ENDCHAR
STARTCHAR 03A9
ENCODING 937
SWIDTH 765 0
DWIDTH 17 0
BBX 15 16 1 0
BITMAP
0FE0
1FF0
3838
701C
600C
E00C
C00C
C00C
C00C
E00C
600C
6018
3018
1830
FCFE
FCFE
ENDCHAR
STARTCHAR 03AA
ENCODING 938
SWIDTH 270 0
DWIDTH 6 0
BBX 6 19 0 0
BITMAP
CC
CC
00
30
30
30
30
30
30
30
30
30
30
30
30
30
30
30
30
ENDCHAR
STARTCHAR 03AB
ENCODING 939
SWIDTH 675 0
DWIDTH 15 0
BBX 14 19 0 0
BITMAP
0CC0
0CC0
0000
E00C
701C
3018
3830
1870
0C60
0EC0
07C0
0380
0300
0300
0300
0300
0300
0300
0300
ENDCHAR
STARTCHAR 03AC
ENCODING 940
SWIDTH 585 0
DWIDTH 13 0
BBX 11 16 1 0
BITMAP
0700
0600
0C00
0000
1C60
7F60
61C0
C1C0
C0C0
C0C0
C0C0
C0C0
C0C0
E1C0
7360
3E60
ENDCHAR
STARTCHAR 03AD
ENCODING 941
SWIDTH 450 0
DWIDTH 10 0
BBX 8 16 1 0
BITMAP
0E
0C
18
00
3C
7F
62
C0
60
78
78
E0
C0
C0
E7
7E
ENDCHAR
STARTCHAR 03AE
ENCODING 942
SWIDTH 540 0
DWIDTH 12 0
BBX 9 20 2 -4
BITMAP
0E00
0C00
1800
0000
9E00
BF00
E380
C180
C180
8180
8180
8180
8180
8180
8180
8180
0180
0180
0180
0180
ENDCHAR
STARTCHAR 03AF
ENCODING 943
SWIDTH 225 0
DWIDTH 5 0
BBX 4 16 1 0
BITMAP
70
60
C0
00
C0
C0
C0
C0
C0
C0
C0
C0
C0
C0
C0
C0
ENDCHAR
STARTCHAR 03B0
ENCODING 944
SWIDTH 540 0
DWIDTH 12 0
BBX 10 16 1 0
BITMAP
0600
6D80
6980
0000
C0C0
C0C0
C0C0
C0C0
C0C0
C0C0
C0C0
C0C0
60C0
6180
7380
3F00
ENDCHAR
STARTCHAR 03B1
ENCODING 945
SWIDTH 585 0
DWIDTH 13 0
BBX 11 12 1 0
BITMAP
1C60
7F60
61C0
C1C0
C0C0
C0C0
C0C0
C0C0
C0C0
E1C0
7360
3E60
ENDCHAR
STARTCHAR 03B2
ENCODING 946
SWIDTH 585 0
DWIDTH 13 0
BBX 10 20 2 -4
BITMAP
3E00
F700
C180
C180
8180
8100
8700
9E00
8380
8180
80C0
C0C0
C0C0
C180
E380
BF00
8000
8000
8000
8000
ENDCHAR
STARTCHAR 03B3
ENCODING 947
SWIDTH 495 0
DWIDTH 11 0
BBX 11 16 0 -4
BITMAP
C060
60C0
60C0
60C0
3180
3180
3180
1B00
1B00
0E00
0E00
0E00
0600
0600
0600
0600
ENDCHAR
STARTCHAR 03B4
ENCODING 948
SWIDTH 540 0
DWIDTH 12 0
BBX 11 16 1 0
BITMAP
7FC0
7FC0
3000
1C00
0E00
3F00
7180
E0C0
C0C0
C060
C060
C060
C0C0
E0C0
7380
3F00
ENDCHAR
STARTCHAR 03B5
ENCODING 949
SWIDTH 450 0
DWIDTH 10 0
BBX 8 12 1 0
BITMAP
3C
7F
62
C0
60
78
78
E0
C0
C0
E7
7E
ENDCHAR
STARTCHAR 03B6
ENCODING 950
SWIDTH 450 0
DWIDTH 10 0
BBX 9 21 1 -5
BITMAP
3F80
3F00
0600
0C00
1800
3000
6000
6000
C000
C000
C000
C000
C000
C000
7C00
3F00
0300
0100
0300
0600
0C00
ENDCHAR
STARTCHAR 03B7
ENCODING 951
SWIDTH 540 0
DWIDTH 12 0
BBX 9 16 2 -4
BITMAP
9E00
BF00
E380
C180
C180
8180
8180
8180
8180
8180
8180
8180
0180
0180
0180
0180
ENDCHAR
STARTCHAR 03B8
ENCODING 952
SWIDTH 540 0
DWIDTH 12 0
BBX 10 16 1 0
BITMAP
1F00
3B80
6180
60C0
C0C0
C0C0
C0C0
FFC0
FFC0
C0C0
C0C0
C0C0
60C0
6180
7380
3F00
ENDCHAR
STARTCHAR 03B9
ENCODING 953
SWIDTH 225 0
DWIDTH 5 0
BBX 2 12 1 0
BITMAP
C0
C0
C0
C0
C0
C0
C0
C0
C0
C0
C0
C0
ENDCHAR
STARTCHAR 03BA
ENCODING 954
SWIDTH 495 0
DWIDTH 11 0
BBX 10 12 1 0
BITMAP
C1C0
C380
C600
CC00
D800
F800
FC00
CC00
C600
C300
C380
C1C0
ENDCHAR
STARTCHAR 03BB
ENCODING 955
SWIDTH 495 0
DWIDTH 11 0
BBX 11 16 0 0
BITMAP
1800
1800
0C00
0C00
0E00
0E00
0E00
1B00
1B00
1B00
3180
3180
31C0
60C0
60C0
C060
ENDCHAR
STARTCHAR 03BC
ENCODING 956
SWIDTH 585 0
DWIDTH 13 0
BBX 9 16 2 -4
BITMAP
C180
C180
C180
C180
C180
C180
C180
C180
C180
C380
F780
FF80
C000
C000
C000
C000
ENDCHAR
STARTCHAR 03BD
ENCODING 957
SWIDTH 495 0
DWIDTH 11 0
BBX 11 12 0 0
BITMAP
C060
60C0
60C0
60C0
3180
3180
1180
1B00
1B00
0A00
0E00
0E00
ENDCHAR
STARTCHAR 03BE
ENCODING 958
SWIDTH 450 0
DWIDTH 10 0
BBX 9 21 1 -5
BITMAP
3E00
7800
6000
4000
6000
7E00
1E00
3000
6000
C000
C000
C000
C000
E000
7C00
1F00
0300
0180
0300
0F00
0C00
ENDCHAR
STARTCHAR 03BF
ENCODING 959
SWIDTH 540 0
DWIDTH 12 0
BBX 11 12 1 0
BITMAP
1E00
3F80
61C0
C0C0
C0C0
C0E0
C060
C0C0
C0C0
E0C0
7380
3F00
ENDCHAR
STARTCHAR 03C0
ENCODING 960
SWIDTH 675 0
DWIDTH 15 0
BBX 15 12 0 0
BITMAP
FFFE
FFFE
0830
0830
0830
0830
0830
0830
0830
0830
0830
0830
ENDCHAR
STARTCHAR 03C1
ENCODING 961
SWIDTH 585 0
DWIDTH 13 0
BBX 11 16 1 -4
BITMAP
0E00
3F80
71C0
60C0
6060
C060
C060
C060
E060
E0C0
F9C0
DF00
C000
C000
C000
C000
ENDCHAR
STARTCHAR 03C2
ENCODING 962
SWIDTH 495 0
DWIDTH 11 0
BBX 9 17 1 -5
BITMAP
0780
1F80
7000
6000
C000
C000
C000
C000
C000
7000
3E00
1F00
0180
0180
0380
1F00
1C00
ENDCHAR
STARTCHAR 03C3
ENCODING 963
SWIDTH 630 0
DWIDTH 14 0
BBX 12 12 1 0
BITMAP
1FF0
3FF0
6180
C0C0
C0C0
C060
C060
C0C0
C0C0
E0C0
7380
3F00
ENDCHAR
STARTCHAR 03C4
ENCODING 964
SWIDTH 405 0
DWIDTH 9 0
BBX 8 12 0 0
BITMAP
FF
FF
08
08
08
08
08
08
08
08
08
08
ENDCHAR
STARTCHAR 03C5
ENCODING 965
SWIDTH 540 0
DWIDTH 12 0
BBX 10 12 1 0
BITMAP
C0C0
C0C0
C0C0
C0C0
C0C0
C0C0
C0C0
C0C0
60C0
6180
7380
3F00
ENDCHAR
STARTCHAR 03C6
ENCODING 966
SWIDTH 630 0
DWIDTH 14 0
BBX 13 16 1 -4
BITMAP
13C0
73E0
6630
C630
C618
C618
C618
C630
C630
6660
3FE0
1F80
0600
0600
0600
0600
ENDCHAR
STARTCHAR 03C7
ENCODING 967
SWIDTH 540 0
DWIDTH 12 0
BBX 10 16 1 -4
BITMAP
C0C0
C0C0
6180
6180
3300
3300
1E00
1C00
0C00
1E00
3600
3300
6300
6180
C180
C0C0
ENDCHAR
STARTCHAR 03C8
ENCODING 968
SWIDTH 720 0
DWIDTH 16 0
BBX 14 16 1 -4
BITMAP
C30C
C30C
C30C
C30C
C30C
C30C
C308
C318
C318
6318
7B70
1FE0
0300
0300
0300
0300
ENDCHAR
STARTCHAR 03C9
ENCODING 969
SWIDTH 765 0
DWIDTH 17 0
BBX 15 12 1 0
BITMAP
300C
600C
6006
C186
C186
C186
C186
C186
C186
E386
76CC
3C78
ENDCHAR
STARTCHAR 03CA
ENCODING 970
SWIDTH 225 0
DWIDTH 5 0
BBX 7 16 -1 0
BITMAP
E6
E6
00
00
30
30
30
30
30
30
30
30
30
30
30
30
ENDCHAR
STARTCHAR 03CB
ENCODING 971
SWIDTH 540 0
DWIDTH 12 0
BBX 10 16 1 0
BITMAP
3300
3300
0000
0000
C0C0
C0C0
C0C0
C0C0
C0C0
C0C0
C0C0
C0C0
60C0
6180
7380
3F00
ENDCHAR
STARTCHAR 03CC
ENCODING 972
SWIDTH 540 0
DWIDTH 12 0
BBX 11 16 1 0
BITMAP
0700
0600
0C00
0000
1E00
3F80
61C0
C0C0
C0C0
C0E0
C060
C0C0
C0C0
E0C0
7380
3F00
ENDCHAR
STARTCHAR 03CD
ENCODING 973
SWIDTH 540 0
DWIDTH 12 0
BBX 10 16 1 0
BITMAP
0600
0600
0C00
0000
C0C0
C0C0
C0C0
C0C0
C0C0
C0C0
C0C0
C0C0
60C0
6180
7380
3F00
ENDCHAR
STARTCHAR 03CE
ENCODING 974
SWIDTH 765 0
DWIDTH 17 0
BBX 15 16 1 0
BITMAP
00C0
0180
0180
0000
300C
600C
6006
C186
C186
C186
C186
C186
C186
E386
76CC
3C78
ENDCHAR
STARTCHAR 0401
ENCODING 1025
SWIDTH 675 0
DWIDTH 15 0
BBX 12 19 2 0
BITMAP
3380
3380
0000
FFE0
FFE0
C000
C000
C000
C000
C000
FFE0
FFE0
C000
C000
C000
C000
C000
FFF0
FFF0
ENDCHAR
STARTCHAR 0402
ENCODING 1026
SWIDTH 855 0
DWIDTH 19 0
BBX 17 16 1 0
BITMAP
FFF000
FFF000
060000
060000
060000
060000
06FE00
07FF00
060380
060180
060180
060180
060180
060380
062F00
063E00
ENDCHAR
STARTCHAR 0403
ENCODING 1027
SWIDTH 540 0
DWIDTH 12 0
BBX 10 20 2 0
BITMAP
0E00
0C00
1800
0000
FFC0
FFC0
C000
C000
C000
C000
C000
C000
C000
C000
C000
C000
C000
C000
C000
C000
ENDCHAR
STARTCHAR 0404
ENCODING 1028
SWIDTH 720 0
DWIDTH 16 0
BBX 14 16 1 0
BITMAP
0FE0
1FF0
3838
701C
600C
E000
C000
FF00
FF00
C000
E000
600C
601C
3038
3EF0
0FE0
ENDCHAR
STARTCHAR 0405
ENCODING 1029
SWIDTH 675 0
DWIDTH 15 0
BBX 13 16 1 0
BITMAP
1FC0
3FE0
6070
6030
6030
6000
7C00
1FC0
07E0
0070
0038
C018
E038
6030
7FE0
1FC0
ENDCHAR
STARTCHAR 0406
ENCODING 1030
SWIDTH 270 0
DWIDTH 6 0
BBX 2 16 2 0
BITMAP
C0
C0
C0
C0
C0
C0
C0
C0
C0
C0
C0
C0
C0
C0
C0
C0
ENDCHAR
STARTCHAR 0407
ENCODING 1031
SWIDTH 270 0
DWIDTH 6 0
BBX 6 19 0 0
BITMAP
CC
CC
00
30
30
30
30
30
30
30
30
30
30
30
30
30
30
30
30
ENDCHAR
STARTCHAR 0408
ENCODING 1032
SWIDTH 495 0
DWIDTH 11 0
BBX 8 16 1 0
BITMAP
03
03
03
03
03
03
03
03
03
03
03
C3
C3
C3
FF
7E
ENDCHAR
STARTCHAR 0409
ENCODING 1033
SWIDTH 1035 0
DWIDTH 23 0
BBX 23 16 0 0
BITMAP
1FF800
1FF800
181800
181800
181800
181800
181800
181FF0
181FFC
18180C
18180E
18180E
18180E
18180C
F01FFC
F01FF0
ENDCHAR
STARTCHAR 040A
ENCODING 1034
SWIDTH 990 0
DWIDTH 22 0
BBX 20 16 2 0
BITMAP
C0C000
C0C000
C0C000
C0C000
C0C000
C0C000
C0C000
FFFF80
FFFFE0
C0C060
C0C070
C0C070
C0C060
C0C060
C0FFC0
C0FF80
ENDCHAR
STARTCHAR 040B
ENCODING 1035
SWIDTH 855 0
DWIDTH 19 0
BBX 17 16 1 0
BITMAP
FFF000
FFF000
060000
060000
060000
060000
06FE00
07FF00
060300
060180
060180
060180
060180
060180
060180
060180
ENDCHAR
STARTCHAR 040C
ENCODING 1036
SWIDTH 585 0
DWIDTH 13 0
BBX 11 20 2 0
BITMAP
0600
0E00
0C00
0000
C0E0
C1E0
C300
C300
C600
C600
CC00
F800
FC00
CE00
C600
C700
C380
C180
C1C0
C0E0
ENDCHAR
STARTCHAR 040D
ENCODING 1037
SWIDTH 720 0
DWIDTH 16 0
BBX 12 20 2 0
BITMAP
1C00
0C00
0600
0000
C030
C070
C070
C0F0
C1F0
C3B0
C330
C730
CE30
CC30
DC30
F830
F030
F030
E030
C030
ENDCHAR
STARTCHAR 040E
ENCODING 1038
SWIDTH 630 0
DWIDTH 14 0
BBX 14 20 0 0
BITMAP
0C60
0440
07C0
0000
C00C
6018
7018
3030
1830
1860
0C60
0C40
06C0
06C0
0380
0380
0300
0300
3E00
3C00
ENDCHAR
STARTCHAR 040F
ENCODING 1039
SWIDTH 720 0
DWIDTH 16 0
BBX 12 20 2 -4
BITMAP
C030
C030
C030
C030
C030
C030
C030
C030
C030
C030
C030
C030
C030
C030
FFF0
FFF0
0600
0600
0600
0600
ENDCHAR
STARTCHAR 0410
ENCODING 1040
SWIDTH 675 0
DWIDTH 15 0
BBX 15 16 0 0
BITMAP
0300
0380
0780
06C0
0CC0
0CE0
0C60
1860
1830
3FF0
3FF8
3018
6018
601C
600C
C00E
ENDCHAR
STARTCHAR 0411
ENCODING 1041
SWIDTH 675 0
DWIDTH 15 0
BBX 12 16 2 0
BITMAP
FFC0
FFC0
C000
C000
C000
C000
C000
FFC0
FFE0
C060
C070
C030
C070
C060
FFE0
FF80
ENDCHAR
STARTCHAR 0412
ENCODING 1042
SWIDTH 675 0
DWIDTH 15 0
BBX 12 16 2 0
BITMAP
FF00
FFC0
C0C0
C060
C060
C060
C1C0
FF80
FFC0
C060
C070
C070
C070
C060
FFC0
FF80
ENDCHAR
STARTCHAR 0413
ENCODING 1043
SWIDTH 540 0
DWIDTH 12 0
BBX 10 16 2 0
BITMAP
FFC0
FFC0
C000
C000
C000
C000
C000
C000
C000
C000
C000
C000
C000
C000
C000
C000
ENDCHAR
STARTCHAR 0414
ENCODING 1044
SWIDTH 675 0
DWIDTH 15 0
BBX 14 20 0 -4
BITMAP
1FF8
1FF8
1818
1818
1818
1818
1818
1818
1818
1818
1818
3018
3018
3018
FFFC
FFFC
C00C
C00C
C00C
C00C
ENDCHAR
STARTCHAR 0415
ENCODING 1045
SWIDTH 675 0
DWIDTH 15 0
BBX 12 16 2 0
BITMAP
FFE0
FFE0
C000
C000
C000
C000
C000
FFE0
FFE0
C000
C000
C000
C000
C000
FFF0
FFF0
ENDCHAR
STARTCHAR 0416
ENCODING 1046
SWIDTH 945 0
DWIDTH 21 0
BBX 20 16 0 0
BITMAP
E06070
F060F0
1860C0
186180
0C6180
0C6300
066700
03FE00
07FE00
0E6300
1C6380
1861C0
3860C0
3060E0
706060
E06030
ENDCHAR
STARTCHAR 0417
ENCODING 1047
SWIDTH 585 0
DWIDTH 13 0
BBX 12 16 1 0
BITMAP
1F80
7FC0
60C0
E060
C060
00E0
01C0
0F80
0FC0
00E0
0060
C070
C060
60E0
7FC0
1F80
ENDCHAR
STARTCHAR 0418
ENCODING 1048
SWIDTH 720 0
DWIDTH 16 0
BBX 12 16 2 0
BITMAP
C030
C070
C070
C0F0
C1F0
C3B0
C330
C730
CE30
CC30
DC30
F830
F030
F030
E030
C030
ENDCHAR
STARTCHAR 0419
ENCODING 1049
SWIDTH 720 0
DWIDTH 16 0
BBX 12 20 2 0
BITMAP
1080
1980
0F00
0000
C030
C070
C070
C0F0
C1F0
C3B0
C330
C730
CE30
CC30
DC30
F830
F030
F030
E030
C030
ENDCHAR
STARTCHAR 041A
ENCODING 1050
SWIDTH 585 0
DWIDTH 13 0
BBX 11 16 2 0
BITMAP
C0E0
C1E0
C300
C300
C600
C600
CC00
F800
FC00
CE00
C600
C700
C380
C180
C1C0
C0E0
ENDCHAR
STARTCHAR 041B
ENCODING 1051
SWIDTH 675 0
DWIDTH 15 0
BBX 13 16 0 0
BITMAP
1FF8
1FF8
1818
1818
1818
1818
1818
1818
1818
1818
1818
1818
1818
1818
F818
F018
ENDCHAR
STARTCHAR 041C
ENCODING 1052
SWIDTH 855 0
DWIDTH 19 0
BBX 15 16 2 0
BITMAP
E00E
E00E
F01E
F01E
F036
D836
D826
D866
CC66
CC46
CCC6
C6C6
C686
C786
C386
C306
ENDCHAR
STARTCHAR 041D
ENCODING 1053
SWIDTH 720 0
DWIDTH 16 0
BBX 12 16 2 0
BITMAP
C030
C030
C030
C030
C030
C030
C030
FFF0
FFF0
C030
C030
C030
C030
C030
C030
C030
ENDCHAR
STARTCHAR 041E
ENCODING 1054
SWIDTH 765 0
DWIDTH 17 0
BBX 15 16 1 0
BITMAP
0FE0
1FF8
381C
700C
600E
E006
C006
C006
C006
C006
E006
600E
700C
381C
1FF8
0FE0
ENDCHAR
STARTCHAR 041F
ENCODING 1055
SWIDTH 720 0
DWIDTH 16 0
BBX 12 16 2 0
BITMAP
FFF0
FFF0
C030
C030
C030
C030
C030
C030
C030
C030
C030
C030
C030
C030
C030
C030
ENDCHAR
STARTCHAR 0420
ENCODING 1056
SWIDTH 675 0
DWIDTH 15 0
BBX 12 16 2 0
BITMAP
FF80
FFE0
C060
C070
C030
C030
C070
C0E0
FFC0
FE00
C000
C000
C000
C000
C000
C000
ENDCHAR
STARTCHAR 0421
ENCODING 1057
SWIDTH 720 0
DWIDTH 16 0
BBX 14 16 1 0
BITMAP
0FE0
1FF0
3838
601C
600C
E000
C000
C000
C000
C000
E000
600C
601C
3038
3FF0
0FE0
ENDCHAR
STARTCHAR 0422
ENCODING 1058
SWIDTH 630 0
DWIDTH 14 0
BBX 12 16 1 0
BITMAP
FFF0
FFF0
0600
0600
0600
0600
0600
0600
0600
0600
0600
0600
0600
0600
0600
0600
ENDCHAR
STARTCHAR 0423
ENCODING 1059
SWIDTH 630 0
DWIDTH 14 0
BBX 14 16 0 0
BITMAP
C00C
6018
7018
3030
1830
1860
0C60
0C40
06C0
06C0
0380
0380
0300
0300
3E00
3C00
ENDCHAR
STARTCHAR 0424
ENCODING 1060
SWIDTH 765 0
DWIDTH 17 0
BBX 15 16 1 0
BITMAP
0300
0300
0FE0
3FF8
731C
E30C
C306
C306
C306
C306
E30C
731C
3FF8
0FE0
0300
0300
ENDCHAR
STARTCHAR 0425
ENCODING 1061
SWIDTH 675 0
DWIDTH 15 0
BBX 14 16 0 0
BITMAP
700C
3018
1830
1C70
0C60
06C0
0780
0380
0380
06C0
0EE0
1C60
1830
3038
701C
E00C
ENDCHAR
STARTCHAR 0426
ENCODING 1062
SWIDTH 720 0
DWIDTH 16 0
BBX 14 20 2 -4
BITMAP
C030
C030
C030
C030
C030
C030
C030
C030
C030
C030
C030
C030
C030
C030
FFFC
FFFC
000C
000C
000C
000C
ENDCHAR
STARTCHAR 0427
ENCODING 1063
SWIDTH 675 0
DWIDTH 15 0
BBX 12 16 1 0
BITMAP
C030
C030
C030
C030
C030
C030
C030
E030
70F0
3FF0
0E30
0030
0030
0030
0030
0030
ENDCHAR
STARTCHAR 0428
ENCODING 1064
SWIDTH 900 0
DWIDTH 20 0
BBX 17 16 2 0
BITMAP
C18180
C18180
C18180
C18180
C18180
C18180
C18180
C18180
C18180
C18180
C18180
C18180
C18180
C18180
FFFF80
FFFF80
ENDCHAR
STARTCHAR 0429
ENCODING 1065
SWIDTH 945 0
DWIDTH 21 0
BBX 18 20 2 -4
BITMAP
C18180
C18180
C18180
C18180
C18180
C18180
C18180
C18180
C18180
C18180
C18180
C18180
C18180
C18180
FFFFC0
FFFFC0
0000C0
0000C0
0000C0
0000C0
ENDCHAR
STARTCHAR 042A
ENCODING 1066
SWIDTH 810 0
DWIDTH 18 0
BBX 17 16 0 0
BITMAP
FE0000
FE0000
060000
060000
060000
060000
060000
07FE00
07FF00
060300
060380
060180
060380
060300
07FF00
07FC00
ENDCHAR
STARTCHAR 042B
ENCODING 1067
SWIDTH 900 0
DWIDTH 20 0
BBX 16 16 2 0
BITMAP
C003
C003
C003
C003
C003
C003
C003
FFC3
FFE3
C063
C073
C033
C073
C063
FFE3
FF83
ENDCHAR
STARTCHAR 042C
ENCODING 1068
SWIDTH 675 0
DWIDTH 15 0
BBX 12 16 2 0
BITMAP
C000
C000
C000
C000
C000
C000
C000
FFC0
FFE0
C060
C070
C070
C070
C060
FFE0
FF80
ENDCHAR
STARTCHAR 042D
ENCODING 1069
SWIDTH 720 0
DWIDTH 16 0
BBX 14 16 1 0
BITMAP
1FC0
3FE0
7070
E038
C018
0018
001C
03FC
03FC
000C
001C
C018
E038
6030
3DE0
1FC0
ENDCHAR
STARTCHAR 042E
ENCODING 1070
SWIDTH 990 0
DWIDTH 22 0
BBX 19 16 2 0
BITMAP
C07E00
C0FF80
C181C0
C300C0
C70060
C60060
C60060
FE0060
FE0060
C60060
C60060
C70060
C300C0
C381C0
C1FF80
C07E00
ENDCHAR
STARTCHAR 042F
ENCODING 1071
SWIDTH 720 0
DWIDTH 16 0
BBX 13 16 1 0
BITMAP
1FF8
3FF8
7018
6018
6018
6018
7018
3FF8
0FF8
0E18
1C18
3818
3018
7018
E018
C018
ENDCHAR
STARTCHAR 0430
ENCODING 1072
SWIDTH 540 0
DWIDTH 12 0
BBX 10 12 1 0
BITMAP
1E00
7F80
61C0
C0C0
00C0
1FC0
7EC0
E0C0
C0C0
C1C0
E3C0
7EC0
ENDCHAR
STARTCHAR 0431
ENCODING 1073
SWIDTH 585 0
DWIDTH 13 0
BBX 11 16 1 0
BITMAP
1FE0
3FC0
6000
4000
C400
DF80
F1C0
E0C0
C060
C060
C060
C060
C0E0
60C0
3180
1F00
ENDCHAR
STARTCHAR 0432
ENCODING 1074
SWIDTH 540 0
DWIDTH 12 0
BBX 10 12 1 0
BITMAP
FC00
FF80
C180
C180
C180
FF80
FF80
C1C0
C0C0
C0C0
FF80
FF00
ENDCHAR
STARTCHAR 0433
ENCODING 1075
SWIDTH 360 0
DWIDTH 8 0
BBX 7 12 1 0
BITMAP
FE
FE
C0
C0
C0
C0
C0
C0
C0
C0
C0
C0
ENDCHAR
STARTCHAR 0434
ENCODING 1076
SWIDTH 585 0
DWIDTH 13 0
BBX 12 15 0 -3
BITMAP
1FE0
1FE0
1860
1860
1060
1060
1060
3060
3060
2060
FFF0
FFF0
C010
C010
C010
ENDCHAR
STARTCHAR 0435
ENCODING 1077
SWIDTH 540 0
DWIDTH 12 0
BBX 10 12 1 0
BITMAP
1E00
3F80
61C0
C0C0
C0C0
FFC0
FFC0
C000
C0C0
E0C0
7380
3F00
ENDCHAR
STARTCHAR 0436
ENCODING 1078
SWIDTH 675 0
DWIDTH 15 0
BBX 15 12 0 0
BITMAP
8304
E30C
3318
1310
1B30
0FE0
0FE0
1B30
3318
7318
630C
C30E
ENDCHAR
STARTCHAR 0437
ENCODING 1079
SWIDTH 450 0
DWIDTH 10 0
BBX 8 12 1 0
BITMAP
3C
7E
C3
C3
03
1E
1F
03
03
C3
E7
7E
ENDCHAR
STARTCHAR 0438
ENCODING 1080
SWIDTH 540 0
DWIDTH 12 0
BBX 10 12 1 0
BITMAP
C0C0
C1C0
C1C0
C3C0
C6C0
C6C0
CCC0
C8C0
D8C0
F0C0
E0C0
E0C0
ENDCHAR
STARTCHAR 0439
ENCODING 1081
SWIDTH 540 0
DWIDTH 12 0
BBX 10 16 1 0
BITMAP
3180
1B00
0E00
0000
C0C0
C1C0
C1C0
C3C0
C6C0
C6C0
CCC0
C8C0
D8C0
F0C0
E0C0
E0C0
ENDCHAR
STARTCHAR 043A
ENCODING 1082
SWIDTH 450 0
DWIDTH 10 0
BBX 9 12 1 0
BITMAP
C000
C300
C600
C400
CC00
F800
F800
CC00
C600
C600
C300
C380
ENDCHAR
STARTCHAR 043B
ENCODING 1083
SWIDTH 585 0
DWIDTH 13 0
BBX 11 12 0 0
BITMAP
3FE0
3FE0
3020
3020
3020
3020
3020
3020
3020
3020
F020
F020
ENDCHAR
STARTCHAR 043C
ENCODING 1084
SWIDTH 675 0
DWIDTH 15 0
BBX 12 12 2 0
BITMAP
E070
E070
E0F0
B0F0
B1B0
B1B0
9930
9B30
9B30
8E30
8E30
8E30
ENDCHAR
STARTCHAR 043D
ENCODING 1085
SWIDTH 540 0
DWIDTH 12 0
BBX 10 12 1 0
BITMAP
C0C0
C0C0
C0C0
C0C0
C0C0
FFC0
FFC0
C0C0
C0C0
C0C0
C0C0
C0C0
ENDCHAR
STARTCHAR 043E
ENCODING 1086
SWIDTH 540 0
DWIDTH 12 0
BBX 11 12 1 0
BITMAP
1E00
3F80
61C0
C0C0
C0C0
C0E0
C060
C0C0
C0C0
E0C0
7380
3F00
ENDCHAR
STARTCHAR 043F
ENCODING 1087
SWIDTH 540 0
DWIDTH 12 0
BBX 10 12 1 0
BITMAP
FFC0
FFC0
C0C0
C0C0
C0C0
C0C0
C0C0
C0C0
C0C0
C0C0
C0C0
C0C0
ENDCHAR
STARTCHAR 0440
ENCODING 1088
SWIDTH 540 0
DWIDTH 12 0
BBX 10 16 1 -4
BITMAP
CE00
DF80
F1C0
E0C0
C0C0
C0C0
C0C0
C0C0
E0C0
E0C0
F380
DF00
C000
C000
C000
C000
ENDCHAR
STARTCHAR 0441
ENCODING 1089
SWIDTH 495 0
DWIDTH 11 0
BBX 10 12 1 0
BITMAP
1E00
3F80
6180
C0C0
C000
C000
C000
C000
C0C0
E180
7380
3F00
ENDCHAR
STARTCHAR 0442
ENCODING 1090
SWIDTH 450 0
DWIDTH 10 0
BBX 10 12 0 0
BITMAP
FFC0
FFC0
0C00
0C00
0C00
0C00
0C00
0C00
0C00
0C00
0C00
0C00
ENDCHAR
STARTCHAR 0443
ENCODING 1091
SWIDTH 495 0
DWIDTH 11 0
BBX 11 17 0 -5
BITMAP
C060
6060
60C0
70C0
3180
3180
1980
1B00
1B00
0F00
0E00
0600
0400
0C00
1C00
7800
3000
ENDCHAR
STARTCHAR 0444
ENCODING 1092
SWIDTH 810 0
DWIDTH 18 0
BBX 16 20 1 -4
BITMAP
0180
0180
0180
0180
1D9C
7FFE
63C7
C1C3
C183
C183
C183
C183
C183
E1C3
73E6
3FBC
0180
0180
0180
0180
ENDCHAR
STARTCHAR 0445
ENCODING 1093
SWIDTH 495 0
DWIDTH 11 0
BBX 11 12 0 0
BITMAP
E0E0
70C0
3180
1B00
1F00
0E00
0E00
1F00
1B00
3180
70C0
60E0
ENDCHAR
STARTCHAR 0446
ENCODING 1094
SWIDTH 585 0
DWIDTH 13 0
BBX 11 15 1 -3
BITMAP
C0C0
C0C0
C0C0
C0C0
C0C0
C0C0
C0C0
C0C0
C0C0
C0C0
FFE0
FFE0
0060
0060
0060
ENDCHAR
STARTCHAR 0447
ENCODING 1095
SWIDTH 540 0
DWIDTH 12 0
BBX 9 12 1 0
BITMAP
C180
C180
C180
C180
C180
C180
7F80
3F80
0180
0180
0180
0180
ENDCHAR
STARTCHAR 0448
ENCODING 1096
SWIDTH 810 0
DWIDTH 18 0
BBX 14 12 2 0
BITMAP
830C
830C
830C
830C
830C
830C
830C
830C
830C
830C
FFFC
FFFC
ENDCHAR
STARTCHAR 0449
ENCODING 1097
SWIDTH 810 0
DWIDTH 18 0
BBX 16 15 2 -3
BITMAP
830C
830C
830C
830C
830C
830C
830C
830C
830C
830C
FFFF
FFFF
0003
0003
0003
ENDCHAR
STARTCHAR 044A
ENCODING 1098
SWIDTH 630 0
DWIDTH 14 0
BBX 13 12 0 0
BITMAP
FC00
FC00
0C00
0C00
0C00
0FE0
0FF0
0C18
0C18
0C18
0FF0
0FE0
ENDCHAR
STARTCHAR 044B
ENCODING 1099
SWIDTH 720 0
DWIDTH 16 0
BBX 12 12 2 0
BITMAP
8030
8030
8030
8030
8030
FE30
FF30
81B0
81B0
81B0
FF30
FE30
ENDCHAR
STARTCHAR 044C
ENCODING 1100
SWIDTH 540 0
DWIDTH 12 0
BBX 10 12 1 0
BITMAP
C000
C000
C000
C000
C000
FF00
FF80
C0C0
C0C0
C0C0
FF80
FF00
ENDCHAR
STARTCHAR 044D
ENCODING 1101
SWIDTH 495 0
DWIDTH 11 0
BBX 9 12 1 0
BITMAP
3C00
7F00
C380
C180
0180
1F80
1F80
0180
C180
C180
E700
3E00
ENDCHAR
STARTCHAR 044E
ENCODING 1102
SWIDTH 765 0
DWIDTH 17 0
BBX 15 12 1 0
BITMAP
C0F0
C3F8
C30C
C60C
C606
FE06
FE06
C606
C60E
C70C
C39C
C1F8
ENDCHAR
STARTCHAR 044F
ENCODING 1103
SWIDTH 540 0
DWIDTH 12 0
BBX 10 12 1 0
BITMAP
0FC0
7FC0
E0C0
C0C0
C0C0
E0C0
7FC0
1FC0
30C0
60C0
E0C0
C0C0
ENDCHAR
STARTCHAR 0451
ENCODING 1105
SWIDTH 540 0
DWIDTH 12 0
BBX 10 16 1 0
BITMAP
3300
3300
0000
0000
1E00
3F80
61C0
C0C0
C0C0
FFC0
FFC0
C000
C0C0
E0C0
7380
3F00
ENDCHAR
STARTCHAR 0452
ENCODING 1106
SWIDTH 540 0
DWIDTH 12 0
BBX 11 21 0 -5
BITMAP
6000
6000
FE00
6000
6780
6FC0
78E0
7060
6060
6060
6060
6060
6060
6060
6060
6060
0060
0060
0060
01C0
0380
ENDCHAR
STARTCHAR 0453
ENCODING 1107
SWIDTH 360 0
DWIDTH 8 0
BBX 7 16 1 0
BITMAP
0C
1C
18
00
FE
FE
C0
C0
C0
C0
C0
C0
C0
C0
C0
C0
ENDCHAR
STARTCHAR 0454
ENCODING 1108
SWIDTH 495 0
DWIDTH 11 0
BBX 10 12 1 0
BITMAP
1E00
3F00
6180
C0C0
C000
FC00
FC00
C000
C0C0
E180
7380
3F00
ENDCHAR
STARTCHAR 0455
ENCODING 1109
SWIDTH 495 0
DWIDTH 11 0
BBX 9 12 1 0
BITMAP
3C00
7F00
C380
C100
E000
7C00
3F00
0380
C180
C180
E380
7F00
ENDCHAR
STARTCHAR 0456
ENCODING 1110
SWIDTH 225 0
DWIDTH 5 0
BBX 2 16 1 0
BITMAP
C0
C0
00
00
C0
C0
C0
C0
C0
C0
C0
C0
C0
C0
C0
C0
ENDCHAR
STARTCHAR 0457
ENCODING 1111
SWIDTH 270 0
DWIDTH 6 0
BBX 6 16 0 0
BITMAP
CC
CC
00
00
30
30
30
30
30
30
30
30
30
30
30
30
ENDCHAR
STARTCHAR 0458
ENCODING 1112
SWIDTH 225 0
DWIDTH 5 0
BBX 4 21 -1 -5
BITMAP
30
30
00
00
30
30
30
30
30
30
30
30
30
30
30
30
30
30
30
F0
E0
ENDCHAR
STARTCHAR 0459
ENCODING 1113
SWIDTH 900 0
DWIDTH 20 0
BBX 19 12 0 0
BITMAP
1FF000
1FF000
103000
103000
103000
103F80
103FE0
103060
103060
303060
B03FE0
F03F80
ENDCHAR
STARTCHAR 045A
ENCODING 1114
SWIDTH 810 0
DWIDTH 18 0
BBX 16 12 1 0
BITMAP
C180
C180
C180
C180
C180
FFF8
FFFE
C183
C183
C183
C1FF
C1FC
ENDCHAR
STARTCHAR 045B
ENCODING 1115
SWIDTH 540 0
DWIDTH 12 0
BBX 11 16 0 0
BITMAP
6000
6000
FE00
6000
6780
6FC0
78E0
7060
6060
6060
6060
6060
6060
6060
6060
6060
ENDCHAR
STARTCHAR 045C
ENCODING 1116
SWIDTH 450 0
DWIDTH 10 0
BBX 9 16 1 0
BITMAP
0C00
1C00
1800
0000
C000
C300
C600
C400
CC00
F800
F800
CC00
C600
C600
C300
C380
ENDCHAR
STARTCHAR 045D
ENCODING 1117
SWIDTH 540 0
DWIDTH 12 0
BBX 10 16 1 0
BITMAP
1800
1C00
0C00
0000
C0C0
C1C0
C1C0
C3C0
C6C0
C6C0
CCC0
C8C0
D8C0
F0C0
E0C0
E0C0
ENDCHAR
STARTCHAR 045E
ENCODING 1118
SWIDTH 495 0
DWIDTH 11 0
BBX 11 21 0 -5
BITMAP
1180
1B00
0E00
0000
C060
6060
60C0
70C0
3180
3180
1980
1B00
1B00
0F00
0E00
0600
0400
0C00
1C00
7800
3000
ENDCHAR
STARTCHAR 045F
ENCODING 1119
SWIDTH 540 0
DWIDTH 12 0
BBX 10 15 1 -3
BITMAP
C0C0
C0C0
C0C0
C0C0
C0C0
C0C0
C0C0
C0C0
C0C0
C0C0
FFC0
FFC0
0C00
0C00
0C00
ENDCHAR
STARTCHAR 0490
ENCODING 1168
SWIDTH 495 0
DWIDTH 11 0
BBX 8 20 2 0
BITMAP
03
03
03
03
FF
FF
C0
C0
C0
C0
C0
C0
C0
C0
C0
C0
C0
C0
C0
C0
ENDCHAR
STARTCHAR 0491
ENCODING 1169
SWIDTH 405 0
DWIDTH 9 0
BBX 7 16 1 0
BITMAP
02
02
02
02
FE
FE
C0
C0
C0
C0
C0
C0
C0
C0
C0
C0
ENDCHAR
STARTCHAR 0492
ENCODING 1170
SWIDTH 540 0
DWIDTH 12 0
BBX 12 16 0 0
BITMAP
3FF0
3FF0
3000
3000
3000
3000
3000
FF00
FF00
3000
3000
3000
3000
3000
3000
3000
ENDCHAR
STARTCHAR 0493
ENCODING 1171
SWIDTH 360 0
DWIDTH 8 0
BBX 8 12 0 0
BITMAP
7F
7F
60
60
60
FC
60
60
60
60
60
60
ENDCHAR
STARTCHAR 0496
ENCODING 1174
SWIDTH 945 0
DWIDTH 21 0
BBX 20 20 0 -4
BITMAP
E06070
F060F0
1860C0
186180
0C6180
0C6300
066700
03FE00
07FE00
0E6300
1C6380
1861C0
3860C0
3060E0
706070
E06030
000010
000010
000010
000010
ENDCHAR
STARTCHAR 0497
ENCODING 1175
SWIDTH 675 0
DWIDTH 15 0
BBX 15 15 0 -3
BITMAP
8300
E30C
3318
1310
1B30
0FE0
0FE0
1B30
3318
7318
630E
C30E
0006
0006
0006
ENDCHAR
STARTCHAR 049A
ENCODING 1178
SWIDTH 585 0
DWIDTH 13 0
BBX 11 20 2 -4
BITMAP
C0E0
C1E0
C300
C300
C600
C600
CC00
F800
FC00
CE00
C600
C700
C380
C180
C1E0
C0E0
0060
0060
0060
0060
ENDCHAR
STARTCHAR 049B
ENCODING 1179
SWIDTH 450 0
DWIDTH 10 0
BBX 9 15 1 -3
BITMAP
C000
C300
C600
C400
CC00
F800
F800
CC00
C600
C600
C380
C380
0180
0180
0180
ENDCHAR
STARTCHAR 049C
ENCODING 1180
SWIDTH 585 0
DWIDTH 13 0
BBX 11 16 2 0
BITMAP
C0E0
C1E0
C300
D300
D600
D600
DC00
F800
FC00
DE00
D600
D700
D380
C180
C1C0
C0E0
ENDCHAR
STARTCHAR 049D
ENCODING 1181
SWIDTH 450 0
DWIDTH 10 0
BBX 9 12 1 0
BITMAP
C000
C300
D600
D400
DC00
F800
F800
DC00
D600
D600
C300
C380
ENDCHAR
STARTCHAR 04A2
ENCODING 1186
SWIDTH 720 0
DWIDTH 16 0
BBX 14 20 2 -4
BITMAP
C030
C030
C030
C030
C030
C030
C030
FFF0
FFF0
C030
C030
C030
C030
C030
C03C
C03C
000C
000C
000C
000C
ENDCHAR
STARTCHAR 04A3
ENCODING 1187
SWIDTH 540 0
DWIDTH 12 0
BBX 11 15 1 -3
BITMAP
C0C0
C0C0
C0C0
C0C0
C0C0
FFC0
FFC0
C0C0
C0C0
C0C0
C0E0
C0E0
0060
0060
0060
ENDCHAR
STARTCHAR 04AE
ENCODING 1198
SWIDTH 540 0
DWIDTH 12 0
BBX 12 16 0 0
BITMAP
C030
6060
6060
30C0
38C0
1980
0D80
0F00
0700
0600
0600
0600
0600
0600
0600
0600
ENDCHAR
STARTCHAR 04AF
ENCODING 1199
SWIDTH 495 0
DWIDTH 11 0
BBX 11 16 0 -4
BITMAP
C060
60E0
60C0
60C0
3180
3180
3180
1B00
1B00
0A00
0E00
0E00
0600
0600
0600
0600
ENDCHAR
STARTCHAR 04B0
ENCODING 1200
SWIDTH 540 0
DWIDTH 12 0
BBX 12 16 0 0
BITMAP
C030
6060
6060
30C0
38C0
1980
0D80
0F00
7FF0
0600
0600
0600
0600
0600
0600
0600
ENDCHAR
STARTCHAR 04B1
ENCODING 1201
SWIDTH 495 0
DWIDTH 11 0
BBX 11 16 0 -4
BITMAP
C060
60E0
60C0
60C0
3180
3180
3180
1B00
1B00
0A00
0E00
0E00
7FC0
0600
0600
0600
ENDCHAR
STARTCHAR 04B2
ENCODING 1202
SWIDTH 675 0
DWIDTH 15 0
BBX 15 20 0 -4
BITMAP
700C
3018
1830
1C70
0C60
06C0
0780
0380
0380
06C0
0EE0
1C60
1830
3038
701E
E00E
0006
0006
0006
0006
ENDCHAR
STARTCHAR 04B3
ENCODING 1203
SWIDTH 495 0
DWIDTH 11 0
BBX 11 15 0 -3
BITMAP
E0E0
70C0
3180
1B00
1F00
0E00
0E00
1F00
1B00
3180
70E0
60E0
0060
0060
0060
ENDCHAR
STARTCHAR 04B8
ENCODING 1208
SWIDTH 675 0
DWIDTH 15 0
BBX 12 16 1 0
BITMAP
C030
C030
C030
C030
C630
C630
C630
E630
76F0
3FF0
0E30
0630
0630
0630
0030
0030
ENDCHAR
STARTCHAR 04B9
ENCODING 1209
SWIDTH 540 0
DWIDTH 12 0
BBX 9 12 1 0
BITMAP
C180
C180
C180
C980
C980
C980
7F80
3F80
0980
0980
0180
0180
ENDCHAR
STARTCHAR 04BA
ENCODING 1210
SWIDTH 675 0
DWIDTH 15 0
BBX 12 16 2 0
BITMAP
C000
C000
C000
C000
C000
C200
FFC0
F0E0
C070
C030
C030
C030
C030
C030
C030
C030
ENDCHAR
STARTCHAR 04BB
ENCODING 1211
SWIDTH 540 0
DWIDTH 12 0
BBX 10 16 1 0
BITMAP
C000
C000
C000
C000
CF00
DF80
F1C0
E0C0
C0C0
C0C0
C0C0
C0C0
C0C0
C0C0
C0C0
C0C0
ENDCHAR
STARTCHAR 04D8
ENCODING 1240
SWIDTH 765 0
DWIDTH 17 0
BBX 15 16 1 0
BITMAP
0FE0
1FF0
3838
701C
600C
000C
000E
FFFE
FFFE
C00E
C00C
600C
601C
3038
3EF0
0FE0
ENDCHAR
STARTCHAR 04D9
ENCODING 1241
SWIDTH 540 0
DWIDTH 12 0
BBX 11 12 1 0
BITMAP
1E00
7F80
61C0
C0C0
00C0
00E0
FFE0
C0C0
C0C0
60C0
7380
3F00
ENDCHAR
STARTCHAR 04E8
ENCODING 1256
SWIDTH 765 0
DWIDTH 17 0
BBX 15 16 1 0
BITMAP
0FE0
1FF8
3818
700C
600E
E006
C006
FFFE
FFFE
C006
C006
600E
600C
301C
1FF8
0FE0
ENDCHAR
STARTCHAR 04E9
ENCODING 1257
SWIDTH 540 0
DWIDTH 12 0
BBX 11 12 1 0
BITMAP
1E00
3F80
61C0
C0C0
C0C0
FFE0
FFE0
C0C0
C0C0
E0C0
7380
3F00
ENDCHAR
STARTCHAR 05B0
ENCODING 1456
SWIDTH 315 0
DWIDTH 7 0
BBX 2 4 3 -5
BITMAP
C0
00
C0
80
ENDCHAR
STARTCHAR 05B1
ENCODING 1457
SWIDTH 315 0
DWIDTH 7 0
BBX 7 4 0 -5
BITMAP
DE
00
26
22
ENDCHAR
STARTCHAR 05B2
ENCODING 1458
SWIDTH 315 0
DWIDTH 7 0
BBX 6 4 1 -5
BITMAP
EC
00
0C
0C
ENDCHAR
STARTCHAR 05B3
ENCODING 1459
SWIDTH 315 0
DWIDTH 7 0
BBX 6 4 1 -5
BITMAP
EC
40
0C
0C
ENDCHAR
STARTCHAR 05B4
ENCODING 1460
SWIDTH 315 0
DWIDTH 7 0
BBX 2 2 3 -4
BITMAP
80
C0
ENDCHAR
STARTCHAR 05B5
ENCODING 1461
SWIDTH 315 0
DWIDTH 7 0
BBX 5 2 1 -4
BITMAP
58
D8
ENDCHAR
STARTCHAR 05B6
ENCODING 1462
SWIDTH 315 0
DWIDTH 7 0
BBX 5 4 1 -5
BITMAP
D8
00
30
20
ENDCHAR
STARTCHAR 05B7
ENCODING 1463
SWIDTH 315 0
DWIDTH 7 0
BBX 4 1 2 -3
BITMAP
F0
ENDCHAR
STARTCHAR 05B8
ENCODING 1464
SWIDTH 315 0
DWIDTH 7 0
BBX 4 3 2 -5
BITMAP
F0
40
40
ENDCHAR
STARTCHAR 05B9
ENCODING 1465
SWIDTH 315 0
DWIDTH 7 0
BBX 2 2 3 13
BITMAP
80
C0
ENDCHAR
STARTCHAR 05BA
ENCODING 1466
SWIDTH 315 0
DWIDTH 7 0
BBX 2 2 3 13
BITMAP
80
C0
ENDCHAR
STARTCHAR 05BB
ENCODING 1467
SWIDTH 315 0
DWIDTH 7 0
BBX 7 4 0 -5
BITMAP
C0
18
16
02
ENDCHAR
STARTCHAR 05BC
ENCODING 1468
SWIDTH 315 0
DWIDTH 7 0
BBX 2 2 3 5
BITMAP
C0
80
ENDCHAR
STARTCHAR 05BD
ENCODING 1469
SWIDTH 315 0
DWIDTH 7 0
BBX 1 4 3 -5
BITMAP
80
80
80
80
ENDCHAR
STARTCHAR 05BE
ENCODING 1470
SWIDTH 405 0
DWIDTH 9 0
BBX 6 2 1 10
BITMAP
FC
FC
ENDCHAR
STARTCHAR 05BF
ENCODING 1471
SWIDTH 315 0
DWIDTH 7 0
BBX 4 1 2 14
BITMAP
F0
ENDCHAR
STARTCHAR 05C0
ENCODING 1472
SWIDTH 270 0
DWIDTH 6 0
BBX 2 14 2 0
BITMAP
C0
C0
C0
C0
C0
C0
C0
C0
C0
C0
C0
C0
C0
C0
ENDCHAR
STARTCHAR 05C1
ENCODING 1473
SWIDTH 315 0
DWIDTH 7 0
BBX 2 2 8 13
BITMAP
40
C0
ENDCHAR
STARTCHAR 05C2
ENCODING 1474
SWIDTH 315 0
DWIDTH 7 0
BBX 2 2 -3 13
BITMAP
40
C0
ENDCHAR
STARTCHAR 05C3
ENCODING 1475
SWIDTH 270 0
DWIDTH 6 0
BBX 2 12 2 0
BITMAP
C0
C0
C0
00
00
00
00
00
00
00
C0
C0
ENDCHAR
STARTCHAR 05D0
ENCODING 1488
SWIDTH 585 0
DWIDTH 13 0
BBX 11 12 1 0
BITMAP
E0C0
60C0
30C0
38C0
3DC0
7D80
6F00
6700
6300
E180
C1C0
C0E0
ENDCHAR
STARTCHAR 05D1
ENCODING 1489
SWIDTH 540 0
DWIDTH 12 0
BBX 11 12 1 0
BITMAP
F800
FE00
0700
0300
0380
0180
0180
0180
0180
0180
FFE0
FFE0
ENDCHAR
STARTCHAR 05D2
ENCODING 1490
SWIDTH 405 0
DWIDTH 9 0
BBX 7 12 1 0
BITMAP
70
78
1C
0C
0C
0C
0C
0C
3C
6C
C6
C6
ENDCHAR
STARTCHAR 05D3
ENCODING 1491
SWIDTH 495 0
DWIDTH 11 0
BBX 11 12 0 0
BITMAP
FFE0
FFE0
0180
0180
0180
0180
0180
0180
0180
0180
0180
0180
ENDCHAR
STARTCHAR 05D4
ENCODING 1492
SWIDTH 585 0
DWIDTH 13 0
BBX 10 12 2 0
BITMAP
7C00
FF00
0380
0180
00C0
00C0
C0C0
C0C0
C0C0
C0C0
C0C0
C0C0
ENDCHAR
STARTCHAR 05D5
ENCODING 1493
SWIDTH 225 0
DWIDTH 5 0
BBX 2 12 2 0
BITMAP
C0
C0
C0
C0
C0
C0
C0
C0
C0
C0
C0
C0
ENDCHAR
STARTCHAR 05D6
ENCODING 1494
SWIDTH 405 0
DWIDTH 9 0
BBX 7 12 1 0
BITMAP
FE
FE
18
30
30
60
30
30
30
30
30
30
ENDCHAR
STARTCHAR 05D7
ENCODING 1495
SWIDTH 585 0
DWIDTH 13 0
BBX 10 12 2 0
BITMAP
3C00
FF00
C380
C1C0
C0C0
C0C0
C0C0
C0C0
C0C0
C0C0
C0C0
C0C0
ENDCHAR
STARTCHAR 05D8
ENCODING 1496
SWIDTH 585 0
DWIDTH 13 0
BBX 10 12 2 0
BITMAP
C300
CF80
C980
C0C0
C0C0
C0C0
C0C0
C0C0
C0C0
C180
7380
3F00
ENDCHAR
STARTCHAR 05D9
ENCODING 1497
SWIDTH 225 0
DWIDTH 5 0
BBX 2 6 2 6
BITMAP
C0
C0
C0
C0
C0
C0
ENDCHAR
STARTCHAR 05DA
ENCODING 1498
SWIDTH 495 0
DWIDTH 11 0
BBX 9 16 1 -4
BITMAP
F000
FE00
0700
0300
0380
0180
0180
0180
0180
0180
0180
0180
0180
0180
0180
0180
ENDCHAR
STARTCHAR 05DB
ENCODING 1499
SWIDTH 450 0
DWIDTH 10 0
BBX 8 12 1 0
BITMAP
F0
FC
0E
07
03
03
03
03
03
06
FE
F8
ENDCHAR
STARTCHAR 05DC
ENCODING 1500
SWIDTH 450 0
DWIDTH 10 0
BBX 8 16 1 0
BITMAP
C0
C0
C0
C0
C0
FF
03
03
03
03
06
0E
0C
0C
0C
0C
ENDCHAR
STARTCHAR 05DD
ENCODING 1501
SWIDTH 585 0
DWIDTH 13 0
BBX 10 12 2 0
BITMAP
3C00
FF00
C380
C1C0
C0C0
C0C0
C0C0
C0C0
C0C0
C0C0
FFC0
FFC0
ENDCHAR
STARTCHAR 05DE
ENCODING 1502
SWIDTH 585 0
DWIDTH 13 0
BBX 11 12 1 0
BITMAP
C300
CF80
78C0
70C0
7060
3060
6060
6060
6060
6060
67E0
C7E0
ENDCHAR
STARTCHAR 05DF
ENCODING 1503
SWIDTH 225 0
DWIDTH 5 0
BBX 2 16 2 -4
BITMAP
C0
C0
C0
C0
C0
C0
C0
C0
C0
C0
C0
C0
C0
C0
C0
C0
ENDCHAR
STARTCHAR 05E0
ENCODING 1504
SWIDTH 360 0
DWIDTH 8 0
BBX 5 12 1 0
BITMAP
E0
F0
38
18
18
18
18
18
18
18
F8
F8
ENDCHAR
STARTCHAR 05E1
ENCODING 1505
SWIDTH 585 0
DWIDTH 13 0
BBX 11 12 1 0
BITMAP
1E00
3F80
71C0
E0C0
C0E0
C0E0
C060
C0E0
E0C0
60C0
7B80
3F00
ENDCHAR
STARTCHAR 05E2
ENCODING 1506
SWIDTH 540 0
DWIDTH 12 0
BBX 10 13 0 -1
BITMAP
70C0
30C0
30C0
30C0
30C0
38C0
18C0
18C0
1980
1B80
1F00
FC00
E000
ENDCHAR
STARTCHAR 05E3
ENCODING 1507
SWIDTH 585 0
DWIDTH 13 0
BBX 10 16 1 -4
BITMAP
3C00
FF80
C380
C0C0
C0C0
C0C0
E0C0
78C0
00C0
00C0
00C0
00C0
00C0
00C0
00C0
00C0
ENDCHAR
STARTCHAR 05E4
ENCODING 1508
SWIDTH 540 0
DWIDTH 12 0
BBX 10 12 1 0
BITMAP
3C00
FF00
C380
C1C0
C0C0
E0C0
78C0
00C0
01C0
0380
7F00
FE00
ENDCHAR
STARTCHAR 05E5
ENCODING 1509
SWIDTH 450 0
DWIDTH 10 0
BBX 9 16 0 -4
BITMAP
C180
6180
6180
3180
3180
1B80
1F00
0E00
0C00
0C00
0C00
0C00
0C00
0C00
0C00
0C00
ENDCHAR
STARTCHAR 05E6
ENCODING 1510
SWIDTH 495 0
DWIDTH 11 0
BBX 9 12 0 0
BITMAP
C180
6180
7180
3180
1980
1F00
0E00
0600
0700
0300
7F80
7F80
ENDCHAR
STARTCHAR 05E7
ENCODING 1511
SWIDTH 540 0
DWIDTH 12 0
BBX 9 16 2 -4
BITMAP
FF80
FF80
0180
0180
0180
0180
C300
C700
C600
CE00
CE00
CE00
C000
C000
C000
C000
ENDCHAR
STARTCHAR 05E8
ENCODING 1512
SWIDTH 495 0
DWIDTH 11 0
BBX 9 12 1 0
BITMAP
F800
FE00
0700
0300
0180
0180
0180
0180
0180
0180
0180
0180
ENDCHAR
STARTCHAR 05E9
ENCODING 1513
SWIDTH 675 0
DWIDTH 15 0
BBX 13 12 1 0
BITMAP
C318
C318
C318
C718
C618
C618
FE18
7838
6030
7070
3DE0
1FC0
ENDCHAR
STARTCHAR 05EA
ENCODING 1514
SWIDTH 630 0
DWIDTH 14 0
BBX 13 12 0 0
BITMAP
1F00
7FE0
1870
1830
1818
1818
1818
1818
1818
1818
7818
F818
ENDCHAR
STARTCHAR 05F0
ENCODING 1520
SWIDTH 495 0
DWIDTH 11 0
BBX 7 12 2 0
BITMAP
C6
C6
C6
C6
C6
C6
C6
C6
C6
C6
C6
C6
ENDCHAR
STARTCHAR 05F1
ENCODING 1521
SWIDTH 495 0
DWIDTH 11 0
BBX 7 12 2 0
BITMAP
C6
C6
C6
C6
C6
C6
06
06
06
06
06
06
ENDCHAR
STARTCHAR 05F2
ENCODING 1522
SWIDTH 495 0
DWIDTH 11 0
BBX 7 6 2 6
BITMAP
C6
C6
C6
C6
C6
C6
ENDCHAR
STARTCHAR 05F3
ENCODING 1523
SWIDTH 225 0
DWIDTH 5 0
BBX 3 5 1 7
BITMAP
60
60
40
C0
80
ENDCHAR
STARTCHAR 05F4
ENCODING 1524
SWIDTH 405 0
DWIDTH 9 0
BBX 7 5 1 7
BITMAP
66
66
44
CC
88
ENDCHAR
STARTCHAR 060C
ENCODING 1548
SWIDTH 315 0
DWIDTH 7 0
BBX 3 6 2 4
BITMAP
40
80
80
E0
E0
60
ENDCHAR
STARTCHAR 061B
ENCODING 1563
SWIDTH 315 0
DWIDTH 7 0
BBX 3 10 2 4
BITMAP
40
80
80
E0
E0
E0
00
40
E0
60
ENDCHAR
STARTCHAR 061F
ENCODING 1567
SWIDTH 360 0
DWIDTH 8 0
BBX 6 13 1 3
BITMAP
38
C4
CC
DC
E8
E0
60
30
10
00
30
30
30
ENDCHAR
STARTCHAR 0621
ENCODING 1569
SWIDTH 405 0
DWIDTH 9 0
BBX 7 7 1 2
BITMAP
18
38
40
C2
FE
38
20
ENDCHAR
STARTCHAR 0622
ENCODING 1570
SWIDTH 225 0
DWIDTH 5 0
BBX 3 15 1 3
BITMAP
E0
00
40
40
40
40
40
40
40
60
60
60
60
40
40
ENDCHAR
STARTCHAR 0623
ENCODING 1571
SWIDTH 225 0
DWIDTH 5 0
BBX 3 16 1 4
BITMAP
C0
E0
80
40
40
40
40
40
40
40
60
60
60
60
40
40
ENDCHAR
STARTCHAR 0624
ENCODING 1572
SWIDTH 450 0
DWIDTH 10 0
BBX 9 14 1 -2
BITMAP
0800
1800
1000
0000
0700
0580
0480
0780
0380
0100
0100
0200
8E00
7800
ENDCHAR
STARTCHAR 0625
ENCODING 1573
SWIDTH 225 0
DWIDTH 5 0
BBX 3 18 1 -2
BITMAP
40
40
40
40
40
40
40
60
60
60
60
40
40
00
00
C0
80
C0
ENDCHAR
STARTCHAR 0626
ENCODING 1574
SWIDTH 630 0
DWIDTH 14 0
BBX 12 13 1 -1
BITMAP
4000
C000
8070
00F0
4100
8100
8100
81F0
8010
8020
81E0
FFC0
7F00
ENDCHAR
STARTCHAR 0627
ENCODING 1575
SWIDTH 225 0
DWIDTH 5 0
BBX 2 13 2 3
BITMAP
80
80
80
80
80
80
80
C0
C0
C0
C0
80
80
ENDCHAR
STARTCHAR 0628
ENCODING 1576
SWIDTH 720 0
DWIDTH 16 0
BBX 15 11 1 -1
BITMAP
8004
8006
8002
8002
C002
FFFE
3FFE
0000
0000
0380
0100
ENDCHAR
STARTCHAR 0629
ENCODING 1577
SWIDTH 270 0
DWIDTH 6 0
BBX 6 11 0 3
BITMAP
18
D8
C0
00
00
30
3C
4C
44
7C
78
ENDCHAR
STARTCHAR 062A
ENCODING 1578
SWIDTH 720 0
DWIDTH 16 0
BBX 15 11 1 3
BITMAP
0080
0580
0600
0000
8004
8006
8002
8002
C002
FFFE
3FFE
ENDCHAR
STARTCHAR 062B
ENCODING 1579
SWIDTH 720 0
DWIDTH 16 0
BBX 15 13 1 3
BITMAP
0200
0600
0080
0580
0600
0000
8004
8006
8002
8002
C002
FFFE
3FFE
ENDCHAR
STARTCHAR 062C
ENCODING 1580
SWIDTH 585 0
DWIDTH 13 0
BBX 10 15 1 -5
BITMAP
3800
FFC0
CFC0
1800
2000
4000
8400
8600
8200
8000
8000
C000
7800
3FC0
0F00
ENDCHAR
STARTCHAR 062D
ENCODING 1581
SWIDTH 585 0
DWIDTH 13 0
BBX 10 15 1 -5
BITMAP
3800
FFC0
CFC0
1800
2000
4000
8000
8000
8000
8000
8000
C000
7800
3FC0
0F00
ENDCHAR
STARTCHAR 062E
ENCODING 1582
SWIDTH 585 0
DWIDTH 13 0
BBX 10 19 1 -5
BITMAP
0C00
0C00
0000
0000
3800
FFC0
CFC0
1800
2000
4000
8000
8000
8000
8000
8000
C000
7800
3FC0
0F00
ENDCHAR
STARTCHAR 062F
ENCODING 1583
SWIDTH 360 0
DWIDTH 8 0
BBX 6 9 1 3
BITMAP
10
18
0C
04
04
04
84
FC
7C
ENDCHAR
STARTCHAR 0630
ENCODING 1584
SWIDTH 360 0
DWIDTH 8 0
BBX 6 14 1 3
BITMAP
20
60
20
00
00
10
18
0C
04
04
04
84
FC
7C
ENDCHAR
STARTCHAR 0631
ENCODING 1585
SWIDTH 495 0
DWIDTH 11 0
BBX 10 11 1 -1
BITMAP
0080
00C0
00C0
0040
0040
0040
00C0
0180
0380
8F00
7C00
ENDCHAR
STARTCHAR 0632
ENCODING 1586
SWIDTH 495 0
DWIDTH 11 0
BBX 10 16 1 -2
BITMAP
0300
0300
0000
0000
0000
0080
00C0
00C0
0040
0040
0040
00C0
0180
0380
8F00
7C00
ENDCHAR
STARTCHAR 0633
ENCODING 1587
SWIDTH 810 0
DWIDTH 18 0
BBX 17 11 1 -2
BITMAP
004080
004480
806480
802280
803F80
803D80
802000
804000
C3C000
FF8000
1C0000
ENDCHAR
STARTCHAR 0634
ENCODING 1588
SWIDTH 810 0
DWIDTH 18 0
BBX 17 18 1 -2
BITMAP
000800
000C00
000200
000B00
001D00
000000
000000
004080
004480
806480
802280
803F80
803D80
802000
804000
C3C000
FF8000
1C0000
ENDCHAR
STARTCHAR 0635
ENCODING 1589
SWIDTH 1080 0
DWIDTH 24 0
BBX 23 11 1 -2
BITMAP
00403C
00407E
806186
802606
803FFE
803FFE
804000
804000
C3C000
FF8000
1C0000
ENDCHAR
STARTCHAR 0636
ENCODING 1590
SWIDTH 1080 0
DWIDTH 24 0
BBX 23 15 1 -2
BITMAP
000300
000300
000000
000000
00403C
00407E
806186
802606
803FFE
803FFE
804000
804000
C3C000
FF8000
1C0000
ENDCHAR
STARTCHAR 0637
ENCODING 1591
SWIDTH 585 0
DWIDTH 13 0
BBX 14 14 -1 4
BITMAP
0C00
0C00
0C00
0400
0400
0400
0400
0400
0478
05FC
070C
0C0C
FFFC
FFFC
ENDCHAR
STARTCHAR 0638
ENCODING 1592
SWIDTH 585 0
DWIDTH 13 0
BBX 14 14 -1 4
BITMAP
0C00
0C00
0C00
0460
0460
0400
0400
0400
0478
05FC
070C
0C0C
FFFC
FFFC
ENDCHAR
STARTCHAR 0639
ENCODING 1593
SWIDTH 540 0
DWIDTH 12 0
BBX 11 17 0 -5
BITMAP
1C00
7C00
4000
4040
6380
7F00
1C00
3000
6000
4000
8000
8000
C000
6000
7800
3FE0
0780
ENDCHAR
STARTCHAR 063A
ENCODING 1594
SWIDTH 540 0
DWIDTH 12 0
BBX 11 21 0 -5
BITMAP
1800
1800
0000
0000
1C00
7C00
4000
4040
6380
7F00
1C00
3000
6000
4000
8000
8000
C000
6000
7800
3FE0
0780
ENDCHAR
STARTCHAR 0640
ENCODING 1600
SWIDTH 225 0
DWIDTH 5 0
BBX 6 2 -1 3
BITMAP
FC
FC
ENDCHAR
STARTCHAR 0641
ENCODING 1601
SWIDTH 810 0
DWIDTH 18 0
BBX 18 12 0 3
BITMAP
000600
000600
000000
000000
000100
400380
800680
800680
C007C0
6001C0
7FFFC0
0FFFC0
ENDCHAR
STARTCHAR 0642
ENCODING 1602
SWIDTH 585 0
DWIDTH 13 0
BBX 12 17 1 -2
BITMAP
0040
03C0
0300
0000
0000
00C0
00E0
0130
8130
81F0
80D0
8010
8010
8030
E1E0
7FC0
1E00
ENDCHAR
STARTCHAR 0643
ENCODING 1603
SWIDTH 585 0
DWIDTH 13 0
BBX 13 14 0 3
BITMAP
0020
0038
0038
0090
0110
0210
0398
0088
4088
8F08
8008
4008
7FF8
3FF8
ENDCHAR
STARTCHAR 0644
ENCODING 1604
SWIDTH 495 0
DWIDTH 11 0
BBX 10 17 1 0
BITMAP
0080
00C0
00C0
0080
0080
00C0
0040
0040
4040
8040
8040
8040
8040
8040
C1C0
FF80
3E00
ENDCHAR
STARTCHAR 0645
ENCODING 1605
SWIDTH 360 0
DWIDTH 8 0
BBX 8 12 0 -5
BITMAP
18
3C
06
3F
7F
C0
80
80
40
40
40
40
ENDCHAR
STARTCHAR 0646
ENCODING 1606
SWIDTH 540 0
DWIDTH 12 0
BBX 11 14 1 -2
BITMAP
0E00
0400
0000
0040
0040
4060
8020
8020
8020
8020
8040
E3C0
7F80
1C00
ENDCHAR
STARTCHAR 0647
ENCODING 1607
SWIDTH 270 0
DWIDTH 6 0
BBX 5 6 1 4
BITMAP
60
70
98
88
F8
F0
ENDCHAR
STARTCHAR 0648
ENCODING 1608
SWIDTH 450 0
DWIDTH 10 0
BBX 9 10 1 -1
BITMAP
0700
0580
0480
0780
0380
0100
0100
0200
8E00
7800
ENDCHAR
STARTCHAR 0649
ENCODING 1609
SWIDTH 630 0
DWIDTH 14 0
BBX 12 11 1 -1
BITMAP
0070
00F0
4100
8100
8100
81F0
8010
8020
81E0
FFC0
7F00
ENDCHAR
STARTCHAR 064A
ENCODING 1610
SWIDTH 630 0
DWIDTH 14 0
BBX 12 14 1 -5
BITMAP
0070
00F0
4100
8100
8100
81F0
8010
8020
81E0
FFC0
7F00
0200
0B00
1D00
ENDCHAR
STARTCHAR 064B
ENCODING 1611
SWIDTH 180 0
DWIDTH 4 0
BBX 3 4 1 13
BITMAP
60
80
60
80
ENDCHAR
STARTCHAR 064C
ENCODING 1612
SWIDTH 225 0
DWIDTH 5 0
BBX 4 5 1 13
BITMAP
10
30
B0
B0
C0
ENDCHAR
STARTCHAR 064D
ENCODING 1613
SWIDTH 180 0
DWIDTH 4 0
BBX 3 4 1 -3
BITMAP
20
C0
60
80
ENDCHAR
STARTCHAR 064E
ENCODING 1614
SWIDTH 180 0
DWIDTH 4 0
BBX 3 2 1 15
BITMAP
20
C0
ENDCHAR
STARTCHAR 064F
ENCODING 1615
SWIDTH 225 0
DWIDTH 5 0
BBX 4 5 1 13
BITMAP
20
60
30
50
80
ENDCHAR
STARTCHAR 0650
ENCODING 1616
SWIDTH 180 0
DWIDTH 4 0
BBX 3 1 1 1
BITMAP
E0
ENDCHAR
STARTCHAR 0651
ENCODING 1617
SWIDTH 225 0
DWIDTH 5 0
BBX 4 4 1 13
BITMAP
10
50
E0
80
ENDCHAR
STARTCHAR 0652
ENCODING 1618
SWIDTH 180 0
DWIDTH 4 0
BBX 3 4 1 13
BITMAP
C0
A0
E0
80
ENDCHAR
STARTCHAR 0653
ENCODING 1619
SWIDTH 225 0
DWIDTH 5 0
BBX 3 2 1 15
BITMAP
80
60
ENDCHAR
STARTCHAR 0654
ENCODING 1620
SWIDTH 225 0
DWIDTH 5 0
BBX 3 3 1 17
BITMAP
C0
E0
80
ENDCHAR
STARTCHAR 0655
ENCODING 1621
SWIDTH 225 0
DWIDTH 5 0
BBX 3 3 1 -1
BITMAP
C0
E0
80
ENDCHAR
STARTCHAR 0660
ENCODING 1632
SWIDTH 540 0
DWIDTH 12 0
BBX 3 5 4 5
BITMAP
40
60
E0
E0
20
ENDCHAR
STARTCHAR 0661
ENCODING 1633
SWIDTH 540 0
DWIDTH 12 0
BBX 4 13 3 3
BITMAP
40
40
E0
60
30
30
10
10
10
10
10
10
10
ENDCHAR
STARTCHAR 0662
ENCODING 1634
SWIDTH 540 0
DWIDTH 12 0
BBX 7 13 2 3
BITMAP
82
C2
FE
7C
38
30
10
18
18
08
08
08
08
ENDCHAR
STARTCHAR 0663
ENCODING 1635
SWIDTH 540 0
DWIDTH 12 0
BBX 9 12 1 3
BITMAP
0400
4680
FF80
7B80
2000
3000
1000
1000
1800
0800
1000
1000
ENDCHAR
STARTCHAR 0664
ENCODING 1636
SWIDTH 540 0
DWIDTH 12 0
BBX 6 13 3 3
BITMAP
08
10
30
40
E0
F8
70
20
20
40
78
7C
38
ENDCHAR
STARTCHAR 0665
ENCODING 1637
SWIDTH 540 0
DWIDTH 12 0
BBX 8 8 2 5
BITMAP
18
3C
4E
83
81
81
E6
FC
ENDCHAR
STARTCHAR 0666
ENCODING 1638
SWIDTH 540 0
DWIDTH 12 0
BBX 7 11 2 4
BITMAP
FC
F8
F8
08
08
08
0C
0C
06
06
06
ENDCHAR
STARTCHAR 0667
ENCODING 1639
SWIDTH 540 0
DWIDTH 12 0
BBX 9 11 1 4
BITMAP
4080
4080
E180
7100
3200
1200
1C00
0C00
0C00
0C00
0800
ENDCHAR
STARTCHAR 0668
ENCODING 1640
SWIDTH 540 0
DWIDTH 12 0
BBX 8 11 2 4
BITMAP
10
10
28
28
2C
2C
46
47
C3
83
81
ENDCHAR
STARTCHAR 0669
ENCODING 1641
SWIDTH 540 0
DWIDTH 12 0
BBX 7 13 2 3
BITMAP
38
7C
4C
84
FC
7C
04
04
04
04
06
06
02
ENDCHAR
STARTCHAR 066A
ENCODING 1642
SWIDTH 540 0
DWIDTH 12 0
BBX 8 15 2 2
BITMAP
E1
E2
42
04
04
08
08
10
10
20
20
40
42
87
87
ENDCHAR
STARTCHAR 066B
ENCODING 1643
SWIDTH 315 0
DWIDTH 7 0
BBX 3 5 2 1
BITMAP
60
E0
60
60
40
ENDCHAR
STARTCHAR 066C
ENCODING 1644
SWIDTH 315 0
DWIDTH 7 0
BBX 3 6 2 4
BITMAP
40
80
80
E0
E0
60
ENDCHAR
STARTCHAR 066D
ENCODING 1645
SWIDTH 540 0
DWIDTH 12 0
BBX 7 7 2 10
BITMAP
54
74
28
F6
3C
54
10
ENDCHAR
STARTCHAR 066E
ENCODING 1646
SWIDTH 720 0
DWIDTH 16 0
BBX 15 7 1 3
BITMAP
8004
8006
8002
8002
C002
FFFE
3FFE
ENDCHAR
STARTCHAR 066F
ENCODING 1647
SWIDTH 585 0
DWIDTH 13 0
BBX 12 12 1 -2
BITMAP
00C0
00E0
0130
8130
81F0
80D0
8010
8010
8030
E1E0
7FC0
1E00
ENDCHAR
STARTCHAR 0670
ENCODING 1648
SWIDTH 0 0
DWIDTH 0 0
BBX 2 5 -1 13
BITMAP
80
80
80
40
80
ENDCHAR
STARTCHAR 0671
ENCODING 1649
SWIDTH 225 0
DWIDTH 5 0
BBX 5 17 0 3
BITMAP
10
68
F0
80
20
20
20
20
20
20
20
30
30
30
30
20
20
ENDCHAR
STARTCHAR 0672
ENCODING 1650
SWIDTH 225 0
DWIDTH 5 0
BBX 3 17 1 3
BITMAP
40
80
60
80
40
40
40
40
40
40
40
60
60
60
60
40
40
ENDCHAR
STARTCHAR 0673
ENCODING 1651
SWIDTH 225 0
DWIDTH 5 0
BBX 4 18 0 -2
BITMAP
20
20
20
20
20
20
20
30
30
30
30
20
20
00
00
30
20
F0
ENDCHAR
STARTCHAR 0674
ENCODING 1652
SWIDTH 225 0
DWIDTH 5 0
BBX 3 3 1 17
BITMAP
C0
E0
80
ENDCHAR
STARTCHAR 0675
ENCODING 1653
SWIDTH 225 0
DWIDTH 5 0
BBX 4 13 2 3
BITMAP
B0
A0
B0
80
80
80
80
C0
C0
C0
C0
80
80
ENDCHAR
STARTCHAR 0676
ENCODING 1654
SWIDTH 450 0
DWIDTH 10 0
BBX 10 15 1 -2
BITMAP
00C0
0080
00C0
0000
0000
0700
0580
0480
0780
0380
0100
0100
0200
8E00
7800
ENDCHAR
STARTCHAR 0677
ENCODING 1655
SWIDTH 450 0
DWIDTH 10 0
BBX 10 16 1 -2
BITMAP
0800
14C0
0880
0CC0
1000
0000
0700
0580
0480
0780
0380
0100
0100
0200
8E00
7800
ENDCHAR
STARTCHAR 0678
ENCODING 1656
SWIDTH 630 0
DWIDTH 14 0
BBX 13 16 1 -1
BITMAP
0008
0010
0018
0000
0000
0070
00F0
4100
8100
8100
81F0
8010
8020
81E0
FFC0
7F00
ENDCHAR
STARTCHAR 0679
ENCODING 1657
SWIDTH 720 0
DWIDTH 16 0
BBX 15 15 1 3
BITMAP
0600
0400
0200
0200
03C0
0440
0B80
0000
8004
8006
8002
8002
C002
FFFE
3FFE
ENDCHAR
STARTCHAR 067A
ENCODING 1658
SWIDTH 720 0
DWIDTH 16 0
BBX 15 14 1 3
BITMAP
0200
0300
0100
0100
0300
0000
0000
8004
8006
8002
8002
C002
FFFE
3FFE
ENDCHAR
STARTCHAR 067B
ENCODING 1659
SWIDTH 720 0
DWIDTH 16 0
BBX 15 14 1 -4
BITMAP
8004
8006
8002
8002
C002
FFFE
3FFE
0000
0000
0180
0100
0100
0180
0080
ENDCHAR
STARTCHAR 067C
ENCODING 1660
SWIDTH 720 0
DWIDTH 16 0
BBX 15 13 1 1
BITMAP
0080
0580
0600
0000
8004
8006
8002
8002
C002
FFFE
3FFE
0280
0380
ENDCHAR
STARTCHAR 067D
ENCODING 1661
SWIDTH 720 0
DWIDTH 16 0
BBX 15 13 1 4
BITMAP
05C0
0680
0300
0180
0080
0000
8004
8006
8002
8002
C002
FFFE
3FFE
ENDCHAR
STARTCHAR 067E
ENCODING 1662
SWIDTH 720 0
DWIDTH 16 0
BBX 15 14 1 -4
BITMAP
8004
8006
8002
8002
C002
FFFE
3FFE
0000
0000
00C0
0780
0200
01C0
0080
ENDCHAR
STARTCHAR 067F
ENCODING 1663
SWIDTH 720 0
DWIDTH 16 0
BBX 15 13 1 4
BITMAP
0580
0680
0080
07C0
0600
0000
8004
8006
8002
8002
C002
FFFE
3FFE
ENDCHAR
STARTCHAR 0680
ENCODING 1664
SWIDTH 720 0
DWIDTH 16 0
BBX 15 14 1 -5
BITMAP
8004
8006
8002
8002
C002
FFFE
3FFE
0000
0000
00C0
0680
0280
02C0
0740
ENDCHAR
STARTCHAR 0681
ENCODING 1665
SWIDTH 585 0
DWIDTH 13 0
BBX 10 20 1 -5
BITMAP
0600
0400
0600
0000
0000
3800
FFC0
CFC0
1800
2000
4000
8000
8000
8000
8000
8000
C000
7800
3FC0
0F00
ENDCHAR
STARTCHAR 0682
ENCODING 1666
SWIDTH 585 0
DWIDTH 13 0
BBX 10 22 1 -5
BITMAP
0800
0C00
0000
0C00
0C00
0000
0000
3800
FFC0
CFC0
1800
2000
4000
8000
8000
8000
8000
8000
C000
7800
3FC0
0F00
ENDCHAR
STARTCHAR 0683
ENCODING 1667
SWIDTH 585 0
DWIDTH 13 0
BBX 10 15 1 -5
BITMAP
3800
FFC0
CFC0
1800
2000
4000
8000
8300
9D00
8800
8000
C000
7800
3FC0
0F00
ENDCHAR
STARTCHAR 0684
ENCODING 1668
SWIDTH 585 0
DWIDTH 13 0
BBX 10 15 1 -5
BITMAP
3800
FFC0
CFC0
1800
2000
4000
8600
8400
8000
8600
8200
C000
7800
3FC0
0F00
ENDCHAR
STARTCHAR 0685
ENCODING 1669
SWIDTH 585 0
DWIDTH 13 0
BBX 10 22 1 -5
BITMAP
0800
0C00
0A00
0300
1800
0800
0000
3800
FFC0
CFC0
1800
2000
4000
8000
8000
8000
8000
8000
C000
7800
3FC0
0F00
ENDCHAR
STARTCHAR 0686
ENCODING 1670
SWIDTH 585 0
DWIDTH 13 0
BBX 10 15 1 -5
BITMAP
3800
FFC0
CFC0
1800
2000
4200
8B00
9D00
8200
8700
8000
C000
7800
3FC0
0F00
ENDCHAR
STARTCHAR 0687
ENCODING 1671
SWIDTH 585 0
DWIDTH 13 0
BBX 10 15 1 -5
BITMAP
3800
FFC0
CFC0
1800
2000
4300
8F00
8C00
8180
8F00
8400
C000
7800
3FC0
0F00
ENDCHAR
STARTCHAR 0688
ENCODING 1672
SWIDTH 360 0
DWIDTH 8 0
BBX 6 17 1 3
BITMAP
40
40
40
40
48
34
FC
00
10
18
0C
04
04
04
84
FC
7C
ENDCHAR
STARTCHAR 0689
ENCODING 1673
SWIDTH 360 0
DWIDTH 8 0
BBX 6 11 1 1
BITMAP
10
18
0C
04
04
04
84
FC
7C
28
38
ENDCHAR
STARTCHAR 068A
ENCODING 1674
SWIDTH 360 0
DWIDTH 8 0
BBX 6 13 1 -1
BITMAP
10
18
0C
04
04
04
84
FC
7C
00
00
18
10
ENDCHAR
STARTCHAR 068B
ENCODING 1675
SWIDTH 360 0
DWIDTH 8 0
BBX 6 21 1 -1
BITMAP
40
40
40
40
48
34
FC
00
10
18
0C
04
04
04
84
FC
7C
00
00
18
10
ENDCHAR
STARTCHAR 068C
ENCODING 1676
SWIDTH 360 0
DWIDTH 8 0
BBX 6 14 1 3
BITMAP
10
18
C0
40
00
10
18
0C
04
04
04
84
FC
7C
ENDCHAR
STARTCHAR 068D
ENCODING 1677
SWIDTH 360 0
DWIDTH 8 0
BBX 6 14 1 -2
BITMAP
10
18
0C
04
04
04
84
FC
7C
00
00
1C
68
20
ENDCHAR
STARTCHAR 068E
ENCODING 1678
SWIDTH 360 0
DWIDTH 8 0
BBX 6 16 1 3
BITMAP
40
60
30
58
E8
00
00
10
18
0C
04
04
04
84
FC
7C
ENDCHAR
STARTCHAR 068F
ENCODING 1679
SWIDTH 360 0
DWIDTH 8 0
BBX 6 16 1 3
BITMAP
10
B0
C0
20
30
10
00
10
18
0C
04
04
04
84
FC
7C
ENDCHAR
STARTCHAR 0690
ENCODING 1680
SWIDTH 360 0
DWIDTH 8 0
BBX 6 16 1 3
BITMAP
10
B8
C0
58
58
C0
00
10
18
0C
04
04
04
84
FC
7C
ENDCHAR
STARTCHAR 0691
ENCODING 1681
SWIDTH 495 0
DWIDTH 11 0
BBX 10 20 1 -2
BITMAP
0C00
0800
0400
0400
0780
0880
1700
0000
0000
0080
00C0
00C0
0040
0040
0040
00C0
0180
0380
8F00
7C00
ENDCHAR
STARTCHAR 0692
ENCODING 1682
SWIDTH 495 0
DWIDTH 11 0
BBX 10 16 1 -2
BITMAP
0500
0300
0000
0000
0000
0080
00C0
00C0
0040
0040
0040
00C0
0180
0380
8F00
7C00
ENDCHAR
STARTCHAR 0693
ENCODING 1683
SWIDTH 495 0
DWIDTH 11 0
BBX 10 12 1 -2
BITMAP
0080
00C0
00C0
0040
0040
0040
00C0
0180
0380
8FC0
7E40
0180
ENDCHAR
STARTCHAR 0694
ENCODING 1684
SWIDTH 495 0
DWIDTH 11 0
BBX 10 12 1 -2
BITMAP
0080
00C0
00C0
0040
0040
0040
00C0
0180
0380
8F00
7CC0
00C0
ENDCHAR
STARTCHAR 0695
ENCODING 1685
SWIDTH 495 0
DWIDTH 11 0
BBX 10 13 1 -3
BITMAP
0080
00C0
00C0
0040
0040
0040
00C0
0180
0380
8F00
7C00
0280
0180
ENDCHAR
STARTCHAR 0696
ENCODING 1686
SWIDTH 495 0
DWIDTH 11 0
BBX 10 12 1 -2
BITMAP
0080
00C0
00C0
0040
0040
1840
08C0
0180
0380
8F00
7CC0
00C0
ENDCHAR
STARTCHAR 0697
ENCODING 1687
SWIDTH 495 0
DWIDTH 11 0
BBX 10 16 1 -2
BITMAP
0100
0F00
0C00
0000
0000
0080
00C0
00C0
0040
0040
0040
00C0
0180
0380
8F00
7C00
ENDCHAR
STARTCHAR 0698
ENCODING 1688
SWIDTH 495 0
DWIDTH 11 0
BBX 10 18 1 -2
BITMAP
0600
0600
0180
0780
0600
0000
0000
0080
00C0
00C0
0040
0040
0040
00C0
0180
0380
8F00
7C00
ENDCHAR
STARTCHAR 0699
ENCODING 1689
SWIDTH 495 0
DWIDTH 11 0
BBX 10 19 1 -2
BITMAP
0200
0300
1800
0900
0F00
0C00
0000
0000
0080
00C0
00C0
0040
0040
0040
00C0
0180
0380
8F00
7C00
ENDCHAR
STARTCHAR 069A
ENCODING 1690
SWIDTH 810 0
DWIDTH 18 0
BBX 17 15 1 -2
BITMAP
000C00
000C00
000000
000000
004080
004480
806480
802280
803F80
803D80
802000
804000
C3C300
FF8300
1C0000
ENDCHAR
STARTCHAR 069B
ENCODING 1691
SWIDTH 810 0
DWIDTH 18 0
BBX 17 13 1 -4
BITMAP
004080
004480
806480
802280
803F80
803D80
802000
804100
C3C180
FF8E80
1C0400
000180
000100
ENDCHAR
STARTCHAR 069C
ENCODING 1692
SWIDTH 810 0
DWIDTH 18 0
BBX 17 20 1 -4
BITMAP
001000
001800
000600
001600
003000
000000
000000
004080
004480
806480
802280
803F80
803D80
802000
804100
C3C180
FF8E80
1C0400
000180
000100
ENDCHAR
STARTCHAR 069D
ENCODING 1693
SWIDTH 1080 0
DWIDTH 24 0
BBX 23 11 1 -2
BITMAP
00403C
00407E
806186
802606
803FFE
803FFE
804000
804000
C3C060
FF81A0
1C0100
ENDCHAR
STARTCHAR 069E
ENCODING 1694
SWIDTH 1080 0
DWIDTH 24 0
BBX 23 18 1 -2
BITMAP
000180
000180
000060
000160
000180
000000
000000
00403C
00407E
806186
802606
803FFE
803FFE
804000
804000
C3C000
FF8000
1C0000
ENDCHAR
STARTCHAR 069F
ENCODING 1695
SWIDTH 585 0
DWIDTH 13 0
BBX 14 14 -1 4
BITMAP
0C00
0C40
0CC0
0410
04F8
04C0
0400
0400
0478
05FC
070C
0C0C
FFFC
FFFC
ENDCHAR
STARTCHAR 06A0
ENCODING 1696
SWIDTH 540 0
DWIDTH 12 0
BBX 11 24 0 -5
BITMAP
2000
3000
1800
2C00
7400
0000
0000
1C00
7C00
4000
4040
6380
7F00
1C00
3000
6000
4000
8000
8000
C000
6000
7800
3FE0
0780
ENDCHAR
STARTCHAR 06A1
ENCODING 1697
SWIDTH 810 0
DWIDTH 18 0
BBX 18 8 0 3
BITMAP
000100
400380
800680
800680
C007C0
6001C0
7FFFC0
0FFFC0
ENDCHAR
STARTCHAR 06A2
ENCODING 1698
SWIDTH 810 0
DWIDTH 18 0
BBX 18 12 0 -1
BITMAP
000100
400380
800680
800680
C007C0
6001C0
7FFFC0
0FFFC0
000000
000000
000180
000100
ENDCHAR
STARTCHAR 06A3
ENCODING 1699
SWIDTH 810 0
DWIDTH 18 0
BBX 18 15 0 -1
BITMAP
000300
000300
000000
000100
400380
800680
800680
C007C0
6001C0
7FFFC0
0FFFC0
000000
000000
006000
004000
ENDCHAR
STARTCHAR 06A4
ENCODING 1700
SWIDTH 810 0
DWIDTH 18 0
BBX 18 14 0 3
BITMAP
000600
000600
000180
000580
000C00
000000
000100
400380
800680
800680
C007C0
6001C0
7FFFC0
0FFFC0
ENDCHAR
STARTCHAR 06A5
ENCODING 1701
SWIDTH 810 0
DWIDTH 18 0
BBX 18 15 0 -4
BITMAP
000100
400380
800680
800680
C007C0
6001C0
7FFFC0
0FFFC0
000000
000080
0000C0
000740
000200
0000C0
000080
ENDCHAR
STARTCHAR 06A6
ENCODING 1702
SWIDTH 810 0
DWIDTH 18 0
BBX 18 15 0 3
BITMAP
000100
000B80
000C00
000580
000580
000E00
000000
000100
400380
800680
800680
C007C0
6001C0
7FFFC0
0FFFC0
ENDCHAR
STARTCHAR 06A7
ENCODING 1703
SWIDTH 585 0
DWIDTH 13 0
BBX 12 16 1 -2
BITMAP
0080
0180
0000
0000
00C0
00E0
0130
8130
81F0
80D0
8010
8010
8030
E1E0
7FC0
1E00
ENDCHAR
STARTCHAR 06A8
ENCODING 1704
SWIDTH 585 0
DWIDTH 13 0
BBX 12 18 1 -2
BITMAP
0300
0300
00C0
02C0
0700
0000
00C0
00E0
0130
8130
81F0
80D0
8010
8010
8030
E1E0
7FC0
1E00
ENDCHAR
STARTCHAR 06A9
ENCODING 1705
SWIDTH 810 0
DWIDTH 18 0
BBX 18 13 0 3
BITMAP
000180
000780
001C00
003000
003000
003800
001C00
800700
800100
800080
C000C0
7FFFC0
3FFFC0
ENDCHAR
STARTCHAR 06AA
ENCODING 1706
SWIDTH 810 0
DWIDTH 18 0
BBX 18 12 0 3
BITMAP
006000
01E000
078000
0C0000
080000
1E0000
07F000
007F00
800380
C000C0
7FFFC0
3FFFC0
ENDCHAR
STARTCHAR 06AB
ENCODING 1707
SWIDTH 810 0
DWIDTH 18 0
BBX 18 13 0 3
BITMAP
000180
000780
001E80
003280
003100
003800
001C00
800700
800100
800080
C000C0
7FFFC0
3FFFC0
ENDCHAR
STARTCHAR 06AC
ENCODING 1708
SWIDTH 585 0
DWIDTH 13 0
BBX 13 14 0 3
BITMAP
0320
0338
0038
0090
0110
0210
0398
0088
4088
8F08
8008
4008
7FF8
3FF8
ENDCHAR
STARTCHAR 06AD
ENCODING 1709
SWIDTH 585 0
DWIDTH 13 0
BBX 13 16 0 4
BITMAP
0600
0700
01A0
0EB8
0438
0090
0110
0210
0398
0088
4088
8F08
8008
4008
7FF8
3FF8
ENDCHAR
STARTCHAR 06AE
ENCODING 1710
SWIDTH 585 0
DWIDTH 13 0
BBX 13 21 0 -4
BITMAP
0020
0038
0038
0090
0110
0210
0398
0088
4088
8F08
8008
4008
7FF8
3FF8
0000
0000
01C0
0680
0700
0180
0080
ENDCHAR
STARTCHAR 06AF
ENCODING 1711
SWIDTH 810 0
DWIDTH 18 0
BBX 18 16 0 3
BITMAP
000180
000780
000E00
003180
002780
001C00
003000
003000
003800
001C00
800700
800100
800080
C000C0
7FFFC0
3FFFC0
ENDCHAR
STARTCHAR 06B0
ENCODING 1712
SWIDTH 810 0
DWIDTH 18 0
BBX 18 16 0 3
BITMAP
000180
000780
000E00
003180
002780
001E80
003280
003100
003800
001C00
800700
800100
800080
C000C0
7FFFC0
3FFFC0
ENDCHAR
STARTCHAR 06B1
ENCODING 1713
SWIDTH 810 0
DWIDTH 18 0
BBX 18 17 0 3
BITMAP
000400
003580
001780
000E00
003180
002780
001C00
003000
003000
003800
001C00
800700
800100
800080
C000C0
7FFFC0
3FFFC0
ENDCHAR
STARTCHAR 06B2
ENCODING 1714
SWIDTH 810 0
DWIDTH 18 0
BBX 18 21 0 -2
BITMAP
000180
000780
000E00
003180
002780
001C00
003000
003000
003800
001C00
800700
800100
800080
C000C0
7FFFC0
3FFFC0
000000
000000
003000
00D000
008000
ENDCHAR
STARTCHAR 06B3
ENCODING 1715
SWIDTH 810 0
DWIDTH 18 0
BBX 18 23 0 -4
BITMAP
000180
000780
000E00
003180
002780
001C00
003000
003000
003800
001C00
800700
800100
800080
C000C0
7FFFC0
3FFFC0
000000
000000
006000
004000
004000
006000
002000
ENDCHAR
STARTCHAR 06B4
ENCODING 1716
SWIDTH 810 0
DWIDTH 18 0
BBX 18 17 0 3
BITMAP
001000
001D80
003780
000E00
003180
002780
001C00
003000
003000
003800
001C00
800700
800100
800080
C000C0
7FFFC0
3FFFC0
ENDCHAR
STARTCHAR 06B5
ENCODING 1717
SWIDTH 495 0
DWIDTH 11 0
BBX 10 20 1 0
BITMAP
0240
0180
0000
0080
00C0
00C0
0080
0080
00C0
0040
0040
4040
8040
8040
8040
8040
8040
C1C0
FF80
3E00
ENDCHAR
STARTCHAR 06B6
ENCODING 1718
SWIDTH 495 0
DWIDTH 11 0
BBX 10 19 1 1
BITMAP
01C0
0080
0080
00C0
00C0
0080
0080
00C0
0040
0040
4040
8040
8040
8040
8040
8040
C1C0
FF80
3E00
ENDCHAR
STARTCHAR 06B7
ENCODING 1719
SWIDTH 495 0
DWIDTH 11 0
BBX 10 20 1 0
BITMAP
0100
01C0
0200
0080
00C0
00C0
0080
0080
00C0
0040
0040
4040
8040
8040
8040
8040
8040
C1C0
FF80
3E00
ENDCHAR
STARTCHAR 06B8
ENCODING 1720
SWIDTH 495 0
DWIDTH 11 0
BBX 10 21 1 -5
BITMAP
0080
00C0
00C0
0080
0080
00C0
0040
0040
4040
8040
8040
8040
8040
8040
C1C0
FF80
3E00
0000
1600
3800
0600
ENDCHAR
STARTCHAR 06B9
ENCODING 1721
SWIDTH 540 0
DWIDTH 12 0
BBX 11 16 1 -5
BITMAP
0E00
0400
0000
0040
0040
4060
8020
8020
8020
8020
8040
E3C0
7F80
1C00
0400
0E00
ENDCHAR
STARTCHAR 06BA
ENCODING 1722
SWIDTH 540 0
DWIDTH 12 0
BBX 11 11 1 -2
BITMAP
0040
0040
4060
8020
8020
8020
8020
8040
E3C0
7F80
1C00
ENDCHAR
STARTCHAR 06BB
ENCODING 1723
SWIDTH 540 0
DWIDTH 12 0
BBX 11 19 1 -1
BITMAP
0800
0800
0800
0800
0780
3F80
0000
0000
0040
0040
4060
8020
8020
8020
8020
8040
E3C0
7F80
1C00
ENDCHAR
STARTCHAR 06BC
ENCODING 1724
SWIDTH 540 0
DWIDTH 12 0
BBX 11 16 1 -4
BITMAP
0E00
0400
0000
0040
0040
4060
8020
8020
8020
8020
8040
E3C0
7F80
1C00
1400
0C00
ENDCHAR
STARTCHAR 06BD
ENCODING 1725
SWIDTH 540 0
DWIDTH 12 0
BBX 11 18 1 -2
BITMAP
1800
1800
0200
1E00
1800
0000
0000
0040
0040
4060
8020
8020
8020
8020
8040
E3C0
7F80
1C00
ENDCHAR
STARTCHAR 06BE
ENCODING 1726
SWIDTH 450 0
DWIDTH 10 0
BBX 9 9 -1 3
BITMAP
0800
0C00
0E00
1F00
2380
3780
1C80
FF80
E380
ENDCHAR
STARTCHAR 06BF
ENCODING 1727
SWIDTH 585 0
DWIDTH 13 0
BBX 10 19 1 -5
BITMAP
0C00
0C00
0000
0000
3800
FFC0
CFC0
1800
2000
4200
8B00
9D00
8200
8700
8000
C000
7800
3FC0
0F00
ENDCHAR
STARTCHAR 06C0
ENCODING 1728
SWIDTH 270 0
DWIDTH 6 0
BBX 5 11 1 3
BITMAP
20
40
60
00
00
60
70
98
88
F8
F0
ENDCHAR
STARTCHAR 06C1
ENCODING 1729
SWIDTH 405 0
DWIDTH 9 0
BBX 9 5 0 2
BITMAP
1C00
3E00
2780
4180
8000
ENDCHAR
STARTCHAR 06C2
ENCODING 1730
SWIDTH 405 0
DWIDTH 9 0
BBX 9 10 0 2
BITMAP
0800
1000
1800
0000
0000
1C00
3E00
2780
4180
8000
ENDCHAR
STARTCHAR 06C3
ENCODING 1731
SWIDTH 405 0
DWIDTH 9 0
BBX 9 10 0 2
BITMAP
0C00
3C00
2000
0000
0000
1C00
3E00
2780
4180
8000
ENDCHAR
STARTCHAR 06C4
ENCODING 1732
SWIDTH 450 0
DWIDTH 10 0
BBX 9 10 1 -1
BITMAP
0700
0580
0480
0780
0380
0100
1D00
1600
9E00
7800
ENDCHAR
STARTCHAR 06C5
ENCODING 1733
SWIDTH 450 0
DWIDTH 10 0
BBX 9 10 1 -1
BITMAP
0700
0580
0480
0780
0380
1900
0700
0200
8E00
7800
ENDCHAR
STARTCHAR 06C6
ENCODING 1734
SWIDTH 450 0
DWIDTH 10 0
BBX 9 15 1 -2
BITMAP
0500
0300
0000
0000
0000
0700
0580
0480
0780
0380
0100
0100
0200
8E00
7800
ENDCHAR
STARTCHAR 06C7
ENCODING 1735
SWIDTH 450 0
DWIDTH 10 0
BBX 9 17 1 -2
BITMAP
0100
0300
0300
0300
0400
0000
0000
0700
0580
0480
0780
0380
0100
0100
0200
8E00
7800
ENDCHAR
STARTCHAR 06C8
ENCODING 1736
SWIDTH 450 0
DWIDTH 10 0
BBX 9 18 1 -2
BITMAP
0400
0200
0200
0200
0200
0200
0000
0000
0700
0580
0480
0780
0380
0100
0100
0200
8E00
7800
ENDCHAR
STARTCHAR 06C9
ENCODING 1737
SWIDTH 450 0
DWIDTH 10 0
BBX 9 15 1 -2
BITMAP
0200
0300
0480
0000
0000
0700
0580
0480
0780
0380
0100
0100
0200
8E00
7800
ENDCHAR
STARTCHAR 06CA
ENCODING 1738
SWIDTH 450 0
DWIDTH 10 0
BBX 9 15 1 -1
BITMAP
0B00
0D00
0000
0000
0000
0700
0580
0480
0780
0380
0100
0100
0200
8E00
7800
ENDCHAR
STARTCHAR 06CB
ENCODING 1739
SWIDTH 450 0
DWIDTH 10 0
BBX 9 17 1 -1
BITMAP
0C00
0500
0B00
0C00
0000
0000
0000
0700
0580
0480
0780
0380
0100
0100
0200
8E00
7800
ENDCHAR
STARTCHAR 06CC
ENCODING 1740
SWIDTH 630 0
DWIDTH 14 0
BBX 12 11 1 -1
BITMAP
0070
00F0
4100
8100
8100
81F0
8010
8020
81E0
FFC0
7F00
ENDCHAR
STARTCHAR 06CD
ENCODING 1741
SWIDTH 630 0
DWIDTH 14 0
BBX 13 11 0 -1
BITMAP
0038
0078
2080
C080
4080
40F8
8008
4010
40F0
7FE0
3F80
ENDCHAR
STARTCHAR 06CE
ENCODING 1742
SWIDTH 630 0
DWIDTH 14 0
BBX 12 13 1 -1
BITMAP
1000
1400
0870
00F0
4100
8100
8100
81F0
8010
8020
81E0
FFC0
7F00
ENDCHAR
STARTCHAR 06CF
ENCODING 1743
SWIDTH 450 0
DWIDTH 10 0
BBX 9 15 1 -2
BITMAP
0400
0E00
0000
0000
0000
0700
0580
0480
0780
0380
0100
0100
0200
8E00
7800
ENDCHAR
STARTCHAR 06D0
ENCODING 1744
SWIDTH 630 0
DWIDTH 14 0
BBX 12 14 1 -4
BITMAP
0070
00F0
4100
8100
8100
81F0
8010
8020
81E0
FFC0
7F00
0000
0800
0400
ENDCHAR
STARTCHAR 06D1
ENCODING 1745
SWIDTH 630 0
DWIDTH 14 0
BBX 12 14 1 -4
BITMAP
0070
00F0
4100
8100
8100
81F0
8010
8020
81E0
FFC0
7F00
0000
0A00
0400
ENDCHAR
STARTCHAR 06D2
ENCODING 1746
SWIDTH 810 0
DWIDTH 18 0
BBX 16 9 1 -1
BITMAP
0180
0380
0480
1800
7000
C000
8000
FFFF
FFFC
ENDCHAR
STARTCHAR 06D3
ENCODING 1747
SWIDTH 810 0
DWIDTH 18 0
BBX 16 12 1 -1
BITMAP
0C00
1000
0C00
0180
0380
0480
1800
7000
C000
8000
FFFF
FFFC
ENDCHAR
STARTCHAR 06D4
ENCODING 1748
SWIDTH 225 0
DWIDTH 5 0
BBX 4 2 0 3
BITMAP
F0
F0
ENDCHAR
STARTCHAR 06D5
ENCODING 1749
SWIDTH 270 0
DWIDTH 6 0
BBX 5 6 1 4
BITMAP
60
70
98
88
F8
F0
ENDCHAR
STARTCHAR 06D6
ENCODING 1750
SWIDTH 0 0
DWIDTH 0 0
BBX 10 7 -5 13
BITMAP
1000
2000
10C0
1940
7FC0
8000
FE00
ENDCHAR
STARTCHAR 06D7
ENCODING 1751
SWIDTH 0 0
DWIDTH 0 0
BBX 8 7 -4 13
BITMAP
14
16
16
12
3E
C0
FF
ENDCHAR
STARTCHAR 06D8
ENCODING 1752
SWIDTH 0 0
DWIDTH 0 0
BBX 4 2 -2 12
BITMAP
30
F0
ENDCHAR
STARTCHAR 06D9
ENCODING 1753
SWIDTH 0 0
DWIDTH 0 0
BBX 4 6 -2 12
BITMAP
90
90
50
30
20
70
ENDCHAR
STARTCHAR 06DA
ENCODING 1754
SWIDTH 0 0
DWIDTH 0 0
BBX 5 6 -3 12
BITMAP
78
40
80
90
80
78
ENDCHAR
STARTCHAR 06DB
ENCODING 1755
SWIDTH 0 0
DWIDTH 0 0
BBX 2 2 -1 12
BITMAP
80
C0
ENDCHAR
STARTCHAR 06DC
ENCODING 1756
SWIDTH 0 0
DWIDTH 0 0
BBX 8 5 -4 12
BITMAP
08
89
87
88
F8
ENDCHAR
STARTCHAR 06DD
ENCODING 1757
SWIDTH 1125 0
DWIDTH 25 0
BBX 23 24 1 -4
BITMAP
007C00
03FF80
1E00E0
1BFFB0
340058
200008
400004
400004
800002
800002
800002
800002
800002
800002
800002
800002
C00006
400004
60000C
300018
1C0070
13FFA0
0F01E0
01FE00
ENDCHAR
STARTCHAR 06DE
ENCODING 1758
SWIDTH 1080 0
DWIDTH 24 0
BBX 22 22 1 -2
BITMAP
003000
004800
008400
1FFFE0
120120
1400A0
180060
100020
300030
507828
904824
904824
507828
300030
100020
180060
1400A0
120120
1FFFE0
008400
004800
003000
ENDCHAR
STARTCHAR 06DF
ENCODING 1759
SWIDTH 0 0
DWIDTH 0 0
BBX 2 1 -1 12
BITMAP
C0
ENDCHAR
STARTCHAR 06E0
ENCODING 1760
SWIDTH 0 0
DWIDTH 0 0
BBX 2 1 -1 12
BITMAP
C0
ENDCHAR
STARTCHAR 06E1
ENCODING 1761
SWIDTH 0 0
DWIDTH 0 0
BBX 4 3 -2 12
BITMAP
40
60
F0
ENDCHAR
STARTCHAR 06E2
ENCODING 1762
SWIDTH 0 0
DWIDTH 0 0
BBX 4 4 -2 13
BITMAP
60
70
80
80
ENDCHAR
STARTCHAR 06E3
ENCODING 1763
SWIDTH 0 0
DWIDTH 0 0
BBX 8 5 -4 -4
BITMAP
09
8B
87
88
F0
ENDCHAR
STARTCHAR 06E4
ENCODING 1764
SWIDTH 0 0
DWIDTH 0 0
BBX 0 0 -1 11
BITMAP
ENDCHAR
STARTCHAR 06E5
ENCODING 1765
SWIDTH 180 0
DWIDTH 4 0
BBX 3 4 1 12
BITMAP
60
20
20
E0
ENDCHAR
STARTCHAR 06E6
ENCODING 1766
SWIDTH 360 0
DWIDTH 8 0
BBX 8 4 0 12
BITMAP
10
20
40
FF
ENDCHAR
STARTCHAR 06E7
ENCODING 1767
SWIDTH 0 0
DWIDTH 0 0
BBX 8 4 -4 12
BITMAP
10
20
40
FF
ENDCHAR
STARTCHAR 06E8
ENCODING 1768
SWIDTH 0 0
DWIDTH 0 0
BBX 6 6 -3 12
BITMAP
30
00
04
84
84
F8
ENDCHAR
STARTCHAR 06E9
ENCODING 1769
SWIDTH 585 0
DWIDTH 13 0
BBX 11 18 1 0
BITMAP
0400
0A00
1500
2A80
5F40
B1A0
B1A0
5B40
3B40
3B80
3B80
3B80
3B80
3B80
3B80
3540
5F40
FFE0
ENDCHAR
STARTCHAR 06EA
ENCODING 1770
SWIDTH 0 0
DWIDTH 0 0
BBX 3 2 -2 -3
BITMAP
E0
60
ENDCHAR
STARTCHAR 06EB
ENCODING 1771
SWIDTH 0 0
DWIDTH 0 0
BBX 4 3 -2 12
BITMAP
60
90
60
ENDCHAR
STARTCHAR 06EC
ENCODING 1772
SWIDTH 0 0
DWIDTH 0 0
BBX 2 1 -1 12
BITMAP
C0
ENDCHAR
STARTCHAR 06ED
ENCODING 1773
SWIDTH 0 0
DWIDTH 0 0
BBX 4 5 -2 -4
BITMAP
60
30
C0
80
80
ENDCHAR
STARTCHAR 06F0
ENCODING 1776
SWIDTH 540 0
DWIDTH 12 0
BBX 3 5 4 5
BITMAP
40
60
E0
E0
20
ENDCHAR
STARTCHAR 06F1
ENCODING 1777
SWIDTH 540 0
DWIDTH 12 0
BBX 4 13 3 3
BITMAP
40
40
E0
60
30
30
10
10
10
10
10
10
10
ENDCHAR
STARTCHAR 06F2
ENCODING 1778
SWIDTH 540 0
DWIDTH 12 0
BBX 7 13 2 3
BITMAP
82
C2
FE
7C
38
30
10
18
18
08
08
08
08
ENDCHAR
STARTCHAR 06F3
ENCODING 1779
SWIDTH 540 0
DWIDTH 12 0
BBX 9 12 1 3
BITMAP
0400
4680
FF80
7B80
2000
3000
1000
1000
1800
0800
1000
1000
ENDCHAR
STARTCHAR 06F4
ENCODING 1780
SWIDTH 540 0
DWIDTH 12 0
BBX 8 12 2 3
BITMAP
8E
98
D0
E1
7E
7C
20
30
30
30
10
20
ENDCHAR
STARTCHAR 06F5
ENCODING 1781
SWIDTH 540 0
DWIDTH 12 0
BBX 8 12 2 4
BITMAP
10
18
18
0C
3E
46
42
81
81
81
FE
FE
ENDCHAR
STARTCHAR 06F6
ENCODING 1782
SWIDTH 540 0
DWIDTH 12 0
BBX 8 12 2 3
BITMAP
18
3C
40
41
FE
FE
18
10
30
20
20
40
ENDCHAR
STARTCHAR 06F7
ENCODING 1783
SWIDTH 540 0
DWIDTH 12 0
BBX 9 11 1 4
BITMAP
4080
4080
E180
7100
3200
1200
1C00
0C00
0C00
0C00
0800
ENDCHAR
STARTCHAR 06F8
ENCODING 1784
SWIDTH 540 0
DWIDTH 12 0
BBX 8 11 2 4
BITMAP
10
10
28
28
2C
2C
46
47
C3
83
81
ENDCHAR
STARTCHAR 06F9
ENCODING 1785
SWIDTH 540 0
DWIDTH 12 0
BBX 7 13 2 3
BITMAP
38
7C
4C
84
FC
7C
04
04
04
04
06
06
02
ENDCHAR
STARTCHAR 06FA
ENCODING 1786
SWIDTH 810 0
DWIDTH 18 0
BBX 17 18 1 -2
BITMAP
001000
001800
000600
001600
003000
000000
000000
004080
004480
806480
802280
803F80
803D80
802000
804000
C3C300
FF8300
1C0000
ENDCHAR
STARTCHAR 06FB
ENCODING 1787
SWIDTH 1080 0
DWIDTH 24 0
BBX 23 15 1 -2
BITMAP
000300
000300
000000
000000
00403C
00407E
806186
802606
803FFE
803FFE
804000
804000
C3C0C0
FF80C0
1C0000
ENDCHAR
STARTCHAR 06FC
ENCODING 1788
SWIDTH 540 0
DWIDTH 12 0
BBX 11 21 0 -5
BITMAP
1800
1800
0000
0000
1C00
7C00
4000
4040
6380
7F00
1C00
3000
6000
4000
8380
8100
C000
6000
7800
3FE0
0780
ENDCHAR
STARTCHAR 06FD
ENCODING 1789
SWIDTH 405 0
DWIDTH 9 0
BBX 7 12 1 -3
BITMAP
18
38
40
C2
FE
38
20
00
28
28
28
28
ENDCHAR
STARTCHAR 06FE
ENCODING 1790
SWIDTH 360 0
DWIDTH 8 0
BBX 8 12 0 -5
BITMAP
18
3C
06
3F
7F
C0
80
94
54
54
54
40
ENDCHAR
STARTCHAR 1E80
ENCODING 7808
SWIDTH 945 0
DWIDTH 21 0
BBX 21 20 0 0
BITMAP
00E000
006000
003000
000000
E07038
607030
605030
60D830
60D830
30D860
318C60
318C60
318C40
1904C0
1B06C0
1B06C0
0B0680
0A0380
0E0380
0E0300
ENDCHAR
STARTCHAR 1E81
ENCODING 7809
SWIDTH 720 0
DWIDTH 16 0
BBX 16 16 0 0
BITMAP
0700
0300
0180
0000
C183
C183
63C6
63C6
63C6
224C
366C
366C
1668
1C38
1C38
1C30
ENDCHAR
STARTCHAR 1E82
ENCODING 7810
SWIDTH 945 0
DWIDTH 21 0
BBX 21 20 0 0
BITMAP
001800
003000
003000
000000
E07038
607030
605030
60D830
60D830
30D860
318C60
318C60
318C40
1904C0
1B06C0
1B06C0
0B0680
0A0380
0E0380
0E0300
ENDCHAR
STARTCHAR 1E83
ENCODING 7811
SWIDTH 720 0
DWIDTH 16 0
BBX 16 16 0 0
BITMAP
00C0
0180
0100
0000
C183
C183
63C6
63C6
63C6
224C
366C
366C
1668
1C38
1C38
1C30
ENDCHAR
STARTCHAR 1E84
ENCODING 7812
SWIDTH 945 0
DWIDTH 21 0
BBX 21 19 0 0
BITMAP
019800
019800
000000
E07038
607030
605030
60D830
60D830
30D860
318C60
318C60
318C40
1904C0
1B06C0
1B06C0
0B0680
0A0380
0E0380
0E0300
ENDCHAR
STARTCHAR 1E85
ENCODING 7813
SWIDTH 720 0
DWIDTH 16 0
BBX 16 16 0 0
BITMAP
0660
0660
0000
0000
C183
C183
63C6
63C6
63C6
224C
366C
366C
1668
1C38
1C38
1C30
ENDCHAR
STARTCHAR 1EA0
ENCODING 7840
SWIDTH 675 0
DWIDTH 15 0
BBX 15 20 0 -4
BITMAP
0300
0380
0780
06C0
0CC0
0CE0
0C60
1860
1830
3FF0
3FF8
3018
6018
601C
600C
C00E
0000
0300
0300
0300
ENDCHAR
STARTCHAR 1EA1
ENCODING 7841
SWIDTH 540 0
DWIDTH 12 0
BBX 10 16 1 -4
BITMAP
1E00
7F80
61C0
C0C0
00C0
1FC0
7EC0
E0C0
C0C0
C1C0
E3C0
7EC0
0000
0C00
0C00
0C00
ENDCHAR
STARTCHAR 1EA2
ENCODING 7842
SWIDTH 675 0
DWIDTH 15 0
BBX 15 20 0 0
BITMAP
0780
00C0
0180
0100
0300
0380
0780
06C0
0CC0
0CE0
0C60
1860
1830
3FF0
3FF8
3018
6018
601C
600C
C00E
ENDCHAR
STARTCHAR 1EA3
ENCODING 7843
SWIDTH 540 0
DWIDTH 12 0
BBX 10 17 1 0
BITMAP
1E00
0300
0300
0400
0000
1E00
7F80
61C0
C0C0
00C0
1FC0
7EC0
E0C0
C0C0
C1C0
E3C0
7EC0
ENDCHAR
STARTCHAR 1EA4
ENCODING 7844
SWIDTH 675 0
DWIDTH 15 0
BBX 15 20 0 0
BITMAP
0180
0300
0380
0CC0
0300
0380
0780
06C0
0CC0
0CE0
0C60
1860
1830
3FF0
3FF8
3018
6018
601C
600C
C00E
ENDCHAR
STARTCHAR 1EA5
ENCODING 7845
SWIDTH 540 0
DWIDTH 12 0
BBX 10 20 1 0
BITMAP
0700
0600
0C00
0000
0C00
1E00
3300
0000
1E00
7F80
61C0
C0C0
00C0
1FC0
7EC0
E0C0
C0C0
C1C0
E3C0
7EC0
ENDCHAR
STARTCHAR 1EA6
ENCODING 7846
SWIDTH 675 0
DWIDTH 15 0
BBX 15 20 0 0
BITMAP
0600
0300
0380
0CC0
0300
0380
0780
06C0
0CC0
0CE0
0C60
1860
1830
3FF0
3FF8
3018
6018
601C
600C
C00E
ENDCHAR
STARTCHAR 1EA7
ENCODING 7847
SWIDTH 540 0
DWIDTH 12 0
BBX 10 20 1 0
BITMAP
3800
1800
0C00
0000
0C00
1E00
3300
0000
1E00
7F80
61C0
C0C0
00C0
1FC0
7EC0
E0C0
C0C0
C1C0
E3C0
7EC0
ENDCHAR
STARTCHAR 1EA8
ENCODING 7848
SWIDTH 675 0
DWIDTH 15 0
BBX 15 20 0 0
BITMAP
0780
0180
0380
0CC0
0300
0380
0780
06C0
0CC0
0CE0
0C60
1860
1830
3FF0
3FF8
3018
6018
601C
600C
C00E
ENDCHAR
STARTCHAR 1EA9
ENCODING 7849
SWIDTH 540 0
DWIDTH 12 0
BBX 10 20 1 0
BITMAP
1E00
0300
0E00
0C00
0C00
1E00
3300
0000
1E00
7F80
61C0
C0C0
00C0
1FC0
7EC0
E0C0
C0C0
C1C0
E3C0
7EC0
ENDCHAR
STARTCHAR 1EAA
ENCODING 7850
SWIDTH 675 0
DWIDTH 15 0
BBX 15 20 0 0
BITMAP
0E20
09C0
0380
0CC0
0300
0380
0780
06C0
0CC0
0CE0
0C60
1860
1830
3FF0
3FF8
3018
6018
601C
600C
C00E
ENDCHAR
STARTCHAR 1EAB
ENCODING 7851
SWIDTH 540 0
DWIDTH 12 0
BBX 10 19 1 0
BITMAP
3D80
2700
4000
0C00
1E00
3300
0000
1E00
7F80
61C0
C0C0
00C0
1FC0
7EC0
E0C0
C0C0
C1C0
E3C0
7EC0
ENDCHAR
STARTCHAR 1EAC
ENCODING 7852
SWIDTH 675 0
DWIDTH 15 0
BBX 15 22 0 -4
BITMAP
0380
0CC0
0300
0380
0780
06C0
0CC0
0CE0
0C60
1860
1830
3FF0
3FF8
3018
6018
601C
600C
C00E
0000
0300
0300
0300
ENDCHAR
STARTCHAR 1EAD
ENCODING 7853
SWIDTH 540 0
DWIDTH 12 0
BBX 10 20 1 -4
BITMAP
0C00
1E00
3300
0000
1E00
7F80
61C0
C0C0
00C0
1FC0
7EC0
E0C0
C0C0
C1C0
E3C0
7EC0
0000
0C00
0C00
0C00
ENDCHAR
STARTCHAR 1EAE
ENCODING 7854
SWIDTH 675 0
DWIDTH 15 0
BBX 15 20 0 0
BITMAP
0180
0300
0840
0780
0300
0380
0780
06C0
0CC0
0CE0
0C60
1860
1830
3FF0
3FF8
3018
6018
601C
600C
C00E
ENDCHAR
STARTCHAR 1EAF
ENCODING 7855
SWIDTH 540 0
DWIDTH 12 0
BBX 10 20 1 0
BITMAP
0700
0600
0C00
0000
3180
1B00
0E00
0000
1E00
7F80
61C0
C0C0
00C0
1FC0
7EC0
E0C0
C0C0
C1C0
E3C0
7EC0
ENDCHAR
STARTCHAR 1EB0
ENCODING 7856
SWIDTH 675 0
DWIDTH 15 0
BBX 15 20 0 0
BITMAP
0600
0300
0840
0780
0300
0380
0780
06C0
0CC0
0CE0
0C60
1860
1830
3FF0
3FF8
3018
6018
601C
600C
C00E
ENDCHAR
STARTCHAR 1EB1
ENCODING 7857
SWIDTH 540 0
DWIDTH 12 0
BBX 10 20 1 0
BITMAP
1800
0C00
0C00
0000
3180
1B00
0E00
0000
1E00
7F80
61C0
C0C0
00C0
1FC0
7EC0
E0C0
C0C0
C1C0
E3C0
7EC0
ENDCHAR
STARTCHAR 1EB2
ENCODING 7858
SWIDTH 675 0
DWIDTH 15 0
BBX 15 20 0 0
BITMAP
0780
0180
0840
0780
0300
0380
0780
06C0
0CC0
0CE0
0C60
1860
1830
3FF0
3FF8
3018
6018
601C
600C
C00E
ENDCHAR
STARTCHAR 1EB3
ENCODING 7859
SWIDTH 540 0
DWIDTH 12 0
BBX 10 20 1 0
BITMAP
1E00
0300
0700
0400
3180
1B00
0E00
0000
1E00
7F80
61C0
C0C0
00C0
1FC0
7EC0
E0C0
C0C0
C1C0
E3C0
7EC0
ENDCHAR
STARTCHAR 1EB4
ENCODING 7860
SWIDTH 675 0
DWIDTH 15 0
BBX 15 20 0 0
BITMAP
0720
09E0
0840
0780
0300
0380
0780
06C0
0CC0
0CE0
0C60
1860
1830
3FF0
3FF8
3018
6018
601C
600C
C00E
ENDCHAR
STARTCHAR 1EB5
ENCODING 7861
SWIDTH 540 0
DWIDTH 12 0
BBX 10 19 1 0
BITMAP
3D80
3780
0000
3180
1B00
0E00
0000
1E00
7F80
61C0
C0C0
00C0
1FC0
7EC0
E0C0
C0C0
C1C0
E3C0
7EC0
ENDCHAR
STARTCHAR 1EB6
ENCODING 7862
SWIDTH 675 0
DWIDTH 15 0
BBX 15 22 0 -4
BITMAP
0840
0780
0300
0380
0780
06C0
0CC0
0CE0
0C60
1860
1830
3FF0
3FF8
3018
6018
601C
600C
C00E
0000
0300
0300
0300
ENDCHAR
STARTCHAR 1EB7
ENCODING 7863
SWIDTH 540 0
DWIDTH 12 0
BBX 10 20 1 -4
BITMAP
3180
1B00
0E00
0000
1E00
7F80
61C0
C0C0
00C0
1FC0
7EC0
E0C0
C0C0
C1C0
E3C0
7EC0
0000
0C00
0C00
0C00
ENDCHAR
STARTCHAR 1EB8
ENCODING 7864
SWIDTH 675 0
DWIDTH 15 0
BBX 12 20 2 -4
BITMAP
FFE0
FFE0
C000
C000
C000
C000
C000
FFE0
FFE0
C000
C000
C000
C000
C000
FFF0
FFF0
0000
0600
0600
0600
ENDCHAR
STARTCHAR 1EB9
ENCODING 7865
SWIDTH 540 0
DWIDTH 12 0
BBX 10 16 1 -4
BITMAP
1E00
3F80
61C0
C0C0
C0C0
FFC0
FFC0
C000
C0C0
E0C0
7380
3F00
0000
0C00
0C00
0C00
ENDCHAR
STARTCHAR 1EBA
ENCODING 7866
SWIDTH 675 0
DWIDTH 15 0
BBX 12 20 2 0
BITMAP
0E00
0300
0700
0400
FFE0
FFE0
C000
C000
C000
C000
C000
FFE0
FFE0
C000
C000
C000
C000
C000
FFF0
FFF0
ENDCHAR
STARTCHAR 1EBB
ENCODING 7867
SWIDTH 540 0
DWIDTH 12 0
BBX 10 17 1 0
BITMAP
1E00
0700
0300
0400
0000
1E00
3F80
61C0
C0C0
C0C0
FFC0
FFC0
C000
C0C0
E0C0
7380
3F00
ENDCHAR
STARTCHAR 1EBC
ENCODING 7868
SWIDTH 675 0
DWIDTH 15 0
BBX 12 20 2 0
BITMAP
0880
3F80
3300
0000
FFE0
FFE0
C000
C000
C000
C000
C000
FFE0
FFE0
C000
C000
C000
C000
C000
FFF0
FFF0
ENDCHAR
STARTCHAR 1EBD
ENCODING 7869
SWIDTH 540 0
DWIDTH 12 0
BBX 10 16 1 0
BITMAP
1980
3F80
2300
0000
1E00
3F80
61C0
C0C0
C0C0
FFC0
FFC0
C000
C0C0
E0C0
7380
3F00
ENDCHAR
STARTCHAR 1EBE
ENCODING 7870
SWIDTH 675 0
DWIDTH 15 0
BBX 12 20 2 0
BITMAP
0300
0400
0E00
3180
FFE0
FFE0
C000
C000
C000
C000
C000
FFE0
FFE0
C000
C000
C000
C000
C000
FFF0
FFF0
ENDCHAR
STARTCHAR 1EBF
ENCODING 7871
SWIDTH 540 0
DWIDTH 12 0
BBX 10 20 1 0
BITMAP
0700
0600
0C00
0000
0C00
1E00
3300
0000
1E00
3F80
61C0
C0C0
C0C0
FFC0
FFC0
C000
C0C0
E0C0
7380
3F00
ENDCHAR
STARTCHAR 1EC0
ENCODING 7872
SWIDTH 675 0
DWIDTH 15 0
BBX 12 20 2 0
BITMAP
1800
0400
0E00
3180
FFE0
FFE0
C000
C000
C000
C000
C000
FFE0
FFE0
C000
C000
C000
C000
C000
FFF0
FFF0
ENDCHAR
STARTCHAR 1EC1
ENCODING 7873
SWIDTH 540 0
DWIDTH 12 0
BBX 10 20 1 0
BITMAP
3800
1800
0C00
0000
0C00
1E00
3300
0000
1E00
3F80
61C0
C0C0
C0C0
FFC0
FFC0
C000
C0C0
E0C0
7380
3F00
ENDCHAR
STARTCHAR 1EC2
ENCODING 7874
SWIDTH 675 0
DWIDTH 15 0
BBX 12 20 2 0
BITMAP
1E00
0300
0E00
3180
FFE0
FFE0
C000
C000
C000
C000
C000
FFE0
FFE0
C000
C000
C000
C000
C000
FFF0
FFF0
ENDCHAR
STARTCHAR 1EC3
ENCODING 7875
SWIDTH 540 0
DWIDTH 12 0
BBX 10 20 1 0
BITMAP
1E00
0300
0E00
0C00
0C00
1E00
3300
0000
1E00
3F80
61C0
C0C0
C0C0
FFC0
FFC0
C000
C0C0
E0C0
7380
3F00
ENDCHAR
STARTCHAR 1EC4
ENCODING 7876
SWIDTH 675 0
DWIDTH 15 0
BBX 12 20 2 0
BITMAP
1C80
2780
0E00
3180
FFE0
FFE0
C000
C000
C000
C000
C000
FFE0
FFE0
C000
C000
C000
C000
C000
FFF0
FFF0
ENDCHAR
STARTCHAR 1EC5
ENCODING 7877
SWIDTH 540 0
DWIDTH 12 0
BBX 10 19 1 0
BITMAP
3D80
2700
4000
0C00
1E00
3300
0000
1E00
3F80
61C0
C0C0
C0C0
FFC0
FFC0
C000
C0C0
E0C0
7380
3F00
ENDCHAR
STARTCHAR 1EC6
ENCODING 7878
SWIDTH 675 0
DWIDTH 15 0
BBX 12 22 2 -4
BITMAP
0E00
3180
FFE0
FFE0
C000
C000
C000
C000
C000
FFE0
FFE0
C000
C000
C000
C000
C000
FFF0
FFF0
0000
0600
0600
0600
ENDCHAR
STARTCHAR 1EC7
ENCODING 7879
SWIDTH 540 0
DWIDTH 12 0
BBX 10 20 1 -4
BITMAP
0C00
1E00
3300
0000
1E00
3F80
61C0
C0C0
C0C0
FFC0
FFC0
C000
C0C0
E0C0
7380
3F00
0000
0C00
0C00
0C00
ENDCHAR
STARTCHAR 1EC8
ENCODING 7880
SWIDTH 270 0
DWIDTH 6 0
BBX 5 20 1 0
BITMAP
F0
18
30
20
60
60
60
60
60
60
60
60
60
60
60
60
60
60
60
60
ENDCHAR
STARTCHAR 1EC9
ENCODING 7881
SWIDTH 225 0
DWIDTH 5 0
BBX 5 17 0 0
BITMAP
F0
18
18
20
00
60
60
60
60
60
60
60
60
60
60
60
60
ENDCHAR
STARTCHAR 1ECA
ENCODING 7882
SWIDTH 270 0
DWIDTH 6 0
BBX 2 20 2 -4
BITMAP
C0
C0
C0
C0
C0
C0
C0
C0
C0
C0
C0
C0
C0
C0
C0
C0
00
C0
C0
C0
ENDCHAR
STARTCHAR 1ECB
ENCODING 7883
SWIDTH 225 0
DWIDTH 5 0
BBX 3 20 1 -4
BITMAP
C0
C0
00
00
C0
C0
C0
C0
C0
C0
C0
C0
C0
C0
C0
C0
00
E0
E0
E0
ENDCHAR
STARTCHAR 1ECC
ENCODING 7884
SWIDTH 765 0
DWIDTH 17 0
BBX 15 20 1 -4
BITMAP
0FE0
1FF8
381C
700C
600E
E006
C006
C006
C006
C006
E006
600E
700C
381C
1FF8
0FE0
0000
0380
0380
0380
ENDCHAR
STARTCHAR 1ECD
ENCODING 7885
SWIDTH 540 0
DWIDTH 12 0
BBX 11 16 1 -4
BITMAP
1E00
3F80
61C0
C0C0
C0C0
C0E0
C060
C0C0
C0C0
E0C0
7380
3F00
0000
0C00
0C00
0C00
ENDCHAR
STARTCHAR 1ECE
ENCODING 7886
SWIDTH 765 0
DWIDTH 17 0
BBX 15 20 1 0
BITMAP
0380
00C0
01C0
0100
0FE0
1FF8
381C
700C
600E
E006
C006
C006
C006
C006
E006
600E
700C
381C
1FF8
0FE0
ENDCHAR
STARTCHAR 1ECF
ENCODING 7887
SWIDTH 540 0
DWIDTH 12 0
BBX 11 17 1 0
BITMAP
1E00
0700
0300
0400
0000
1E00
3F80
61C0
C0C0
C0C0
C0E0
C060
C0C0
C0C0
E0C0
7380
3F00
ENDCHAR
STARTCHAR 1ED0
ENCODING 7888
SWIDTH 765 0
DWIDTH 17 0
BBX 15 20 1 0
BITMAP
00C0
0180
0380
0C60
0FE0
1FF8
381C
700C
600E
E006
C006
C006
C006
C006
E006
600E
700C
381C
1FF8
0FE0
ENDCHAR
STARTCHAR 1ED1
ENCODING 7889
SWIDTH 540 0
DWIDTH 12 0
BBX 11 20 1 0
BITMAP
0700
0600
0C00
0000
0E00
1E00
3300
0000
1E00
3F80
61C0
C0C0
C0C0
C0E0
C060
C0C0
C0C0
E0C0
7380
3F00
ENDCHAR
STARTCHAR 1ED2
ENCODING 7890
SWIDTH 765 0
DWIDTH 17 0
BBX 15 20 1 0
BITMAP
0700
0100
0380
0C60
0FE0
1FF8
381C
700C
600E
E006
C006
C006
C006
C006
E006
600E
700C
381C
1FF8
0FE0
ENDCHAR
STARTCHAR 1ED3
ENCODING 7891
SWIDTH 540 0
DWIDTH 12 0
BBX 11 20 1 0
BITMAP
3800
1800
0C00
0000
0E00
1E00
3300
0000
1E00
3F80
61C0
C0C0
C0C0
C0E0
C060
C0C0
C0C0
E0C0
7380
3F00
ENDCHAR
STARTCHAR 1ED4
ENCODING 7892
SWIDTH 765 0
DWIDTH 17 0
BBX 15 20 1 0
BITMAP
03C0
00C0
0380
0C60
0FE0
1FF8
381C
700C
600E
E006
C006
C006
C006
C006
E006
600E
700C
381C
1FF8
0FE0
ENDCHAR
STARTCHAR 1ED5
ENCODING 7893
SWIDTH 540 0
DWIDTH 12 0
BBX 11 20 1 0
BITMAP
1E00
0300
0E00
0C00
0E00
1E00
3300
0000
1E00
3F80
61C0
C0C0
C0C0
C0E0
C060
C0C0
C0C0
E0C0
7380
3F00
ENDCHAR
STARTCHAR 1ED6
ENCODING 7894
SWIDTH 765 0
DWIDTH 17 0
BBX 15 20 1 0
BITMAP
0720
08E0
0380
0C60
0FE0
1FF8
381C
700C
600E
E006
C006
C006
C006
C006
E006
600E
700C
381C
1FF8
0FE0
ENDCHAR
STARTCHAR 1ED7
ENCODING 7895
SWIDTH 540 0
DWIDTH 12 0
BBX 11 19 1 0
BITMAP
3D80
2700
4000
0E00
1E00
3300
0000
1E00
3F80
61C0
C0C0
C0C0
C0E0
C060
C0C0
C0C0
E0C0
7380
3F00
ENDCHAR
STARTCHAR 1ED8
ENCODING 7896
SWIDTH 765 0
DWIDTH 17 0
BBX 15 22 1 -4
BITMAP
0380
0C60
0FE0
1FF8
381C
700C
600E
E006
C006
C006
C006
C006
E006
600E
700C
381C
1FF8
0FE0
0000
0380
0380
0380
ENDCHAR
STARTCHAR 1ED9
ENCODING 7897
SWIDTH 540 0
DWIDTH 12 0
BBX 11 20 1 -4
BITMAP
0E00
1E00
3300
0000
1E00
3F80
61C0
C0C0
C0C0
C0E0
C060
C0C0
C0C0
E0C0
7380
3F00
0000
0C00
0C00
0C00
ENDCHAR
STARTCHAR 1EDA
ENCODING 7898
SWIDTH 855 0
DWIDTH 19 0
BBX 18 20 1 0
BITMAP
00C000
018000
010000
000000
0FE1C0
1FF1C0
381880
700C80
600F80
E00600
C00600
C00600
C00600
C00600
E00600
600E00
700C00
381C00
1FF800
0FE000
ENDCHAR
STARTCHAR 1EDB
ENCODING 7899
SWIDTH 675 0
DWIDTH 15 0
BBX 13 16 1 0
BITMAP
0700
0600
0C00
0000
1E18
3F98
61C8
C0C8
C0D0
C0E0
C060
C0C0
C0C0
E0C0
7380
3F00
ENDCHAR
STARTCHAR 1EDC
ENCODING 7900
SWIDTH 855 0
DWIDTH 19 0
BBX 18 20 1 0
BITMAP
070000
030000
018000
000000
0FE1C0
1FF1C0
381880
700C80
600F80
E00600
C00600
C00600
C00600
C00600
E00600
600E00
700C00
381C00
1FF800
0FE000
ENDCHAR
STARTCHAR 1EDD
ENCODING 7901
SWIDTH 675 0
DWIDTH 15 0
BBX 13 16 1 0
BITMAP
1800
0C00
0C00
0000
1E18
3F98
61C8
C0C8
C0D0
C0E0
C060
C0C0
C0C0
E0C0
7380
3F00
ENDCHAR
STARTCHAR 1EDE
ENCODING 7902
SWIDTH 855 0
DWIDTH 19 0
BBX 18 20 1 0
BITMAP
03C000
00C000
01C000
000000
0FE1C0
1FF1C0
381880
700C80
600F80
E00600
C00600
C00600
C00600
C00600
E00600
600E00
700C00
381C00
1FF800
0FE000
ENDCHAR
STARTCHAR 1EDF
ENCODING 7903
SWIDTH 675 0
DWIDTH 15 0
BBX 13 17 1 0
BITMAP
1E00
0700
0300
0400
0000
1E18
3F98
61C8
C0C8
C0D0
C0E0
C060
C0C0
C0C0
E0C0
7380
3F00
ENDCHAR
STARTCHAR 1EE0
ENCODING 7904
SWIDTH 855 0
DWIDTH 19 0
BBX 18 19 1 0
BITMAP
07E000
0DE000
000000
0FE1C0
1FF1C0
381880
700C80
600F80
E00600
C00600
C00600
C00600
C00600
E00600
600E00
700C00
381C00
1FF800
0FE000
ENDCHAR
STARTCHAR 1EE1
ENCODING 7905
SWIDTH 675 0
DWIDTH 15 0
BBX 13 16 1 0
BITMAP
1980
3F80
2300
4000
1E18
3F98
61C8
C0C8
C0D0
C0E0
C060
C0C0
C0C0
E0C0
7380
3F00
ENDCHAR
STARTCHAR 1EE2
ENCODING 7906
SWIDTH 855 0
DWIDTH 19 0
BBX 18 20 1 -4
BITMAP
0FE1C0
1FF1C0
381880
700C80
600F80
E00600
C00600
C00600
C00600
C00600
E00600
600E00
700C00
381C00
1FF800
0FE000
000000
038000
038000
038000
ENDCHAR
STARTCHAR 1EE3
ENCODING 7907
SWIDTH 675 0
DWIDTH 15 0
BBX 13 16 1 -4
BITMAP
1E18
3F98
61C8
C0C8
C0D0
C0E0
C060
C0C0
C0C0
E0C0
7380
3F00
0000
0C00
0C00
0C00
ENDCHAR
STARTCHAR 1EE4
ENCODING 7908
SWIDTH 720 0
DWIDTH 16 0
BBX 12 20 2 -4
BITMAP
C030
C030
C030
C030
C030
C030
C030
C030
C030
C030
C030
C030
C030
E070
7FE0
3FC0
0000
0600
0600
0600
ENDCHAR
STARTCHAR 1EE5
ENCODING 7909
SWIDTH 540 0
DWIDTH 12 0
BBX 10 16 1 -4
BITMAP
C0C0
C0C0
C0C0
C0C0
C0C0
C0C0
C0C0
C0C0
C0C0
61C0
73C0
3EC0
0000
0C00
0C00
0C00
ENDCHAR
STARTCHAR 1EE6
ENCODING 7910
SWIDTH 720 0
DWIDTH 16 0
BBX 12 20 2 0
BITMAP
0E00
0300
0700
0400
C030
C030
C030
C030
C030
C030
C030
C030
C030
C030
C030
C030
C030
E070
7FE0
3FC0
ENDCHAR
STARTCHAR 1EE7
ENCODING 7911
SWIDTH 540 0
DWIDTH 12 0
BBX 10 17 1 0
BITMAP
1C00
0700
0300
0C00
0000
C0C0
C0C0
C0C0
C0C0
C0C0
C0C0
C0C0
C0C0
C0C0
61C0
73C0
3EC0
ENDCHAR
STARTCHAR 1EE8
ENCODING 7912
SWIDTH 855 0
DWIDTH 19 0
BBX 16 20 2 0
BITMAP
0300
0700
0600
0000
C033
C033
C031
C031
C033
C03E
C030
C030
C030
C030
C030
C030
C030
E070
7FE0
3FC0
ENDCHAR
STARTCHAR 1EE9
ENCODING 7913
SWIDTH 675 0
DWIDTH 15 0
BBX 13 16 1 0
BITMAP
0700
0600
0C00
0000
C0D8
C0D8
C0D8
C0C8
C0C8
C0D0
C0E0
C0C0
C0C0
61C0
73C0
3EC0
ENDCHAR
STARTCHAR 1EEA
ENCODING 7914
SWIDTH 855 0
DWIDTH 19 0
BBX 16 20 2 0
BITMAP
0C00
0C00
0600
0000
C033
C033
C031
C031
C033
C03E
C030
C030
C030
C030
C030
C030
C030
E070
7FE0
3FC0
ENDCHAR
STARTCHAR 1EEB
ENCODING 7915
SWIDTH 675 0
DWIDTH 15 0
BBX 13 16 1 0
BITMAP
1800
0C00
0C00
0000
C0D8
C0D8
C0D8
C0C8
C0C8
C0D0
C0E0
C0C0
C0C0
61C0
73C0
3EC0
ENDCHAR
STARTCHAR 1EEC
ENCODING 7916
SWIDTH 855 0
DWIDTH 19 0
BBX 16 20 2 0
BITMAP
0E00
0300
0700
0400
C033
C033
C031
C031
C033
C03E
C030
C030
C030
C030
C030
C030
C030
E070
7FE0
3FC0
ENDCHAR
STARTCHAR 1EED
ENCODING 7917
SWIDTH 675 0
DWIDTH 15 0
BBX 13 17 1 0
BITMAP
1C00
0700
0300
0C00
0000
C0D8
C0D8
C0D8
C0C8
C0C8
C0D0
C0E0
C0C0
C0C0
61C0
73C0
3EC0
ENDCHAR
STARTCHAR 1EEE
ENCODING 7918
SWIDTH 855 0
DWIDTH 19 0
BBX 16 19 2 0
BITMAP
1EC0
1380
0000
C033
C033
C031
C031
C033
C03E
C030
C030
C030
C030
C030
C030
C030
E070
7FE0
3FC0
ENDCHAR
STARTCHAR 1EEF
ENCODING 7919
SWIDTH 675 0
DWIDTH 15 0
BBX 13 16 1 0
BITMAP
1980
3F80
2300
0000
C0D8
C0D8
C0D8
C0C8
C0C8
C0D0
C0E0
C0C0
C0C0
61C0
73C0
3EC0
ENDCHAR
STARTCHAR 1EF0
ENCODING 7920
SWIDTH 855 0
DWIDTH 19 0
BBX 16 20 2 -4
BITMAP
C033
C033
C031
C031
C033
C03E
C030
C030
C030
C030
C030
C030
C030
E070
7FE0
3FC0
0000
0600
0600
0600
ENDCHAR
STARTCHAR 1EF1
ENCODING 7921
SWIDTH 675 0
DWIDTH 15 0
BBX 13 16 1 -4
BITMAP
C0D8
C0D8
C0D8
C0C8
C0C8
C0D0
C0E0
C0C0
C0C0
61C0
73C0
3EC0
0000
0C00
0C00
0C00
ENDCHAR
STARTCHAR 1EF2
ENCODING 7922
SWIDTH 675 0
DWIDTH 15 0
BBX 14 20 0 0
BITMAP
0600
0300
0100
0000
E00C
701C
3018
3830
1870
0C60
0EC0
07C0
0380
0300
0300
0300
0300
0300
0300
0300
ENDCHAR
STARTCHAR 1EF3
ENCODING 7923
SWIDTH 495 0
DWIDTH 11 0
BBX 11 21 0 -5
BITMAP
1C00
0C00
0600
0000
C060
6060
60C0
70C0
3180
3180
1980
1B00
1B00
0F00
0E00
0600
0400
0C00
1C00
7800
3000
ENDCHAR
STARTCHAR 1EF4
ENCODING 7924
SWIDTH 675 0
DWIDTH 15 0
BBX 14 20 0 -4
BITMAP
E00C
701C
3018
3830
1870
0C60
0EC0
07C0
0380
0300
0300
0300
0300
0300
0300
0300
0000
0300
0300
0300
ENDCHAR
STARTCHAR 1EF5
ENCODING 7925
SWIDTH 495 0
DWIDTH 11 0
BBX 11 17 0 -5
BITMAP
C060
6060
60C0
70C0
3180
3180
1980
1B00
1B00
0F00
0E00
0600
0400
0DC0
1DC0
79C0
3000
ENDCHAR
STARTCHAR 1EF6
ENCODING 7926
SWIDTH 675 0
DWIDTH 15 0
BBX 14 20 0 0
BITMAP
0780
00C0
01C0
0100
E00C
701C
3018
3830
1870
0C60
0EC0
07C0
0380
0300
0300
0300
0300
0300
0300
0300
ENDCHAR
STARTCHAR 1EF7
ENCODING 7927
SWIDTH 495 0
DWIDTH 11 0
BBX 11 22 0 -5
BITMAP
0E00
0300
0300
0400
0000
C060
6060
60C0
70C0
3180
3180
1980
1B00
1B00
0F00
0E00
0600
0400
0C00
1C00
7800
3000
ENDCHAR
STARTCHAR 1EF8
ENCODING 7928
SWIDTH 675 0
DWIDTH 15 0
BBX 14 19 0 0
BITMAP
0FE0
0DE0
0000
E00C
701C
3018
3830
1870
0C60
0EC0
07C0
0380
0300
0300
0300
0300
0300
0300
0300
ENDCHAR
STARTCHAR 1EF9
ENCODING 7929
SWIDTH 495 0
DWIDTH 11 0
BBX 11 21 0 -5
BITMAP
1880
3F80
3300
0000
C060
6060
60C0
70C0
3180
3180
1980
1B00
1B00
0F00
0E00
0600
0400
0C00
1C00
7800
3000
ENDCHAR
STARTCHAR 200C
ENCODING 8204
SWIDTH 0 0
DWIDTH 0 0
BBX 1 15 -1 -2
BITMAP
80
80
80
80
80
80
80
80
80
80
80
80
80
80
80
ENDCHAR
STARTCHAR 200D
ENCODING 8205
SWIDTH 0 0
DWIDTH 0 0
BBX 4 17 -2 -3
BITMAP
90
60
60
D0
40
40
40
40
40
40
40
40
40
40
40
40
40
ENDCHAR
STARTCHAR 200E
ENCODING 8206
SWIDTH 0 0
DWIDTH 0 0
BBX 4 17 0 -3
BITMAP
20
10
F0
A0
80
80
80
80
80
80
80
80
80
80
80
80
80
ENDCHAR
STARTCHAR 200F
ENCODING 8207
SWIDTH 0 0
DWIDTH 0 0
BBX 4 17 -4 -3
BITMAP
40
80
F0
50
10
10
10
10
10
10
10
10
10
10
10
10
10
ENDCHAR
STARTCHAR 2013
ENCODING 8211
SWIDTH 540 0
DWIDTH 12 0
BBX 12 2 0 5
BITMAP
FFF0
FFF0
ENDCHAR
STARTCHAR 2014
ENCODING 8212
SWIDTH 990 0
DWIDTH 22 0
BBX 22 2 0 5
BITMAP
FFFFFC
FFFFFC
ENDCHAR
STARTCHAR 2015
ENCODING 8213
SWIDTH 990 0
DWIDTH 22 0
BBX 21 2 1 5
BITMAP
FFFFF8
FFFFF8
ENDCHAR
STARTCHAR 2017
ENCODING 8215
SWIDTH 540 0
DWIDTH 12 0
BBX 13 4 0 -7
BITMAP
FFF8
0000
0000
FFF8
ENDCHAR
STARTCHAR 2018
ENCODING 8216
SWIDTH 225 0
DWIDTH 5 0
BBX 3 5 1 11
BITMAP
60
40
80
C0
C0
ENDCHAR
STARTCHAR 2019
ENCODING 8217
SWIDTH 225 0
DWIDTH 5 0
BBX 2 5 1 11
BITMAP
C0
C0
40
40
C0
ENDCHAR
STARTCHAR 201A
ENCODING 8218
SWIDTH 225 0
DWIDTH 5 0
BBX 2 5 1 -3
BITMAP
C0
C0
40
40
80
ENDCHAR
STARTCHAR 201B
ENCODING 8219
SWIDTH 225 0
DWIDTH 5 0
BBX 3 5 1 11
BITMAP
E0
E0
40
40
60
ENDCHAR
STARTCHAR 201C
ENCODING 8220
SWIDTH 315 0
DWIDTH 7 0
BBX 5 5 1 11
BITMAP
48
98
90
D8
D8
ENDCHAR
STARTCHAR 201D
ENCODING 8221
SWIDTH 315 0
DWIDTH 7 0
BBX 5 5 1 11
BITMAP
D8
D8
48
48
98
ENDCHAR
STARTCHAR 201E
ENCODING 8222
SWIDTH 315 0
DWIDTH 7 0
BBX 5 5 1 -3
BITMAP
D8
D8
48
48
90
ENDCHAR
STARTCHAR 2020
ENCODING 8224
SWIDTH 540 0
DWIDTH 12 0
BBX 10 20 1 -4
BITMAP
0C00
0C00
0C00
0C00
0C00
FFC0
FFC0
0C00
0C00
0C00
0C00
0C00
0C00
0C00
0C00
0C00
0C00
0C00
0C00
0C00
ENDCHAR
STARTCHAR 2021
ENCODING 8225
SWIDTH 540 0
DWIDTH 12 0
BBX 10 20 1 -4
BITMAP
0C00
0C00
0C00
0C00
FFC0
FFC0
0C00
0C00
0C00
0C00
0C00
0C00
0C00
0C00
FFC0
FFC0
0C00
0C00
0C00
0C00
ENDCHAR
STARTCHAR 2022
ENCODING 8226
SWIDTH 360 0
DWIDTH 8 0
BBX 6 5 1 6
BITMAP
78
FC
FC
F8
70
ENDCHAR
STARTCHAR 2026
ENCODING 8230
SWIDTH 990 0
DWIDTH 22 0
BBX 17 2 3 0
BITMAP
C18380
C18380
ENDCHAR
STARTCHAR 202A
ENCODING 8234
SWIDTH 0 0
DWIDTH 0 0
BBX 4 15 0 -3
BITMAP
F0
80
80
80
80
80
80
80
80
80
80
80
80
80
80
ENDCHAR
STARTCHAR 202B
ENCODING 8235
SWIDTH 0 0
DWIDTH 0 0
BBX 4 15 -4 -3
BITMAP
F0
10
10
10
10
10
10
10
10
10
10
10
10
10
10
ENDCHAR
STARTCHAR 202C
ENCODING 8236
SWIDTH 0 0
DWIDTH 0 0
BBX 6 17 -3 -3
BITMAP
FC
FC
FC
FC
20
20
20
20
20
20
20
20
20
20
20
20
20
ENDCHAR
STARTCHAR 202D
ENCODING 8237
SWIDTH 0 0
DWIDTH 0 0
BBX 5 17 -3 -3
BITMAP
F8
80
80
80
78
20
20
20
20
20
20
20
20
20
20
20
20
ENDCHAR
STARTCHAR 202E
ENCODING 8238
SWIDTH 0 0
DWIDTH 0 0
BBX 5 17 -2 -3
BITMAP
F8
08
08
08
F0
40
40
40
40
40
40
40
40
40
40
40
40
ENDCHAR
STARTCHAR 2030
ENCODING 8240
SWIDTH 990 0
DWIDTH 22 0
BBX 22 17 0 -1
BITMAP
382000
6C6000
444000
C64000
C6C000
468000
658000
7D0000
013870
037CF8
02C48C
06C48C
04C48C
04C48C
0C44CC
087CF8
081030
ENDCHAR
STARTCHAR 2032
ENCODING 8242
SWIDTH 180 0
DWIDTH 4 0
BBX 3 6 1 10
BITMAP
60
60
60
C0
C0
C0
ENDCHAR
STARTCHAR 2033
ENCODING 8243
SWIDTH 360 0
DWIDTH 8 0
BBX 6 6 1 10
BITMAP
6C
6C
6C
CC
C8
D8
ENDCHAR
STARTCHAR 2039
ENCODING 8249
SWIDTH 315 0
DWIDTH 7 0
BBX 5 10 1 1
BITMAP
18
10
30
60
60
C0
60
20
30
18
ENDCHAR
STARTCHAR 203A
ENCODING 8250
SWIDTH 315 0
DWIDTH 7 0
BBX 5 10 1 1
BITMAP
C0
40
60
30
30
18
30
20
60
C0
ENDCHAR
STARTCHAR 203C
ENCODING 8252
SWIDTH 495 0
DWIDTH 11 0
BBX 7 16 2 0
BITMAP
C6
C6
C6
C6
C6
C6
C6
C6
C6
C6
C6
C6
00
00
C6
C6
ENDCHAR
STARTCHAR 203E
ENCODING 8254
SWIDTH 315 0
DWIDTH 7 0
BBX 8 2 0 13
BITMAP
FF
FF
ENDCHAR
STARTCHAR 2044
ENCODING 8260
SWIDTH 180 0
DWIDTH 4 0
BBX 13 17 -5 -1
BITMAP
0008
0018
0030
0060
0040
00C0
0180
0100
0300
0600
0C00
0800
1800
3000
2000
6000
C000
ENDCHAR
STARTCHAR 206A
ENCODING 8298
SWIDTH 0 0
DWIDTH 0 0
BBX 4 17 -2 -3
BITMAP
F0
40
40
40
F0
40
40
40
40
40
40
40
40
40
40
40
40
ENDCHAR
STARTCHAR 206B
ENCODING 8299
SWIDTH 0 0
DWIDTH 0 0
BBX 6 17 -3 -3
BITMAP
FC
84
84
84
78
20
20
20
20
20
20
20
20
20
20
20
20
ENDCHAR
STARTCHAR 206C
ENCODING 8300
SWIDTH 0 0
DWIDTH 0 0
BBX 4 17 -2 -3
BITMAP
F0
F0
60
40
40
40
40
40
40
40
40
40
40
40
40
40
40
ENDCHAR
STARTCHAR 206D
ENCODING 8301
SWIDTH 0 0
DWIDTH 0 0
BBX 4 17 -2 -3
BITMAP
40
60
F0
F0
40
40
40
40
40
40
40
40
40
40
40
40
40
ENDCHAR
STARTCHAR 206E
ENCODING 8302
SWIDTH 0 0
DWIDTH 0 0
BBX 4 17 -2 -3
BITMAP
60
90
90
60
40
40
40
40
40
40
40
40
40
40
40
40
40
ENDCHAR
STARTCHAR 206F
ENCODING 8303
SWIDTH 0 0
DWIDTH 0 0
BBX 4 17 -2 -3
BITMAP
C0
40
40
40
F0
40
40
40
40
40
40
40
40
40
40
40
40
ENDCHAR
STARTCHAR 207F
ENCODING 8319
SWIDTH 360 0
DWIDTH 8 0
BBX 6 7 1 6
BITMAP
B8
CC
C4
84
84
84
84
ENDCHAR
STARTCHAR 20A3
ENCODING 8355
SWIDTH 540 0
DWIDTH 12 0
BBX 11 16 0 0
BITMAP
3FE0
3FE0
3000
3000
3000
3000
3000
3FC0
3FC0
3000
3000
3000
FE00
3000
3000
3000
ENDCHAR
STARTCHAR 20A4
ENCODING 8356
SWIDTH 540 0
DWIDTH 12 0
BBX 12 16 0 0
BITMAP
0F80
1DC0
3060
3060
3000
3000
FF00
FF00
1800
FF00
FF00
1000
3000
2000
FFE0
63F0
ENDCHAR
STARTCHAR 20A7
ENCODING 8359
SWIDTH 1080 0
DWIDTH 24 0
BBX 23 16 1 0
BITMAP
FE0000
FF1800
C39800
C19800
C1FFF0
C1FFFC
C19B0C
C79B0C
FF1B80
F019F0
C018FC
C0180E
C01B06
C01B06
C01F9C
C01DF8
ENDCHAR
STARTCHAR 20AA
ENCODING 8362
SWIDTH 810 0
DWIDTH 18 0
BBX 14 12 2 0
BITMAP
FE04
FFC4
C0C4
C0C4
CCC4
CCC4
CCC4
CCC4
CC04
CC04
CFFC
CFF8
ENDCHAR
STARTCHAR 20AB
ENCODING 8363
SWIDTH 495 0
DWIDTH 11 0
BBX 8 13 2 3
BITMAP
06
0F
06
7E
CE
86
86
86
86
C6
7E
00
FF
ENDCHAR
STARTCHAR 20AC
ENCODING 8364
SWIDTH 540 0
DWIDTH 12 0
BBX 12 16 0 0
BITMAP
07F0
0FF0
1C10
3800
3000
7000
FFE0
6000
6000
FFC0
7000
3000
3000
1810
1FF0
07F0
ENDCHAR
STARTCHAR 2105
ENCODING 8453
SWIDTH 900 0
DWIDTH 20 0
BBX 18 17 1 -1
BITMAP
3C0800
461800
C01000
803000
802000
C26000
464000
7CC000
008F00
019180
013080
0320C0
0220C0
063080
041180
0C0F00
180000
ENDCHAR
STARTCHAR 2113
ENCODING 8467
SWIDTH 315 0
DWIDTH 7 0
BBX 7 16 0 0
BITMAP
1C
36
36
36
36
3C
38
38
30
30
70
F0
30
30
36
1C
ENDCHAR
STARTCHAR 2116
ENCODING 8470
SWIDTH 1080 0
DWIDTH 24 0
BBX 21 16 2 0
BITMAP
C03000
E03000
E03000
F030C0
F833F0
D83738
DC3618
CE3618
C63618
C73618
C333F0
C1B1E0
C1F000
C0F7F8
C077F8
C07000
ENDCHAR
STARTCHAR 2122
ENCODING 8482
SWIDTH 990 0
DWIDTH 22 0
BBX 17 9 2 7
BITMAP
FF6180
186180
187380
185280
185280
185A80
184C80
184C80
184C80
ENDCHAR
STARTCHAR 2126
ENCODING 8486
SWIDTH 765 0
DWIDTH 17 0
BBX 15 16 1 0
BITMAP
0FE0
1EF8
3818
701C
600C
600E
600E
6006
600E
600E
600C
300C
3818
1C30
FE7E
FE7E
ENDCHAR
STARTCHAR 212E
ENCODING 8494
SWIDTH 585 0
DWIDTH 13 0
BBX 11 12 1 0
BITMAP
0F00
30C0
4040
C060
C060
FFE0
C000
C000
C000
4020
6040
1F80
ENDCHAR
STARTCHAR 2153
ENCODING 8531
SWIDTH 855 0
DWIDTH 19 0
BBX 17 17 1 -1
BITMAP
300600
700C00
D00800
101000
103000
106000
104000
10C000
018F00
011980
030180
060300
0C0780
080080
181180
301F80
200000
ENDCHAR
STARTCHAR 2154
ENCODING 8532
SWIDTH 855 0
DWIDTH 19 0
BBX 18 17 0 -1
BITMAP
3C0300
660600
060400
060800
1C1800
303000
602000
FE6000
00C780
008CC0
0180C0
030380
0603C0
0400C0
0C08C0
180FC0
100000
ENDCHAR
STARTCHAR 215B
ENCODING 8539
SWIDTH 855 0
DWIDTH 19 0
BBX 17 17 1 -1
BITMAP
300600
700C00
D00800
101000
103000
106000
104000
10C000
018F00
011980
031180
061F00
0C1F00
081180
181180
301F80
200600
ENDCHAR
STARTCHAR 215C
ENCODING 8540
SWIDTH 855 0
DWIDTH 19 0
BBX 17 17 1 -1
BITMAP
F80600
CC0C00
0C0800
381800
0C3000
0C6000
8C4000
F8C000
018F00
011980
031980
061F00
0C1F00
081180
181180
301F80
200600
ENDCHAR
STARTCHAR 215D
ENCODING 8541
SWIDTH 855 0
DWIDTH 19 0
BBX 17 17 1 -1
BITMAP
FC0600
C00C00
800800
F81800
0C3000
0C6000
8C4000
F8C000
018F00
011980
031980
061F00
0C1F00
081180
181180
301F80
200600
ENDCHAR
STARTCHAR 215E
ENCODING 8542
SWIDTH 855 0
DWIDTH 19 0
BBX 17 17 1 -1
BITMAP
FC0400
080C00
181800
101000
303000
206000
60C000
608000
018F00
031980
021180
061F00
0C1F00
181180
101180
301F80
600600
ENDCHAR
STARTCHAR 2190
ENCODING 8592
SWIDTH 990 0
DWIDTH 22 0
BBX 20 8 1 2
BITMAP
080000
180000
300000
600000
FFFFF0
700000
100000
080000
ENDCHAR
STARTCHAR 2191
ENCODING 8593
SWIDTH 495 0
DWIDTH 11 0
BBX 7 20 2 -5
BITMAP
10
10
38
7C
D6
10
10
10
10
10
10
10
10
10
10
10
10
10
10
10
ENDCHAR
STARTCHAR 2192
ENCODING 8594
SWIDTH 990 0
DWIDTH 22 0
BBX 20 8 1 2
BITMAP
000100
000080
0000C0
000060
FFFFF0
000060
0000C0
000180
ENDCHAR
STARTCHAR 2193
ENCODING 8595
SWIDTH 495 0
DWIDTH 11 0
BBX 7 20 2 -5
BITMAP
10
10
10
10
10
10
10
10
10
10
10
10
10
10
10
D6
7C
38
10
10
ENDCHAR
STARTCHAR 2194
ENCODING 8596
SWIDTH 990 0
DWIDTH 22 0
BBX 20 8 1 2
BITMAP
080100
180080
3000C0
600060
FFFFF0
700060
1000C0
080180
ENDCHAR
STARTCHAR 2195
ENCODING 8597
SWIDTH 495 0
DWIDTH 11 0
BBX 7 21 2 -5
BITMAP
10
18
38
7C
92
10
10
10
10
10
10
10
10
10
10
10
D6
7C
38
10
10
ENDCHAR
STARTCHAR 21A8
ENCODING 8616
SWIDTH 495 0
DWIDTH 11 0
BBX 7 23 2 -7
BITMAP
10
18
38
7C
92
10
10
10
10
10
10
10
10
10
10
10
D6
7C
38
10
10
00
FE
ENDCHAR
STARTCHAR 2202
ENCODING 8706
SWIDTH 495 0
DWIDTH 11 0
BBX 10 16 1 0
BITMAP
0F00
1980
3080
1080
0080
00C0
0FC0
3E80
7080
E080
C080
C180
C100
C300
C600
7C00
ENDCHAR
STARTCHAR 2206
ENCODING 8710
SWIDTH 630 0
DWIDTH 14 0
BBX 12 14 1 1
BITMAP
0600
0600
0F00
0B00
0B00
1180
1180
21C0
20C0
40C0
4060
8060
8070
FFF0
ENDCHAR
STARTCHAR 220F
ENCODING 8719
SWIDTH 810 0
DWIDTH 18 0
BBX 15 21 2 -5
BITMAP
FFFE
FFFE
C00E
C00E
C00E
C00E
C00E
C00E
C00E
C00E
C00E
C00E
C00E
C00E
C00E
C00E
C00E
C00E
C00E
C00E
C00E
ENDCHAR
STARTCHAR 2211
ENCODING 8721
SWIDTH 720 0
DWIDTH 16 0
BBX 14 21 1 -5
BITMAP
FFFC
FFFC
7000
3800
1800
1C00
0E00
0700
0380
0180
0180
0380
0700
0E00
0C00
1800
3800
7000
E000
FFFC
FFFC
ENDCHAR
STARTCHAR 2212
ENCODING 8722
SWIDTH 585 0
DWIDTH 13 0
BBX 11 2 1 7
BITMAP
FFE0
FFE0
ENDCHAR
STARTCHAR 2215
ENCODING 8725
SWIDTH 180 0
DWIDTH 4 0
BBX 13 17 -5 -1
BITMAP
0008
0018
0030
0060
0040
00C0
0180
0100
0300
0600
0C00
0800
1800
3000
2000
6000
C000
ENDCHAR
STARTCHAR 2219
ENCODING 8729
SWIDTH 270 0
DWIDTH 6 0
BBX 2 2 2 7
BITMAP
C0
C0
ENDCHAR
STARTCHAR 221A
ENCODING 8730
SWIDTH 540 0
DWIDTH 12 0
BBX 11 20 1 -1
BITMAP
0020
0020
0020
0020
0040
0040
0040
0040
0040
7040
9080
1880
0880
0C80
0480
0680
0300
0300
0100
0100
ENDCHAR
STARTCHAR 221E
ENCODING 8734
SWIDTH 720 0
DWIDTH 16 0
BBX 12 7 2 4
BITMAP
61E0
FB30
8E10
8410
9A10
7130
00C0
ENDCHAR
STARTCHAR 221F
ENCODING 8735
SWIDTH 990 0
DWIDTH 22 0
BBX 14 14 4 0
BITMAP
8000
8000
8000
8000
8000
8000
8000
8000
8000
8000
8000
8000
8000
FFFC
ENDCHAR
STARTCHAR 2229
ENCODING 8745
SWIDTH 720 0
DWIDTH 16 0
BBX 12 16 2 0
BITMAP
1F80
30C0
6060
C030
8030
8010
8010
8010
8010
8010
8010
8010
8010
8010
8010
8010
ENDCHAR
STARTCHAR 222B
ENCODING 8747
SWIDTH 270 0
DWIDTH 6 0
BBX 6 22 0 -2
BITMAP
1C
1C
20
20
30
30
30
30
30
30
30
30
30
30
30
30
30
30
10
10
E0
E0
ENDCHAR
STARTCHAR 2248
ENCODING 8776
SWIDTH 540 0
DWIDTH 12 0
BBX 11 8 1 4
BITMAP
2000
FC60
FFE0
87C0
3000
FC60
DFE0
0380
ENDCHAR
STARTCHAR 2260
ENCODING 8800
SWIDTH 540 0
DWIDTH 12 0
BBX 10 16 1 0
BITMAP
0080
0180
0100
0300
0200
FFC0
FFC0
0400
0C00
0800
FFC0
1000
3000
2000
2000
6000
ENDCHAR
STARTCHAR 2261
ENCODING 8801
SWIDTH 585 0
DWIDTH 13 0
BBX 11 12 1 2
BITMAP
FFE0
FFE0
0000
0000
0000
FFE0
FFE0
0000
0000
0000
FFE0
FFE0
ENDCHAR
STARTCHAR 2264
ENCODING 8804
SWIDTH 540 0
DWIDTH 12 0
BBX 10 13 1 2
BITMAP
00C0
03C0
1F00
7800
E000
F000
3C00
0F00
03C0
0040
0000
FFC0
FFC0
ENDCHAR
STARTCHAR 2265
ENCODING 8805
SWIDTH 540 0
DWIDTH 12 0
BBX 10 13 1 2
BITMAP
C000
F800
3E00
0780
01C0
01C0
0F80
3C00
F000
C000
0000
FFC0
FFC0
ENDCHAR
STARTCHAR 2302
ENCODING 8962
SWIDTH 585 0
DWIDTH 13 0
BBX 10 12 2 1
BITMAP
0C00
1400
2200
4100
8080
8040
8040
8040
8040
8040
8040
FFC0
ENDCHAR
STARTCHAR 2310
ENCODING 8976
SWIDTH 585 0
DWIDTH 13 0
BBX 11 6 1 5
BITMAP
FFE0
FFE0
C000
C000
C000
C000
ENDCHAR
STARTCHAR 2320
ENCODING 8992
SWIDTH 585 0
DWIDTH 13 0
BBX 5 25 6 -6
BITMAP
30
78
80
80
80
80
80
80
80
80
80
80
80
80
80
80
80
80
80
80
80
80
80
80
80
ENDCHAR
STARTCHAR 2321
ENCODING 8993
SWIDTH 585 0
DWIDTH 13 0
BBX 4 25 3 -6
BITMAP
10
10
10
10
10
10
10
10
10
10
10
10
10
10
10
10
10
10
10
10
10
10
90
E0
40
ENDCHAR
STARTCHAR 2500
ENCODING 9472
SWIDTH 720 0
DWIDTH 16 0
BBX 16 2 0 6
BITMAP
FFFF
FFFF
ENDCHAR
STARTCHAR 2502
ENCODING 9474
SWIDTH 630 0
DWIDTH 14 0
BBX 2 27 5 -7
BITMAP
C0
C0
C0
C0
C0
C0
C0
C0
C0
C0
C0
C0
C0
C0
C0
C0
C0
C0
C0
C0
C0
C0
C0
C0
C0
C0
C0
ENDCHAR
STARTCHAR 250C
ENCODING 9484
SWIDTH 720 0
DWIDTH 16 0
BBX 9 15 7 -7
BITMAP
FF80
FF80
C000
C000
C000
C000
C000
C000
C000
C000
C000
C000
C000
C000
C000
ENDCHAR
STARTCHAR 2510
ENCODING 9488
SWIDTH 720 0
DWIDTH 16 0
BBX 9 15 0 -7
BITMAP
FF80
FF80
0180
0180
0180
0180
0180
0180
0180
0180
0180
0180
0180
0180
0180
ENDCHAR
STARTCHAR 2514
ENCODING 9492
SWIDTH 720 0
DWIDTH 16 0
BBX 9 14 7 6
BITMAP
C000
C000
C000
C000
C000
C000
C000
C000
C000
C000
C000
C000
FF80
FF80
ENDCHAR
STARTCHAR 2518
ENCODING 9496
SWIDTH 720 0
DWIDTH 16 0
BBX 9 14 0 6
BITMAP
0180
0180
0180
0180
0180
0180
0180
0180
0180
0180
0180
0180
FF80
FF80
ENDCHAR
STARTCHAR 251C
ENCODING 9500
SWIDTH 720 0
DWIDTH 16 0
BBX 9 27 7 -7
BITMAP
C000
C000
C000
C000
C000
C000
C000
C000
C000
C000
C000
C000
FF80
FF80
C000
C000
C000
C000
C000
C000
C000
C000
C000
C000
C000
C000
C000
ENDCHAR
STARTCHAR 2524
ENCODING 9508
SWIDTH 720 0
DWIDTH 16 0
BBX 9 27 0 -7
BITMAP
0180
0180
0180
0180
0180
0180
0180
0180
0180
0180
0180
0180
FF80
FF80
0180
0180
0180
0180
0180
0180
0180
0180
0180
0180
0180
0180
0180
ENDCHAR
STARTCHAR 252C
ENCODING 9516
SWIDTH 720 0
DWIDTH 16 0
BBX 16 15 0 -7
BITMAP
FFFF
FFFF
0180
0180
0180
0180
0180
0180
0180
0180
0180
0180
0180
0180
0180
ENDCHAR
STARTCHAR 2534
ENCODING 9524
SWIDTH 720 0
DWIDTH 16 0
BBX 16 14 0 6
BITMAP
0180
0180
0180
0180
0180
0180
0180
0180
0180
0180
0180
0180
FFFF
FFFF
ENDCHAR
STARTCHAR 253C
ENCODING 9532
SWIDTH 720 0
DWIDTH 16 0
BBX 16 27 0 -7
BITMAP
0180
0180
0180
0180
0180
0180
0180
0180
0180
0180
0180
0180
FFFF
FFFF
0180
0180
0180
0180
0180
0180
0180
0180
0180
0180
0180
0180
0180
ENDCHAR
STARTCHAR 2550
ENCODING 9552
SWIDTH 720 0
DWIDTH 16 0
BBX 16 6 0 4
BITMAP
FFFF
FFFF
0000
0000
FFFF
FFFF
ENDCHAR
STARTCHAR 2551
ENCODING 9553
SWIDTH 720 0
DWIDTH 16 0
BBX 6 27 5 -7
BITMAP
CC
CC
CC
CC
CC
CC
CC
CC
CC
CC
CC
CC
CC
CC
CC
CC
CC
CC
CC
CC
CC
CC
CC
CC
CC
CC
CC
ENDCHAR
STARTCHAR 2552
ENCODING 9554
SWIDTH 720 0
DWIDTH 16 0
BBX 9 17 7 -7
BITMAP
FF80
FF80
C000
C000
FF80
FF80
C000
C000
C000
C000
C000
C000
C000
C000
C000
C000
C000
ENDCHAR
STARTCHAR 2553
ENCODING 9555
SWIDTH 720 0
DWIDTH 16 0
BBX 11 15 5 -7
BITMAP
FFE0
FFE0
CC00
CC00
CC00
CC00
CC00
CC00
CC00
CC00
CC00
CC00
CC00
CC00
CC00
ENDCHAR
STARTCHAR 2554
ENCODING 9556
SWIDTH 720 0
DWIDTH 16 0
BBX 11 17 5 -7
BITMAP
FFE0
FFE0
C000
C000
CFE0
CFE0
CC00
CC00
CC00
CC00
CC00
CC00
CC00
CC00
CC00
CC00
CC00
ENDCHAR
STARTCHAR 2555
ENCODING 9557
SWIDTH 720 0
DWIDTH 16 0
BBX 9 17 0 -7
BITMAP
FF80
FF80
0180
0180
FF80
FF80
0180
0180
0180
0180
0180
0180
0180
0180
0180
0180
0180
ENDCHAR
STARTCHAR 2556
ENCODING 9558
SWIDTH 720 0
DWIDTH 16 0
BBX 11 15 0 -7
BITMAP
FFE0
FFE0
0660
0660
0660
0660
0660
0660
0660
0660
0660
0660
0660
0660
0660
ENDCHAR
STARTCHAR 2557
ENCODING 9559
SWIDTH 720 0
DWIDTH 16 0
BBX 11 17 0 -7
BITMAP
FFE0
FFE0
0060
0060
FE60
FE60
0660
0660
0660
0660
0660
0660
0660
0660
0660
0660
0660
ENDCHAR
STARTCHAR 2558
ENCODING 9560
SWIDTH 720 0
DWIDTH 16 0
BBX 9 16 7 4
BITMAP
C000
C000
C000
C000
C000
C000
C000
C000
C000
C000
FF80
FF80
C000
C000
FF80
FF80
ENDCHAR
STARTCHAR 2559
ENCODING 9561
SWIDTH 720 0
DWIDTH 16 0
BBX 11 14 5 6
BITMAP
CC00
CC00
CC00
CC00
CC00
CC00
CC00
CC00
CC00
CC00
CC00
CC00
FFE0
FFE0
ENDCHAR
STARTCHAR 255A
ENCODING 9562
SWIDTH 720 0
DWIDTH 16 0
BBX 11 16 5 4
BITMAP
CC00
CC00
CC00
CC00
CC00
CC00
CC00
CC00
CC00
CC00
CFE0
CFE0
C000
C000
FFE0
FFE0
ENDCHAR
STARTCHAR 255B
ENCODING 9563
SWIDTH 720 0
DWIDTH 16 0
BBX 9 16 0 4
BITMAP
0180
0180
0180
0180
0180
0180
0180
0180
0180
0180
FF80
FF80
0180
0180
FF80
FF80
ENDCHAR
STARTCHAR 255C
ENCODING 9564
SWIDTH 720 0
DWIDTH 16 0
BBX 11 14 0 6
BITMAP
0660
0660
0660
0660
0660
0660
0660
0660
0660
0660
0660
0660
FFE0
FFE0
ENDCHAR
STARTCHAR 255D
ENCODING 9565
SWIDTH 720 0
DWIDTH 16 0
BBX 11 16 0 4
BITMAP
0660
0660
0660
0660
0660
0660
0660
0660
0660
0660
FE60
FE60
0060
0060
FFE0
FFE0
ENDCHAR
STARTCHAR 255E
ENCODING 9566
SWIDTH 720 0
DWIDTH 16 0
BBX 9 27 7 -7
BITMAP
C000
C000
C000
C000
C000
C000
C000
C000
C000
C000
FF80
FF80
C000
C000
FF80
FF80
C000
C000
C000
C000
C000
C000
C000
C000
C000
C000
C000
ENDCHAR
STARTCHAR 255F
ENCODING 9567
SWIDTH 720 0
DWIDTH 16 0
BBX 11 27 5 -7
BITMAP
CC00
CC00
CC00
CC00
CC00
CC00
CC00
CC00
CC00
CC00
CC00
CC00
CFE0
CFE0
CC00
CC00
CC00
CC00
CC00
CC00
CC00
CC00
CC00
CC00
CC00
CC00
CC00
ENDCHAR
STARTCHAR 2560
ENCODING 9568
SWIDTH 720 0
DWIDTH 16 0
BBX 11 27 5 -7
BITMAP
CC00
CC00
CC00
CC00
CC00
CC00
CC00
CC00
CC00
CC00
CFE0
CFE0
C000
C000
CFE0
CFE0
CC00
CC00
CC00
CC00
CC00
CC00
CC00
CC00
CC00
CC00
CC00
ENDCHAR
STARTCHAR 2561
ENCODING 9569
SWIDTH 720 0
DWIDTH 16 0
BBX 9 27 0 -7
BITMAP
0180
0180
0180
0180
0180
0180
0180
0180
0180
0180
FF80
FF80
0180
0180
FF80
FF80
0180
0180
0180
0180
0180
0180
0180
0180
0180
0180
0180
ENDCHAR
STARTCHAR 2562
ENCODING 9570
SWIDTH 720 0
DWIDTH 16 0
BBX 11 27 0 -7
BITMAP
0660
0660
0660
0660
0660
0660
0660
0660
0660
0660
0660
0660
FE60
FE60
0660
0660
0660
0660
0660
0660
0660
0660
0660
0660
0660
0660
0660
ENDCHAR
STARTCHAR 2563
ENCODING 9571
SWIDTH 720 0
DWIDTH 16 0
BBX 11 27 0 -7
BITMAP
0660
0660
0660
0660
0660
0660
0660
0660
0660
0660
FE60
FE60
0060
0060
FE60
FE60
0660
0660
0660
0660
0660
0660
0660
0660
0660
0660
0660
ENDCHAR
STARTCHAR 2564
ENCODING 9572
SWIDTH 720 0
DWIDTH 16 0
BBX 16 17 0 -7
BITMAP
FFFF
FFFF
0000
0000
FFFF
FFFF
0180
0180
0180
0180
0180
0180
0180
0180
0180
0180
0180
ENDCHAR
STARTCHAR 2565
ENCODING 9573
SWIDTH 720 0
DWIDTH 16 0
BBX 16 15 0 -7
BITMAP
FFFF
FFFF
0660
0660
0660
0660
0660
0660
0660
0660
0660
0660
0660
0660
0660
ENDCHAR
STARTCHAR 2566
ENCODING 9574
SWIDTH 720 0
DWIDTH 16 0
BBX 16 17 0 -7
BITMAP
FFFF
FFFF
0000
0000
FE7F
FE7F
0660
0660
0660
0660
0660
0660
0660
0660
0660
0660
0660
ENDCHAR
STARTCHAR 2567
ENCODING 9575
SWIDTH 720 0
DWIDTH 16 0
BBX 16 16 0 4
BITMAP
0180
0180
0180
0180
0180
0180
0180
0180
0180
0180
FFFF
FFFF
0000
0000
FFFF
FFFF
ENDCHAR
STARTCHAR 2568
ENCODING 9576
SWIDTH 720 0
DWIDTH 16 0
BBX 16 14 0 6
BITMAP
0660
0660
0660
0660
0660
0660
0660
0660
0660
0660
0660
0660
FFFF
FFFF
ENDCHAR
STARTCHAR 2569
ENCODING 9577
SWIDTH 720 0
DWIDTH 16 0
BBX 16 16 0 4
BITMAP
0660
0660
0660
0660
0660
0660
0660
0660
0660
0660
FE7F
FE7F
0000
0000
FFFF
FFFF
ENDCHAR
STARTCHAR 256A
ENCODING 9578
SWIDTH 720 0
DWIDTH 16 0
BBX 16 27 0 -7
BITMAP
0180
0180
0180
0180
0180
0180
0180
0180
0180
0180
FFFF
FFFF
0180
0180
FFFF
FFFF
0180
0180
0180
0180
0180
0180
0180
0180
0180
0180
0180
ENDCHAR
STARTCHAR 256B
ENCODING 9579
SWIDTH 720 0
DWIDTH 16 0
BBX 16 27 0 -7
BITMAP
0660
0660
0660
0660
0660
0660
0660
0660
0660
0660
0660
0660
FFFF
FFFF
0660
0660
0660
0660
0660
0660
0660
0660
0660
0660
0660
0660
0660
ENDCHAR
STARTCHAR 256C
ENCODING 9580
SWIDTH 720 0
DWIDTH 16 0
BBX 16 27 0 -7
BITMAP
0660
0660
0660
0660
0660
0660
0660
0660
0660
0660
FE7F
FE7F
0000
0000
FE7F
FE7F
0660
0660
0660
0660
0660
0660
0660
0660
0660
0660
0660
ENDCHAR
STARTCHAR 2580
ENCODING 9600
SWIDTH 720 0
DWIDTH 16 0
BBX 16 13 0 7
BITMAP
FFFF
FFFF
FFFF
FFFF
FFFF
FFFF
FFFF
FFFF
FFFF
FFFF
FFFF
FFFF
FFFF
ENDCHAR
STARTCHAR 2584
ENCODING 9604
SWIDTH 720 0
DWIDTH 16 0
BBX 16 14 0 -7
BITMAP
FFFF
FFFF
FFFF
FFFF
FFFF
FFFF
FFFF
FFFF
FFFF
FFFF
FFFF
FFFF
FFFF
FFFF
ENDCHAR
STARTCHAR 2588
ENCODING 9608
SWIDTH 720 0
DWIDTH 16 0
BBX 16 27 0 -7
BITMAP
FFFF
FFFF
FFFF
FFFF
FFFF
FFFF
FFFF
FFFF
FFFF
FFFF
FFFF
FFFF
FFFF
FFFF
FFFF
FFFF
FFFF
FFFF
FFFF
FFFF
FFFF
FFFF
FFFF
FFFF
FFFF
FFFF
FFFF
ENDCHAR
STARTCHAR 258C
ENCODING 9612
SWIDTH 720 0
DWIDTH 16 0
BBX 8 27 0 -7
BITMAP
FF
FF
FF
FF
FF
FF
FF
FF
FF
FF
FF
FF
FF
FF
FF
FF
FF
FF
FF
FF
FF
FF
FF
FF
FF
FF
FF
ENDCHAR
STARTCHAR 2590
ENCODING 9616
SWIDTH 720 0
DWIDTH 16 0
BBX 8 27 8 -7
BITMAP
FF
FF
FF
FF
FF
FF
FF
FF
FF
FF
FF
FF
FF
FF
FF
FF
FF
FF
FF
FF
FF
FF
FF
FF
FF
FF
FF
ENDCHAR
STARTCHAR 2591
ENCODING 9617
SWIDTH 720 0
DWIDTH 16 0
BBX 15 25 1 -5
BITMAP
8610
0000
10C2
10C2
0000
8610
8610
0000
10C2
0000
0000
8610
0000
10C2
10C2
0000
8610
0000
0000
10C2
0000
8610
8610
0000
10C2
ENDCHAR
STARTCHAR 2592
ENCODING 9618
SWIDTH 720 0
DWIDTH 16 0
BBX 16 25 0 -5
BITMAP
4969
0000
B696
B696
0000
4969
4969
0000
B696
0000
0000
4969
0000
B696
B696
0000
4969
0000
0000
B696
0000
4969
4969
0000
B696
ENDCHAR
STARTCHAR 2593
ENCODING 9619
SWIDTH 720 0
DWIDTH 16 0
BBX 16 27 0 -7
BITMAP
696D
FFFF
9696
9696
FFFF
696D
696D
FFFF
9696
FFFF
FFFF
696D
FFFF
9696
9696
FFFF
696D
FFFF
FFFF
9696
FFFF
696D
696D
FFFF
9696
FFFF
FFFF
ENDCHAR
STARTCHAR 25A0
ENCODING 9632
SWIDTH 585 0
DWIDTH 13 0
BBX 10 10 2 0
BITMAP
FFC0
FFC0
FFC0
FFC0
FFC0
FFC0
FFC0
FFC0
FFC0
FFC0
ENDCHAR
STARTCHAR 25A1
ENCODING 9633
SWIDTH 585 0
DWIDTH 13 0
BBX 10 10 2 0
BITMAP
FFC0
8040
8040
8040
8040
8040
8040
8040
8040
FFC0
ENDCHAR
STARTCHAR 25AA
ENCODING 9642
SWIDTH 360 0
DWIDTH 8 0
BBX 5 5 1 5
BITMAP
F8
F8
F8
F8
F8
ENDCHAR
STARTCHAR 25AB
ENCODING 9643
SWIDTH 360 0
DWIDTH 8 0
BBX 5 5 1 5
BITMAP
F8
88
88
88
F8
ENDCHAR
STARTCHAR 25AC
ENCODING 9644
SWIDTH 990 0
DWIDTH 22 0
BBX 22 5 0 3
BITMAP
FFFFFC
FFFFFC
FFFFFC
FFFFFC
FFFFFC
ENDCHAR
STARTCHAR 25B2
ENCODING 9650
SWIDTH 990 0
DWIDTH 22 0
BBX 14 15 4 0
BITMAP
0200
0300
0300
0780
0780
0FC0
0FC0
1FE0
1FE0
3FF0
3FF0
7FF8
7FF8
FFFC
FFFC
ENDCHAR
STARTCHAR 25BA
ENCODING 9658
SWIDTH 990 0
DWIDTH 22 0
BBX 16 15 3 0
BITMAP
C000
F000
FC00
FF00
FFC0
FFF0
FFFC
FFFF
FFFC
FFF0
FFC0
FF00
FC00
F000
C000
ENDCHAR
STARTCHAR 25BC
ENCODING 9660
SWIDTH 990 0
DWIDTH 22 0
BBX 14 15 4 0
BITMAP
FFFC
FFFC
7FF8
7FF8
3FF0
3FF0
1FE0
1FE0
0FC0
0FC0
0780
0780
0300
0300
0200
ENDCHAR
STARTCHAR 25C4
ENCODING 9668
SWIDTH 990 0
DWIDTH 22 0
BBX 16 15 3 0
BITMAP
0003
000F
003F
00FF
03FF
0FFF
3FFF
FFFF
3FFF
0FFF
03FF
00FF
003F
000F
0003
ENDCHAR
STARTCHAR 25CA
ENCODING 9674
SWIDTH 495 0
DWIDTH 11 0
BBX 9 15 1 0
BITMAP
1800
1400
2600
2200
4100
C100
8080
8080
8080
4100
4300
2200
3400
1400
1800
ENDCHAR
STARTCHAR 25CB
ENCODING 9675
SWIDTH 585 0
DWIDTH 13 0
BBX 9 10 2 1
BITMAP
1E00
6100
8080
8080
8080
8080
8080
4080
2300
1C00
ENDCHAR
STARTCHAR 25CF
ENCODING 9679
SWIDTH 585 0
DWIDTH 13 0
BBX 9 10 2 1
BITMAP
1E00
7F00
FF80
FF80
FF80
FF80
FF80
7F80
3F00
0800
ENDCHAR
STARTCHAR 25D8
ENCODING 9688
SWIDTH 585 0
DWIDTH 13 0
BBX 11 11 1 0
BITMAP
FFE0
FFE0
FFE0
FFE0
F0E0
F0E0
F0E0
F1E0
FFE0
FFE0
FFE0
ENDCHAR
STARTCHAR 25D9
ENCODING 9689
SWIDTH 585 0
DWIDTH 13 0
BBX 13 13 0 0
BITMAP
FFF8
FFF8
F878
EFB8
DFD8
DFD8
DFF8
DFF8
DFD8
EFD8
F738
FDF8
FFF8
ENDCHAR
STARTCHAR 25E6
ENCODING 9702
SWIDTH 360 0
DWIDTH 8 0
BBX 6 5 1 5
BITMAP
78
88
84
84
78
ENDCHAR
STARTCHAR 263A
ENCODING 9786
SWIDTH 1035 0
DWIDTH 23 0
BBX 14 14 4 -1
BITMAP
0100
0EE0
3010
2008
4004
4864
8864
8004
4004
4804
444C
2388
1030
0FE0
ENDCHAR
STARTCHAR 263B
ENCODING 9787
SWIDTH 1035 0
DWIDTH 23 0
BBX 14 14 5 -1
BITMAP
0200
1FC0
3FF0
7FF0
FFF8
E7B8
E7BC
FFFC
FFFC
FFB8
F778
78F0
3FE0
1FC0
ENDCHAR
STARTCHAR 263C
ENCODING 9788
SWIDTH 900 0
DWIDTH 20 0
BBX 20 20 0 -2
BITMAP
002000
002000
002000
102040
08F880
070500
040200
080100
080100
080080
F800F0
080100
080100
040100
040200
070D00
08F080
102040
002000
002000
ENDCHAR
STARTCHAR 2640
ENCODING 9792
SWIDTH 765 0
DWIDTH 17 0
BBX 11 21 3 -5
BITMAP
3F00
40C0
8040
8020
8020
8020
8020
8020
8040
4080
3F00
0400
0400
0400
0400
FFE0
0400
0400
0400
0400
0400
ENDCHAR
STARTCHAR 2642
ENCODING 9794
SWIDTH 765 0
DWIDTH 17 0
BBX 14 20 1 -2
BITMAP
0038
00D8
0328
0024
0044
0044
0084
0080
0480
1B80
6040
4020
8020
8010
8010
8020
8020
4040
2040
1F80
ENDCHAR
STARTCHAR 2660
ENCODING 9824
SWIDTH 540 0
DWIDTH 12 0
BBX 10 12 1 1
BITMAP
0C00
0C00
1E00
7F00
FF80
FFC0
FFC0
FFC0
7B80
0800
0C00
3F00
ENDCHAR
STARTCHAR 2663
ENCODING 9827
SWIDTH 675 0
DWIDTH 15 0
BBX 13 13 1 0
BITMAP
0F00
1F80
1F80
1F80
7FF0
FFF8
FFF8
FFF8
FDF8
72F0
0600
0700
3FC0
ENDCHAR
STARTCHAR 2665
ENCODING 9829
SWIDTH 585 0
DWIDTH 13 0
BBX 11 13 1 0
BITMAP
F9E0
FBE0
FFE0
FFE0
FFE0
7FC0
3FC0
3F80
1F00
0E00
0E00
0400
0400
ENDCHAR
STARTCHAR 2666
ENCODING 9830
SWIDTH 495 0
DWIDTH 11 0
BBX 10 13 1 0
BITMAP
0800
1C00
1E00
3E00
7F00
FF80
FFC0
7F80
7F00
3E00
1C00
0C00
0800
ENDCHAR
STARTCHAR 266A
ENCODING 9834
SWIDTH 495 0
DWIDTH 11 0
BBX 11 15 0 0
BITMAP
0780
07C0
07C0
0460
0420
0420
0400
0400
0400
0400
3C00
7C00
FC00
FC00
7800
ENDCHAR
STARTCHAR 266B
ENCODING 9835
SWIDTH 765 0
DWIDTH 17 0
BBX 13 17 1 -1
BITMAP
0038
01F8
07F8
07C8
0408
0408
0408
0408
0408
0408
0478
04F8
35F8
FCF8
FCF0
FC00
F800
ENDCHAR
STARTCHAR E801
ENCODING 59393
SWIDTH 225 0
DWIDTH 5 0
BBX 5 15 -1 0
BITMAP
C0
C0
00
18
18
18
18
18
18
18
18
18
18
18
18
ENDCHAR
STARTCHAR E802
ENCODING 59394
SWIDTH 495 0
DWIDTH 11 0
BBX 9 16 1 -4
BITMAP
F000
FE00
0700
0300
0380
0180
0180
3180
3180
2180
3180
0180
0180
0180
0180
0180
ENDCHAR
STARTCHAR E803
ENCODING 59395
SWIDTH 495 0
DWIDTH 11 0
BBX 9 16 1 -4
BITMAP
F000
FE00
0700
0300
0380
0180
0180
0180
7980
2180
2180
0180
0180
0180
0180
0180
ENDCHAR
STARTCHAR E804
ENCODING 59396
SWIDTH 450 0
DWIDTH 10 0
BBX 11 16 -2 0
BITMAP
1800
5800
D800
1800
1800
1FE0
0060
0060
0060
0060
00C0
01C0
0180
0180
0180
0180
ENDCHAR
STARTCHAR E805
ENCODING 59397
SWIDTH 450 0
DWIDTH 10 0
BBX 11 16 -2 0
BITMAP
1800
5800
D800
1800
1800
1FE0
0060
0060
0460
0460
00C0
01C0
0180
0180
0180
0180
ENDCHAR
STARTCHAR E818
ENCODING 59416
SWIDTH 225 0
DWIDTH 5 0
BBX 4 7 1 13
BITMAP
60
80
E0
10
50
E0
80
ENDCHAR
STARTCHAR E83A
ENCODING 59450
SWIDTH 630 0
DWIDTH 14 0
BBX 15 2 -1 3
BITMAP
FFFE
FFFE
ENDCHAR
STARTCHAR F001
ENCODING 61441
SWIDTH 495 0
DWIDTH 11 0
BBX 10 16 0 0
BITMAP
1EC0
3EC0
3000
3000
FCC0
FCC0
30C0
30C0
30C0
30C0
30C0
30C0
30C0
30C0
30C0
30C0
ENDCHAR
STARTCHAR F002
ENCODING 61442
SWIDTH 495 0
DWIDTH 11 0
BBX 10 16 0 0
BITMAP
1EC0
3EC0
30C0
30C0
FCC0
FCC0
30C0
30C0
30C0
30C0
30C0
30C0
30C0
30C0
30C0
30C0
ENDCHAR
STARTCHAR F004
ENCODING 61444
SWIDTH 315 0
DWIDTH 7 0
BBX 2 4 3 -6
BITMAP
C0
40
C0
80
ENDCHAR
STARTCHAR F005
ENCODING 61445
SWIDTH 315 0
DWIDTH 7 0
BBX 5 4 1 -4
BITMAP
78
18
F8
60
ENDCHAR
STARTCHAR F006
ENCODING 61446
SWIDTH 0 0
DWIDTH 0 0
BBX 3 2 -4 18
BITMAP
E0
80
ENDCHAR
STARTCHAR F007
ENCODING 61447
SWIDTH 0 0
DWIDTH 0 0
BBX 4 2 -9 18
BITMAP
70
C0
ENDCHAR
STARTCHAR F008
ENCODING 61448
SWIDTH 0 0
DWIDTH 0 0
BBX 3 3 -3 13
BITMAP
60
C0
80
ENDCHAR
STARTCHAR F009
ENCODING 61449
SWIDTH 0 0
DWIDTH 0 0
BBX 4 3 -7 17
BITMAP
70
60
C0
ENDCHAR
STARTCHAR F00A
ENCODING 61450
SWIDTH 0 0
DWIDTH 0 0
BBX 1 23 -1 -4
BITMAP
80
80
80
80
80
80
80
80
80
00
00
00
00
00
80
80
80
80
80
80
80
80
80
ENDCHAR
STARTCHAR F00B
ENCODING 61451
SWIDTH 0 0
DWIDTH 0 0
BBX 6 25 -3 -5
BITMAP
FC
20
20
20
20
20
20
20
20
20
20
20
20
20
20
20
20
20
20
20
20
20
20
20
FC
ENDCHAR
STARTCHAR F00C
ENCODING 61452
SWIDTH 0 0
DWIDTH 0 0
BBX 2 23 0 -4
BITMAP
C0
C0
80
80
80
80
80
80
80
80
80
80
80
80
80
80
80
80
80
80
80
80
80
ENDCHAR
STARTCHAR F00D
ENCODING 61453
SWIDTH 0 0
DWIDTH 0 0
BBX 2 23 -2 -4
BITMAP
C0
C0
40
40
40
40
40
40
40
40
40
40
40
40
40
40
40
40
40
40
40
40
40
ENDCHAR
STARTCHAR F00E
ENCODING 61454
SWIDTH 0 0
DWIDTH 0 0
BBX 3 24 0 -4
BITMAP
80
80
80
80
80
80
80
80
80
80
80
80
80
80
80
80
80
80
80
80
80
80
80
E0
ENDCHAR
STARTCHAR F00F
ENCODING 61455
SWIDTH 0 0
DWIDTH 0 0
BBX 4 3 -9 13
BITMAP
E0
60
30
ENDCHAR
STARTCHAR F010
ENCODING 61456
SWIDTH 0 0
DWIDTH 0 0
BBX 4 2 -5 18
BITMAP
F0
30
ENDCHAR
STARTCHAR F011
ENCODING 61457
SWIDTH 0 0
DWIDTH 0 0
BBX 4 2 -10 18
BITMAP
F0
30
ENDCHAR
STARTCHAR F012
ENCODING 61458
SWIDTH 0 0
DWIDTH 0 0
BBX 5 4 -5 13
BITMAP
F0
18
18
20
ENDCHAR
STARTCHAR F013
ENCODING 61459
SWIDTH 0 0
DWIDTH 0 0
BBX 5 4 -8 16
BITMAP
F0
18
70
60
ENDCHAR
STARTCHAR F014
ENCODING 61460
SWIDTH 0 0
DWIDTH 0 0
BBX 4 4 -8 13
BITMAP
E0
30
30
60
ENDCHAR
STARTCHAR F015
ENCODING 61461
SWIDTH 0 0
DWIDTH 0 0
BBX 7 2 -11 18
BITMAP
72
9C
ENDCHAR
STARTCHAR F016
ENCODING 61462
SWIDTH 0 0
DWIDTH 0 0
BBX 8 3 -12 17
BITMAP
73
FE
C4
ENDCHAR
STARTCHAR F017
ENCODING 61463
SWIDTH 0 0
DWIDTH 0 0
BBX 7 3 -14 17
BITMAP
72
FE
80
ENDCHAR
STARTCHAR F018
ENCODING 61464
SWIDTH 0 0
DWIDTH 0 0
BBX 7 3 -15 17
BITMAP
72
FE
C4
ENDCHAR
STARTCHAR F019
ENCODING 61465
SWIDTH 0 0
DWIDTH 0 0
BBX 7 3 -10 13
BITMAP
62
FE
CC
ENDCHAR
STARTCHAR F01A
ENCODING 61466
SWIDTH 0 0
DWIDTH 0 0
BBX 7 3 -12 13
BITMAP
62
FE
8C
ENDCHAR
STARTCHAR F01B
ENCODING 61467
SWIDTH 0 0
DWIDTH 0 0
BBX 8 3 -13 13
BITMAP
23
7E
CC
ENDCHAR
STARTCHAR F01C
ENCODING 61468
SWIDTH 0 0
DWIDTH 0 0
BBX 8 3 -7 17
BITMAP
73
7E
C4
ENDCHAR
STARTCHAR F01D
ENCODING 61469
SWIDTH 0 0
DWIDTH 0 0
BBX 7 3 -6 13
BITMAP
62
FE
8C
ENDCHAR
STARTCHAR F01E
ENCODING 61470
SWIDTH 0 0
DWIDTH 0 0
BBX 2 3 -8 -4
BITMAP
C0
C0
C0
ENDCHAR
STARTCHAR F01F
ENCODING 61471
SWIDTH 0 0
DWIDTH 0 0
BBX 2 3 -10 -4
BITMAP
C0
C0
C0
ENDCHAR
STARTCHAR F020
ENCODING 61472
SWIDTH 0 0
DWIDTH 0 0
BBX 2 3 -11 -4
BITMAP
C0
C0
C0
ENDCHAR
STARTCHAR F021
ENCODING 61473
SWIDTH 0 0
DWIDTH 0 0
BBX 2 3 -9 -4
BITMAP
C0
C0
C0
ENDCHAR
STARTCHAR F022
ENCODING 61474
SWIDTH 0 0
DWIDTH 0 0
BBX 2 3 -12 -4
BITMAP
C0
C0
C0
ENDCHAR
STARTCHAR F023
ENCODING 61475
SWIDTH 0 0
DWIDTH 0 0
BBX 2 3 -7 -4
BITMAP
C0
C0
C0
ENDCHAR
STARTCHAR F024
ENCODING 61476
SWIDTH 0 0
DWIDTH 0 0
BBX 2 3 -7 -4
BITMAP
C0
C0
C0
ENDCHAR
STARTCHAR F025
ENCODING 61477
SWIDTH 0 0
DWIDTH 0 0
BBX 2 3 -7 -4
BITMAP
C0
C0
C0
ENDCHAR
STARTCHAR F026
ENCODING 61478
SWIDTH 0 0
DWIDTH 0 0
BBX 3 3 -10 -4
BITMAP
E0
E0
E0
ENDCHAR
STARTCHAR F027
ENCODING 61479
SWIDTH 0 0
DWIDTH 0 0
BBX 2 3 -8 -4
BITMAP
C0
C0
C0
ENDCHAR
STARTCHAR F028
ENCODING 61480
SWIDTH 0 0
DWIDTH 0 0
BBX 3 3 -11 -4
BITMAP
E0
E0
E0
ENDCHAR
STARTCHAR F029
ENCODING 61481
SWIDTH 0 0
DWIDTH 0 0
BBX 2 3 -4 -4
BITMAP
C0
C0
C0
ENDCHAR
STARTCHAR F02A
ENCODING 61482
SWIDTH 0 0
DWIDTH 0 0
BBX 3 3 -4 -4
BITMAP
E0
E0
E0
ENDCHAR
STARTCHAR F02B
ENCODING 61483
SWIDTH 0 0
DWIDTH 0 0
BBX 3 3 -9 -4
BITMAP
E0
E0
E0
ENDCHAR
STARTCHAR F02C
ENCODING 61484
SWIDTH 0 0
DWIDTH 0 0
BBX 2 3 -3 -4
BITMAP
C0
C0
C0
ENDCHAR
STARTCHAR F02D
ENCODING 61485
SWIDTH 0 0
DWIDTH 0 0
BBX 7 2 -11 18
BITMAP
72
9E
ENDCHAR
STARTCHAR F02E
ENCODING 61486
SWIDTH 0 0
DWIDTH 0 0
BBX 7 3 -11 17
BITMAP
72
FE
C0
ENDCHAR
STARTCHAR F02F
ENCODING 61487
SWIDTH 0 0
DWIDTH 0 0
BBX 7 2 -12 18
BITMAP
F2
9C
ENDCHAR
STARTCHAR F030
ENCODING 61488
SWIDTH 0 0
DWIDTH 0 0
BBX 7 3 -12 17
BITMAP
66
FE
80
ENDCHAR
STARTCHAR F031
ENCODING 61489
SWIDTH 225 0
DWIDTH 5 0
BBX 2 12 1 0
BITMAP
C0
C0
C0
C0
C0
C0
C0
C0
C0
C0
C0
C0
ENDCHAR
STARTCHAR FB01
ENCODING 64257
SWIDTH 495 0
DWIDTH 11 0
BBX 10 16 0 0
BITMAP
1EC0
3EC0
3000
3000
FCC0
FCC0
30C0
30C0
30C0
30C0
30C0
30C0
30C0
30C0
30C0
30C0
ENDCHAR
STARTCHAR FB02
ENCODING 64258
SWIDTH 495 0
DWIDTH 11 0
BBX 10 16 0 0
BITMAP
1EC0
3EC0
30C0
30C0
FCC0
FCC0
30C0
30C0
30C0
30C0
30C0
30C0
30C0
30C0
30C0
30C0
ENDCHAR
STARTCHAR FB1D
ENCODING 64285
SWIDTH 225 0
DWIDTH 5 0
BBX 2 10 2 2
BITMAP
C0
C0
C0
C0
C0
C0
00
00
C0
80
ENDCHAR
STARTCHAR FB1E
ENCODING 64286
SWIDTH 0 0
DWIDTH 0 0
BBX 6 2 -3 14
BITMAP
CC
78
ENDCHAR
STARTCHAR FB1F
ENCODING 64287
SWIDTH 495 0
DWIDTH 11 0
BBX 7 9 2 3
BITMAP
C6
C6
C6
C6
C6
C6
00
00
FE
ENDCHAR
STARTCHAR FB20
ENCODING 64288
SWIDTH 540 0
DWIDTH 12 0
BBX 10 12 0 0
BITMAP
30C0
30C0
30C0
30C0
30C0
18C0
18C0
18C0
19C0
1980
FF80
FE00
ENDCHAR
STARTCHAR FB2A
ENCODING 64298
SWIDTH 675 0
DWIDTH 15 0
BBX 13 15 1 0
BITMAP
0008
0018
0000
C318
C318
C318
C718
C618
C618
FE18
7838
6030
7070
3DE0
1FC0
ENDCHAR
STARTCHAR FB2B
ENCODING 64299
SWIDTH 675 0
DWIDTH 15 0
BBX 13 15 1 0
BITMAP
4000
C000
0000
C318
C318
C318
C718
C618
C618
FE18
7838
6030
7070
3DE0
1FC0
ENDCHAR
STARTCHAR FB2C
ENCODING 64300
SWIDTH 675 0
DWIDTH 15 0
BBX 13 15 1 0
BITMAP
0008
0018
0000
C318
C318
C318
C718
C618
C618
FE98
78B8
6030
7070
3DE0
1FC0
ENDCHAR
STARTCHAR FB2D
ENCODING 64301
SWIDTH 675 0
DWIDTH 15 0
BBX 13 15 1 0
BITMAP
4000
C000
0000
C318
C318
C318
C718
C618
C618
FE98
78B8
6030
7070
3DE0
1FC0
ENDCHAR
STARTCHAR FB2E
ENCODING 64302
SWIDTH 585 0
DWIDTH 13 0
BBX 11 15 1 -3
BITMAP
E0C0
60C0
30C0
38C0
3DC0
7D80
6F00
6700
6300
E180
C1C0
C0E0
0000
0000
1E00
ENDCHAR
STARTCHAR FB2F
ENCODING 64303
SWIDTH 585 0
DWIDTH 13 0
BBX 11 17 1 -5
BITMAP
E0C0
60C0
30C0
38C0
3DC0
7D80
6F00
6700
6300
E180
C1C0
C0E0
0000
0000
1E00
0400
0400
ENDCHAR
STARTCHAR FB30
ENCODING 64304
SWIDTH 585 0
DWIDTH 13 0
BBX 11 12 1 0
BITMAP
E0C0
60C0
30C0
38C0
3DC0
7D80
6F00
6700
6300
E980
CDC0
C0E0
ENDCHAR
STARTCHAR FB31
ENCODING 64305
SWIDTH 540 0
DWIDTH 12 0
BBX 11 12 1 0
BITMAP
F800
FE00
0700
0300
0380
3180
3180
0180
0180
0180
FFE0
FFE0
ENDCHAR
STARTCHAR FB32
ENCODING 64306
SWIDTH 405 0
DWIDTH 9 0
BBX 7 12 1 0
BITMAP
70
78
1C
0C
6C
6C
0C
0C
3C
6C
C6
C6
ENDCHAR
STARTCHAR FB33
ENCODING 64307
SWIDTH 495 0
DWIDTH 11 0
BBX 11 12 0 0
BITMAP
FFE0
FFE0
0180
0180
0180
0980
0980
0180
0180
0180
0180
0180
ENDCHAR
STARTCHAR FB34
ENCODING 64308
SWIDTH 585 0
DWIDTH 13 0
BBX 10 12 2 0
BITMAP
7C00
FF00
0380
0180
00C0
00C0
CCC0
C0C0
C0C0
C0C0
C0C0
C0C0
ENDCHAR
STARTCHAR FB35
ENCODING 64309
SWIDTH 270 0
DWIDTH 6 0
BBX 5 12 0 0
BITMAP
18
18
18
18
18
D8
98
18
18
18
18
18
ENDCHAR
STARTCHAR FB36
ENCODING 64310
SWIDTH 405 0
DWIDTH 9 0
BBX 9 12 0 0
BITMAP
3F80
3F80
0600
0C00
CC00
D800
1C00
0C00
0C00
0C00
0C00
0C00
ENDCHAR
STARTCHAR FB38
ENCODING 64312
SWIDTH 585 0
DWIDTH 13 0
BBX 10 12 2 0
BITMAP
C300
CF80
C980
C0C0
C0C0
CCC0
C8C0
C0C0
C0C0
C180
7380
3F00
ENDCHAR
STARTCHAR FB39
ENCODING 64313
SWIDTH 270 0
DWIDTH 6 0
BBX 5 6 0 6
BITMAP
18
18
18
D8
D8
18
ENDCHAR
STARTCHAR FB3A
ENCODING 64314
SWIDTH 495 0
DWIDTH 11 0
BBX 9 16 1 -4
BITMAP
F000
FE00
0700
0300
0380
0180
3180
0180
0180
0180
0180
0180
0180
0180
0180
0180
ENDCHAR
STARTCHAR FB3B
ENCODING 64315
SWIDTH 450 0
DWIDTH 10 0
BBX 8 12 1 0
BITMAP
F0
FC
0E
07
03
23
23
03
03
06
FE
F8
ENDCHAR
STARTCHAR FB3C
ENCODING 64316
SWIDTH 450 0
DWIDTH 10 0
BBX 8 16 1 0
BITMAP
C0
C0
C0
C0
C0
FF
03
03
33
33
06
0E
0C
0C
0C
0C
ENDCHAR
STARTCHAR FB3E
ENCODING 64318
SWIDTH 585 0
DWIDTH 13 0
BBX 11 12 1 0
BITMAP
C300
CF80
78C0
70C0
7060
3060
6660
6060
6060
6060
67E0
C7E0
ENDCHAR
STARTCHAR FB40
ENCODING 64320
SWIDTH 360 0
DWIDTH 8 0
BBX 5 12 1 0
BITMAP
E0
F0
38
18
18
98
D8
18
18
18
F8
F8
ENDCHAR
STARTCHAR FB41
ENCODING 64321
SWIDTH 585 0
DWIDTH 13 0
BBX 11 12 1 0
BITMAP
1E00
3F80
71C0
E0C0
C0E0
C4E0
C460
C0E0
E0C0
60C0
7B80
3F00
ENDCHAR
STARTCHAR FB43
ENCODING 64323
SWIDTH 585 0
DWIDTH 13 0
BBX 10 16 1 -4
BITMAP
3C00
FF80
C380
C1C0
C0C0
C0C0
E6C0
76C0
00C0
00C0
00C0
00C0
00C0
00C0
00C0
00C0
ENDCHAR
STARTCHAR FB44
ENCODING 64324
SWIDTH 540 0
DWIDTH 12 0
BBX 10 12 1 0
BITMAP
3C00
FF00
C380
C1C0
C0C0
E6C0
76C0
00C0
01C0
0380
7F00
FE00
ENDCHAR
STARTCHAR FB46
ENCODING 64326
SWIDTH 495 0
DWIDTH 11 0
BBX 9 12 0 0
BITMAP
C180
6180
7180
3180
1980
1F00
6E00
6600
0700
0300
7F80
7F80
ENDCHAR
STARTCHAR FB47
ENCODING 64327
SWIDTH 540 0
DWIDTH 12 0
BBX 9 16 2 -4
BITMAP
FF80
FF80
0180
0180
0180
1980
D300
C700
C600
CE00
CE00
CE00
C000
C000
C000
C000
ENDCHAR
STARTCHAR FB48
ENCODING 64328
SWIDTH 495 0
DWIDTH 11 0
BBX 9 12 1 0
BITMAP
F800
FE00
0700
0300
0180
0180
3180
0180
0180
0180
0180
0180
ENDCHAR
STARTCHAR FB49
ENCODING 64329
SWIDTH 675 0
DWIDTH 15 0
BBX 13 12 1 0
BITMAP
C318
C318
C318
C718
C618
C618
FE98
78B8
6030
7070
3DE0
1FC0
ENDCHAR
STARTCHAR FB4A
ENCODING 64330
SWIDTH 630 0
DWIDTH 14 0
BBX 13 12 0 0
BITMAP
1F00
7FE0
1870
1830
1818
1818
1998
1918
1818
1818
7818
F818
ENDCHAR
STARTCHAR FB4B
ENCODING 64331
SWIDTH 225 0
DWIDTH 5 0
BBX 2 15 2 0
BITMAP
80
C0
00
C0
C0
C0
C0
C0
C0
C0
C0
C0
C0
C0
C0
ENDCHAR
STARTCHAR FB4C
ENCODING 64332
SWIDTH 540 0
DWIDTH 12 0
BBX 11 15 1 0
BITMAP
3C00
0000
0000
F800
FE00
0700
0300
0380
0180
0180
0180
0180
0180
FFE0
FFE0
ENDCHAR
STARTCHAR FB4D
ENCODING 64333
SWIDTH 450 0
DWIDTH 10 0
BBX 8 15 1 0
BITMAP
3C
00
00
F0
FC
0E
07
03
03
03
03
03
06
FE
F8
ENDCHAR
STARTCHAR FB4E
ENCODING 64334
SWIDTH 540 0
DWIDTH 12 0
BBX 10 15 1 0
BITMAP
1E00
0000
0000
3C00
FF00
C380
C1C0
C0C0
E0C0
78C0
00C0
01C0
0380
7F00
FE00
ENDCHAR
STARTCHAR FB4F
ENCODING 64335
SWIDTH 585 0
DWIDTH 13 0
BBX 11 16 1 0
BITMAP
C000
C000
C000
C000
C0C0
F0C0
30C0
18C0
1CC0
3F80
7780
6700
6380
6180
60C0
E0E0
ENDCHAR
STARTCHAR FB50
ENCODING 64336
SWIDTH 225 0
DWIDTH 5 0
BBX 5 17 0 3
BITMAP
10
68
F0
80
20
20
20
20
20
20
20
30
30
30
30
20
20
ENDCHAR
STARTCHAR FB51
ENCODING 64337
SWIDTH 225 0
DWIDTH 5 0
BBX 6 17 -1 3
BITMAP
18
68
F0
00
20
60
20
20
20
20
20
20
20
10
10
1C
0C
ENDCHAR
STARTCHAR FB52
ENCODING 64338
SWIDTH 720 0
DWIDTH 16 0
BBX 15 14 1 -4
BITMAP
8004
8006
8002
8002
C002
FFFE
3FFE
0000
0000
0180
0100
0100
0180
0080
ENDCHAR
STARTCHAR FB53
ENCODING 64339
SWIDTH 720 0
DWIDTH 16 0
BBX 15 14 1 -4
BITMAP
8004
8006
8002
8002
C002
FFFE
3FFE
0000
0000
0180
0100
0100
0180
0080
ENDCHAR
STARTCHAR FB54
ENCODING 64340
SWIDTH 225 0
DWIDTH 5 0
BBX 6 14 -1 -4
BITMAP
04
0C
04
04
04
FC
FC
00
00
38
10
10
18
08
ENDCHAR
STARTCHAR FB55
ENCODING 64341
SWIDTH 225 0
DWIDTH 5 0
BBX 6 14 -1 -4
BITMAP
04
0C
04
04
04
FC
FC
00
00
38
10
10
18
08
ENDCHAR
STARTCHAR FB56
ENCODING 64342
SWIDTH 720 0
DWIDTH 16 0
BBX 15 14 1 -4
BITMAP
8004
8006
8002
8002
C002
FFFE
3FFE
0000
0000
00C0
0780
0200
01C0
0080
ENDCHAR
STARTCHAR FB57
ENCODING 64343
SWIDTH 720 0
DWIDTH 16 0
BBX 15 14 1 -4
BITMAP
8004
8006
8002
8002
C002
FFFE
3FFE
0000
0000
00C0
0780
0200
01C0
0080
ENDCHAR
STARTCHAR FB58
ENCODING 64344
SWIDTH 225 0
DWIDTH 5 0
BBX 6 14 -1 -4
BITMAP
04
0C
04
04
04
FC
FC
00
08
0C
74
20
0C
08
ENDCHAR
STARTCHAR FB59
ENCODING 64345
SWIDTH 225 0
DWIDTH 5 0
BBX 6 14 -1 -4
BITMAP
04
0C
04
04
04
FC
FC
00
08
0C
74
20
0C
08
ENDCHAR
STARTCHAR FB5A
ENCODING 64346
SWIDTH 720 0
DWIDTH 16 0
BBX 15 14 1 -5
BITMAP
8004
8006
8002
8002
C002
FFFE
3FFE
0000
0000
00C0
0680
0280
02C0
0740
ENDCHAR
STARTCHAR FB5B
ENCODING 64347
SWIDTH 720 0
DWIDTH 16 0
BBX 15 14 1 -5
BITMAP
8004
8006
8002
8002
C002
FFFE
3FFE
0000
0000
00C0
0680
0280
02C0
0740
ENDCHAR
STARTCHAR FB5C
ENCODING 64348
SWIDTH 225 0
DWIDTH 5 0
BBX 6 14 -1 -5
BITMAP
04
0C
04
04
04
FC
FC
00
00
0C
68
20
2C
34
ENDCHAR
STARTCHAR FB5D
ENCODING 64349
SWIDTH 225 0
DWIDTH 5 0
BBX 6 14 -1 -5
BITMAP
04
0C
04
04
04
FC
FC
00
00
0C
68
20
2C
34
ENDCHAR
STARTCHAR FB5E
ENCODING 64350
SWIDTH 720 0
DWIDTH 16 0
BBX 15 14 1 3
BITMAP
0200
0300
0100
0100
0300
0000
0000
8004
8006
8002
8002
C002
FFFE
3FFE
ENDCHAR
STARTCHAR FB5F
ENCODING 64351
SWIDTH 720 0
DWIDTH 16 0
BBX 15 14 1 3
BITMAP
0200
0300
0100
0100
0300
0000
0000
8004
8006
8002
8002
C002
FFFE
3FFE
ENDCHAR
STARTCHAR FB60
ENCODING 64352
SWIDTH 225 0
DWIDTH 5 0
BBX 6 14 -1 3
BITMAP
20
30
10
10
38
00
00
04
0C
04
04
04
FC
FC
ENDCHAR
STARTCHAR FB61
ENCODING 64353
SWIDTH 225 0
DWIDTH 5 0
BBX 6 14 -1 3
BITMAP
20
30
10
10
38
00
00
04
0C
04
04
04
FC
FC
ENDCHAR
STARTCHAR FB62
ENCODING 64354
SWIDTH 720 0
DWIDTH 16 0
BBX 15 13 1 4
BITMAP
0580
0680
0080
07C0
0600
0000
8004
8006
8002
8002
C002
FFFE
3FFE
ENDCHAR
STARTCHAR FB63
ENCODING 64355
SWIDTH 720 0
DWIDTH 16 0
BBX 15 13 1 4
BITMAP
0580
0680
0080
07C0
0600
0000
8004
8006
8002
8002
C002
FFFE
3FFE
ENDCHAR
STARTCHAR FB64
ENCODING 64356
SWIDTH 225 0
DWIDTH 5 0
BBX 6 13 -1 4
BITMAP
58
68
08
3C
60
00
04
0C
04
04
04
FC
FC
ENDCHAR
STARTCHAR FB65
ENCODING 64357
SWIDTH 225 0
DWIDTH 5 0
BBX 6 13 -1 4
BITMAP
58
68
08
3C
60
00
04
0C
04
04
04
FC
FC
ENDCHAR
STARTCHAR FB66
ENCODING 64358
SWIDTH 720 0
DWIDTH 16 0
BBX 15 15 1 3
BITMAP
0600
0400
0200
0200
03C0
0440
0B80
0000
8004
8006
8002
8002
C002
FFFE
3FFE
ENDCHAR
STARTCHAR FB67
ENCODING 64359
SWIDTH 720 0
DWIDTH 16 0
BBX 15 15 1 3
BITMAP
0600
0400
0200
0200
03C0
0440
0B80
0000
8004
8006
8002
8002
C002
FFFE
3FFE
ENDCHAR
STARTCHAR FB68
ENCODING 64360
SWIDTH 225 0
DWIDTH 5 0
BBX 7 15 -1 3
BITMAP
20
20
20
20
2E
32
5C
00
04
0C
04
04
04
FC
FC
ENDCHAR
STARTCHAR FB69
ENCODING 64361
SWIDTH 225 0
DWIDTH 5 0
BBX 7 15 -1 3
BITMAP
20
20
20
20
2E
32
5C
00
04
0C
04
04
04
FC
FC
ENDCHAR
STARTCHAR FB6A
ENCODING 64362
SWIDTH 810 0
DWIDTH 18 0
BBX 18 14 0 3
BITMAP
000600
000600
000180
000580
000C00
000000
000100
400380
800680
800680
C007C0
6001C0
7FFFC0
0FFFC0
ENDCHAR
STARTCHAR FB6B
ENCODING 64363
SWIDTH 810 0
DWIDTH 18 0
BBX 18 14 0 3
BITMAP
000600
000600
000180
000580
000C00
000000
000100
400380
800680
800680
C007C0
6001C0
7FFFC0
0FFFC0
ENDCHAR
STARTCHAR FB6C
ENCODING 64364
SWIDTH 270 0
DWIDTH 6 0
BBX 7 15 -1 3
BITMAP
20
60
0C
68
60
00
1C
1C
26
3E
3E
02
02
FE
FE
ENDCHAR
STARTCHAR FB6D
ENCODING 64365
SWIDTH 270 0
DWIDTH 6 0
BBX 7 15 -1 3
BITMAP
30
30
0C
6C
60
00
00
0C
1C
16
32
1E
06
FE
FE
ENDCHAR
STARTCHAR FB6E
ENCODING 64366
SWIDTH 810 0
DWIDTH 18 0
BBX 18 15 0 3
BITMAP
000100
000B80
000C00
000580
000580
000E00
000000
000100
400380
800680
800680
C007C0
6001C0
7FFFC0
0FFFC0
ENDCHAR
STARTCHAR FB6F
ENCODING 64367
SWIDTH 810 0
DWIDTH 18 0
BBX 18 15 0 3
BITMAP
000100
000B80
000C00
000580
000580
000E00
000000
000100
400380
800680
800680
C007C0
6001C0
7FFFC0
0FFFC0
ENDCHAR
STARTCHAR FB70
ENCODING 64368
SWIDTH 270 0
DWIDTH 6 0
BBX 7 15 -1 4
BITMAP
58
68
08
2C
60
00
1C
1C
26
3E
3E
02
02
FE
FE
ENDCHAR
STARTCHAR FB71
ENCODING 64369
SWIDTH 270 0
DWIDTH 6 0
BBX 7 15 -1 4
BITMAP
58
68
08
2C
60
00
00
0C
1C
16
32
1E
06
FE
FE
ENDCHAR
STARTCHAR FB72
ENCODING 64370
SWIDTH 585 0
DWIDTH 13 0
BBX 10 15 1 -5
BITMAP
3800
FFC0
CFC0
1800
2000
4000
8600
8400
8000
8600
8200
C000
7800
3FC0
0F00
ENDCHAR
STARTCHAR FB73
ENCODING 64371
SWIDTH 540 0
DWIDTH 12 0
BBX 11 14 1 -5
BITMAP
7FC0
FFC0
1D00
2100
41E0
88E0
9800
8000
8C00
8C00
C000
7800
3FC0
0F00
ENDCHAR
STARTCHAR FB74
ENCODING 64372
SWIDTH 540 0
DWIDTH 12 0
BBX 13 12 -1 -4
BITMAP
1F00
0780
01C0
00E0
FFF8
FFF8
0000
0000
0700
0200
0200
0300
ENDCHAR
STARTCHAR FB75
ENCODING 64373
SWIDTH 540 0
DWIDTH 12 0
BBX 13 12 -1 -4
BITMAP
1F00
0780
01C0
00E0
FFF8
FFF8
0000
0000
0700
0200
0200
0300
ENDCHAR
STARTCHAR FB76
ENCODING 64374
SWIDTH 585 0
DWIDTH 13 0
BBX 10 15 1 -5
BITMAP
3800
FFC0
CFC0
1800
2000
4000
8000
8300
9D00
8800
8000
C000
7800
3FC0
0F00
ENDCHAR
STARTCHAR FB77
ENCODING 64375
SWIDTH 540 0
DWIDTH 12 0
BBX 11 14 1 -5
BITMAP
7FC0
FFC0
1D00
2100
41E0
80E0
8600
B400
9000
8000
C000
7800
3FC0
0F00
ENDCHAR
STARTCHAR FB78
ENCODING 64376
SWIDTH 540 0
DWIDTH 12 0
BBX 13 11 -1 -2
BITMAP
1F00
0780
01C0
00E0
FFF8
FFF8
0000
0000
0180
0F80
0400
ENDCHAR
STARTCHAR FB79
ENCODING 64377
SWIDTH 540 0
DWIDTH 12 0
BBX 13 11 -1 -2
BITMAP
1F00
0780
01C0
00E0
FFF8
FFF8
0000
0000
0180
0F80
0400
ENDCHAR
STARTCHAR FB7A
ENCODING 64378
SWIDTH 585 0
DWIDTH 13 0
BBX 10 15 1 -5
BITMAP
3800
FFC0
CFC0
1800
2000
4200
8B00
9D00
8200
8700
8000
C000
7800
3FC0
0F00
ENDCHAR
STARTCHAR FB7B
ENCODING 64379
SWIDTH 540 0
DWIDTH 12 0
BBX 11 14 1 -5
BITMAP
7FC0
FFC0
1D00
2100
41E0
80E0
8E00
B400
9000
8C00
C400
7800
3FC0
0F00
ENDCHAR
STARTCHAR FB7C
ENCODING 64380
SWIDTH 540 0
DWIDTH 12 0
BBX 13 13 -1 -4
BITMAP
1F00
0780
01C0
00E0
FFF8
FFF8
0000
0000
0380
0D00
0E00
0300
0100
ENDCHAR
STARTCHAR FB7D
ENCODING 64381
SWIDTH 540 0
DWIDTH 12 0
BBX 13 13 -1 -4
BITMAP
1F00
0780
01C0
00E0
FFF8
FFF8
0000
0000
0380
0D00
0E00
0300
0100
ENDCHAR
STARTCHAR FB7E
ENCODING 64382
SWIDTH 585 0
DWIDTH 13 0
BBX 10 15 1 -5
BITMAP
3800
FFC0
CFC0
1800
2000
4300
8F00
8C00
8180
8F00
8400
C000
7800
3FC0
0F00
ENDCHAR
STARTCHAR FB7F
ENCODING 64383
SWIDTH 540 0
DWIDTH 12 0
BBX 11 14 1 -5
BITMAP
7FC0
FFC0
1D00
2100
41E0
86E0
B400
9400
9600
BA00
C000
7800
3FC0
0F00
ENDCHAR
STARTCHAR FB80
ENCODING 64384
SWIDTH 540 0
DWIDTH 12 0
BBX 13 13 -1 -5
BITMAP
1F00
0780
01C0
00E0
FFF8
FFF8
0000
0000
0180
0D00
0400
0580
0680
ENDCHAR
STARTCHAR FB81
ENCODING 64385
SWIDTH 540 0
DWIDTH 12 0
BBX 13 13 -1 -5
BITMAP
1F00
0780
01C0
00E0
FFF8
FFF8
0000
0000
0180
0D00
0400
0580
0680
ENDCHAR
STARTCHAR FB82
ENCODING 64386
SWIDTH 360 0
DWIDTH 8 0
BBX 6 14 1 -2
BITMAP
10
18
0C
04
04
04
84
FC
7C
00
00
1C
68
20
ENDCHAR
STARTCHAR FB83
ENCODING 64387
SWIDTH 360 0
DWIDTH 8 0
BBX 6 14 1 -2
BITMAP
10
18
0C
04
04
04
84
FC
7C
00
00
1C
68
20
ENDCHAR
STARTCHAR FB84
ENCODING 64388
SWIDTH 360 0
DWIDTH 8 0
BBX 6 14 1 3
BITMAP
10
18
C0
40
00
10
18
0C
04
04
04
84
FC
7C
ENDCHAR
STARTCHAR FB85
ENCODING 64389
SWIDTH 360 0
DWIDTH 8 0
BBX 6 14 1 3
BITMAP
10
18
C0
40
00
10
18
0C
04
04
04
84
FC
7C
ENDCHAR
STARTCHAR FB86
ENCODING 64390
SWIDTH 360 0
DWIDTH 8 0
BBX 6 16 1 3
BITMAP
40
60
30
58
E8
00
00
10
18
0C
04
04
04
84
FC
7C
ENDCHAR
STARTCHAR FB87
ENCODING 64391
SWIDTH 360 0
DWIDTH 8 0
BBX 6 16 1 3
BITMAP
40
60
30
58
E8
00
00
10
18
0C
04
04
04
84
FC
7C
ENDCHAR
STARTCHAR FB88
ENCODING 64392
SWIDTH 360 0
DWIDTH 8 0
BBX 6 17 1 3
BITMAP
40
40
40
40
48
34
FC
00
10
18
0C
04
04
04
84
FC
7C
ENDCHAR
STARTCHAR FB89
ENCODING 64393
SWIDTH 360 0
DWIDTH 8 0
BBX 6 17 1 3
BITMAP
40
40
40
40
48
34
FC
00
10
18
0C
04
04
04
84
FC
7C
ENDCHAR
STARTCHAR FB8A
ENCODING 64394
SWIDTH 495 0
DWIDTH 11 0
BBX 10 18 1 -2
BITMAP
0600
0600
0180
0780
0600
0000
0000
0080
00C0
00C0
0040
0040
0040
00C0
0180
0380
8F00
7C00
ENDCHAR
STARTCHAR FB8B
ENCODING 64395
SWIDTH 495 0
DWIDTH 11 0
BBX 10 18 1 -2
BITMAP
0600
0600
0180
0780
0600
0000
0000
0080
00C0
00C0
0040
0040
0040
00C0
0180
0380
8F00
7C00
ENDCHAR
STARTCHAR FB8C
ENCODING 64396
SWIDTH 495 0
DWIDTH 11 0
BBX 10 20 1 -2
BITMAP
0C00
0800
0400
0400
0780
0880
1700
0000
0000
0080
00C0
00C0
0040
0040
0040
00C0
0180
0380
8F00
7C00
ENDCHAR
STARTCHAR FB8D
ENCODING 64397
SWIDTH 495 0
DWIDTH 11 0
BBX 10 20 1 -2
BITMAP
0C00
0800
0400
0400
0780
0880
1700
0000
0000
0080
00C0
00C0
0040
0040
0040
00C0
0180
0380
8F00
7C00
ENDCHAR
STARTCHAR FB8E
ENCODING 64398
SWIDTH 810 0
DWIDTH 18 0
BBX 18 13 0 3
BITMAP
000180
000780
001C00
003000
003000
003800
001C00
800700
800100
800080
C000C0
7FFFC0
3FFFC0
ENDCHAR
STARTCHAR FB8F
ENCODING 64399
SWIDTH 945 0
DWIDTH 21 0
BBX 21 13 0 3
BITMAP
000180
000780
001C00
003000
003000
003800
001E00
800700
800300
800380
C004C0
7FFC78
3FF038
ENDCHAR
STARTCHAR FB90
ENCODING 64400
SWIDTH 405 0
DWIDTH 9 0
BBX 10 13 -1 3
BITMAP
0180
0F80
1C00
3000
3000
3800
1C00
0600
0300
0180
00C0
FFC0
FFC0
ENDCHAR
STARTCHAR FB91
ENCODING 64401
SWIDTH 495 0
DWIDTH 11 0
BBX 12 13 -1 3
BITMAP
0180
0F80
1C00
3000
3000
3800
1C00
0600
0300
0580
0CC0
F870
F030
ENDCHAR
STARTCHAR FB92
ENCODING 64402
SWIDTH 810 0
DWIDTH 18 0
BBX 18 16 0 3
BITMAP
000180
000780
000E00
003180
002780
001C00
003000
003000
003800
001C00
800700
800100
800080
C000C0
7FFFC0
3FFFC0
ENDCHAR
STARTCHAR FB93
ENCODING 64403
SWIDTH 945 0
DWIDTH 21 0
BBX 21 16 0 3
BITMAP
000180
000780
000E00
003180
002780
001C00
003000
003000
003800
001E00
800700
800300
800380
C004C0
7FFC78
3FF038
ENDCHAR
STARTCHAR FB94
ENCODING 64404
SWIDTH 405 0
DWIDTH 9 0
BBX 10 16 -1 3
BITMAP
0180
0700
1C00
3180
0F80
1C00
3000
3000
3800
1C00
0600
0300
0180
00C0
FFC0
FFC0
ENDCHAR
STARTCHAR FB95
ENCODING 64405
SWIDTH 495 0
DWIDTH 11 0
BBX 12 16 -1 3
BITMAP
0180
0700
1C00
3180
0F80
1C00
3000
3000
3800
1C00
0600
0300
0580
0CC0
F870
F030
ENDCHAR
STARTCHAR FB96
ENCODING 64406
SWIDTH 810 0
DWIDTH 18 0
BBX 18 23 0 -4
BITMAP
000180
000780
000E00
003180
002780
001C00
003000
003000
003800
001C00
800700
800100
800080
C000C0
7FFFC0
3FFFC0
000000
000000
006000
004000
004000
006000
002000
ENDCHAR
STARTCHAR FB97
ENCODING 64407
SWIDTH 945 0
DWIDTH 21 0
BBX 21 23 0 -4
BITMAP
000180
000780
000E00
003180
002780
001C00
003000
003000
003800
001E00
800700
800300
800380
C004C0
7FFC78
3FF038
000000
000000
038000
010000
010000
018000
008000
ENDCHAR
STARTCHAR FB98
ENCODING 64408
SWIDTH 405 0
DWIDTH 9 0
BBX 10 22 -1 -4
BITMAP
0180
0700
1C00
3180
0F80
1C00
3000
3000
3800
1C00
0600
0300
0180
00C0
FFC0
FFC0
0000
0000
0C00
0400
0400
0600
ENDCHAR
STARTCHAR FB99
ENCODING 64409
SWIDTH 495 0
DWIDTH 11 0
BBX 12 23 -1 -4
BITMAP
0180
0700
1C00
3180
0F80
1C00
3000
3000
3800
1C00
0600
0300
0580
0CC0
F870
F030
0000
0000
3800
1000
1000
1800
0800
ENDCHAR
STARTCHAR FB9A
ENCODING 64410
SWIDTH 810 0
DWIDTH 18 0
BBX 18 17 0 3
BITMAP
000400
003580
001780
000E00
003180
002780
001C00
003000
003000
003800
001C00
800700
800100
800080
C000C0
7FFFC0
3FFFC0
ENDCHAR
STARTCHAR FB9B
ENCODING 64411
SWIDTH 945 0
DWIDTH 21 0
BBX 21 17 0 3
BITMAP
000400
003580
001780
000E00
003180
002780
001C00
003000
003000
003800
001E00
800700
800300
800380
C004C0
7FFC78
3FF038
ENDCHAR
STARTCHAR FB9C
ENCODING 64412
SWIDTH 405 0
DWIDTH 9 0
BBX 10 17 -1 3
BITMAP
0800
2980
2700
1C00
3180
0F80
1C00
3000
3000
3800
1C00
0600
0300
0180
00C0
FFC0
FFC0
ENDCHAR
STARTCHAR FB9D
ENCODING 64413
SWIDTH 495 0
DWIDTH 11 0
BBX 12 17 -1 3
BITMAP
0800
2980
2700
1C00
3180
0F80
1C00
3000
3000
3800
1C00
0600
0300
0580
0CC0
F870
F030
ENDCHAR
STARTCHAR FB9E
ENCODING 64414
SWIDTH 540 0
DWIDTH 12 0
BBX 11 11 1 -2
BITMAP
0040
0040
4060
8020
8020
8020
8020
8040
E3C0
7F80
1C00
ENDCHAR
STARTCHAR FB9F
ENCODING 64415
SWIDTH 540 0
DWIDTH 12 0
BBX 11 11 1 -2
BITMAP
0040
0040
4060
8020
8020
8020
8020
8040
E3C0
7F80
1C00
ENDCHAR
STARTCHAR FBA0
ENCODING 64416
SWIDTH 540 0
DWIDTH 12 0
BBX 11 19 1 -1
BITMAP
0800
0800
0800
0800
0780
3F80
0000
0000
0040
0040
4060
8020
8020
8020
8020
8040
E3C0
7F80
1C00
ENDCHAR
STARTCHAR FBA1
ENCODING 64417
SWIDTH 540 0
DWIDTH 12 0
BBX 11 19 1 -1
BITMAP
0800
0800
0800
0800
0780
3F80
0000
0000
0040
0040
4060
8020
8020
8020
8020
8040
E3C0
7F80
1C00
ENDCHAR
STARTCHAR FBA2
ENCODING 64418
SWIDTH 225 0
DWIDTH 5 0
BBX 7 15 -1 3
BITMAP
20
20
20
20
2E
32
5C
00
04
0C
04
04
04
FC
FC
ENDCHAR
STARTCHAR FBA3
ENCODING 64419
SWIDTH 225 0
DWIDTH 5 0
BBX 7 15 -1 3
BITMAP
20
20
20
20
2E
32
5C
00
04
0C
04
04
04
FC
FC
ENDCHAR
STARTCHAR FBA4
ENCODING 64420
SWIDTH 270 0
DWIDTH 6 0
BBX 5 11 1 3
BITMAP
20
40
60
00
00
60
70
98
88
F8
F0
ENDCHAR
STARTCHAR FBA5
ENCODING 64421
SWIDTH 360 0
DWIDTH 8 0
BBX 8 13 0 3
BITMAP
30
20
30
08
08
08
38
6C
CC
F4
04
07
03
ENDCHAR
STARTCHAR FBA6
ENCODING 64422
SWIDTH 270 0
DWIDTH 6 0
BBX 5 6 1 4
BITMAP
60
70
98
88
F8
F0
ENDCHAR
STARTCHAR FBA7
ENCODING 64423
SWIDTH 405 0
DWIDTH 9 0
BBX 9 5 0 2
BITMAP
1C00
3E00
2780
4180
8000
ENDCHAR
STARTCHAR FBA8
ENCODING 64424
SWIDTH 225 0
DWIDTH 5 0
BBX 6 13 -1 -3
BITMAP
04
0C
04
04
04
FC
FC
00
00
10
20
18
18
ENDCHAR
STARTCHAR FBA9
ENCODING 64425
SWIDTH 315 0
DWIDTH 7 0
BBX 8 13 -1 -5
BITMAP
08
08
18
F3
EF
0C
08
00
04
08
08
0C
04
ENDCHAR
STARTCHAR FBAA
ENCODING 64426
SWIDTH 450 0
DWIDTH 10 0
BBX 9 9 -1 3
BITMAP
0800
0C00
0E00
1F00
2380
3780
1C80
FF80
E380
ENDCHAR
STARTCHAR FBAB
ENCODING 64427
SWIDTH 360 0
DWIDTH 8 0
BBX 8 10 0 3
BITMAP
08
08
08
38
6C
CC
F4
04
07
03
ENDCHAR
STARTCHAR FBAC
ENCODING 64428
SWIDTH 450 0
DWIDTH 10 0
BBX 9 9 -1 3
BITMAP
0800
0C00
0E00
1F00
2380
3780
1C80
FF80
E380
ENDCHAR
STARTCHAR FBAD
ENCODING 64429
SWIDTH 405 0
DWIDTH 9 0
BBX 10 11 -1 -1
BITMAP
0200
0600
0A00
1200
1C00
FFC0
FFC0
2600
1200
1B00
0E00
ENDCHAR
STARTCHAR FBAE
ENCODING 64430
SWIDTH 810 0
DWIDTH 18 0
BBX 16 9 1 -1
BITMAP
0180
0380
0480
1800
7000
C000
8000
FFFF
FFFC
ENDCHAR
STARTCHAR FBAF
ENCODING 64431
SWIDTH 810 0
DWIDTH 18 0
BBX 17 10 1 -5
BITMAP
007F80
03FF80
0F8000
1C0000
300000
400000
800000
800000
FFFF00
FFFC00
ENDCHAR
STARTCHAR FBB0
ENCODING 64432
SWIDTH 810 0
DWIDTH 18 0
BBX 16 12 1 -1
BITMAP
0C00
1000
0C00
0180
0380
0480
1800
7000
C000
8000
FFFF
FFFC
ENDCHAR
STARTCHAR FBB1
ENCODING 64433
SWIDTH 810 0
DWIDTH 18 0
BBX 17 15 1 -5
BITMAP
000800
001000
000800
000000
000000
007F80
03FF80
0F8000
1C0000
300000
400000
800000
800000
FFFF00
FFFC00
ENDCHAR
STARTCHAR FBD3
ENCODING 64467
SWIDTH 585 0
DWIDTH 13 0
BBX 13 16 0 4
BITMAP
0600
0700
01A0
0EB8
0438
0090
0110
0210
0398
0088
4088
8F08
8008
4008
7FF8
3FF8
ENDCHAR
STARTCHAR FBD4
ENCODING 64468
SWIDTH 585 0
DWIDTH 13 0
BBX 13 16 0 4
BITMAP
0600
0700
01A0
0EB8
0438
0090
0110
0210
0398
0088
4088
8F08
8008
4008
7FF8
3FF8
ENDCHAR
STARTCHAR FBD5
ENCODING 64469
SWIDTH 405 0
DWIDTH 9 0
BBX 10 16 -1 3
BITMAP
1800
0400
3000
0180
0F80
1C00
3000
3000
3800
1C00
0600
0300
0180
00C0
FFC0
FFC0
ENDCHAR
STARTCHAR FBD6
ENCODING 64470
SWIDTH 405 0
DWIDTH 9 0
BBX 10 16 -1 3
BITMAP
1800
0400
3000
0180
0F80
1C00
3000
3000
3800
1C00
0600
0300
0180
00C0
FFC0
FFC0
ENDCHAR
STARTCHAR FBD7
ENCODING 64471
SWIDTH 450 0
DWIDTH 10 0
BBX 9 17 1 -2
BITMAP
0100
0300
0300
0300
0400
0000
0000
0700
0580
0480
0780
0380
0100
0100
0200
8E00
7800
ENDCHAR
STARTCHAR FBD8
ENCODING 64472
SWIDTH 450 0
DWIDTH 10 0
BBX 9 17 1 -2
BITMAP
0100
0300
0300
0300
0400
0000
0000
0700
0580
0480
0780
0380
0100
0100
0200
8E00
7800
ENDCHAR
STARTCHAR FBD9
ENCODING 64473
SWIDTH 450 0
DWIDTH 10 0
BBX 9 15 1 -2
BITMAP
0500
0300
0000
0000
0000
0700
0580
0480
0780
0380
0100
0100
0200
8E00
7800
ENDCHAR
STARTCHAR FBDA
ENCODING 64474
SWIDTH 450 0
DWIDTH 10 0
BBX 9 15 1 -2
BITMAP
0500
0300
0000
0000
0000
0700
0580
0480
0780
0380
0100
0100
0200
8E00
7800
ENDCHAR
STARTCHAR FBDB
ENCODING 64475
SWIDTH 450 0
DWIDTH 10 0
BBX 9 18 1 -2
BITMAP
0400
0200
0200
0200
0200
0200
0000
0000
0700
0580
0480
0780
0380
0100
0100
0200
8E00
7800
ENDCHAR
STARTCHAR FBDC
ENCODING 64476
SWIDTH 450 0
DWIDTH 10 0
BBX 9 18 1 -2
BITMAP
0400
0200
0200
0200
0200
0200
0000
0000
0700
0580
0480
0780
0380
0100
0100
0200
8E00
7800
ENDCHAR
STARTCHAR FBDD
ENCODING 64477
SWIDTH 450 0
DWIDTH 10 0
BBX 10 16 1 -2
BITMAP
0800
14C0
0880
0CC0
1000
0000
0700
0580
0480
0780
0380
0100
0100
0200
8E00
7800
ENDCHAR
STARTCHAR FBDE
ENCODING 64478
SWIDTH 450 0
DWIDTH 10 0
BBX 9 17 1 -1
BITMAP
0C00
0500
0B00
0C00
0000
0000
0000
0700
0580
0480
0780
0380
0100
0100
0200
8E00
7800
ENDCHAR
STARTCHAR FBDF
ENCODING 64479
SWIDTH 450 0
DWIDTH 10 0
BBX 9 17 1 -1
BITMAP
0C00
0500
0B00
0C00
0000
0000
0000
0700
0580
0480
0780
0380
0100
0100
0200
8E00
7800
ENDCHAR
STARTCHAR FBE0
ENCODING 64480
SWIDTH 450 0
DWIDTH 10 0
BBX 9 10 1 -1
BITMAP
0700
0580
0480
0780
0380
1900
0700
0200
8E00
7800
ENDCHAR
STARTCHAR FBE1
ENCODING 64481
SWIDTH 450 0
DWIDTH 10 0
BBX 9 10 1 -1
BITMAP
0700
0580
0480
0780
0380
1900
0700
0200
8E00
7800
ENDCHAR
STARTCHAR FBE2
ENCODING 64482
SWIDTH 450 0
DWIDTH 10 0
BBX 9 15 1 -2
BITMAP
0200
0300
0480
0000
0000
0700
0580
0480
0780
0380
0100
0100
0200
8E00
7800
ENDCHAR
STARTCHAR FBE3
ENCODING 64483
SWIDTH 450 0
DWIDTH 10 0
BBX 9 15 1 -2
BITMAP
0200
0300
0480
0000
0000
0700
0580
0480
0780
0380
0100
0100
0200
8E00
7800
ENDCHAR
STARTCHAR FBE4
ENCODING 64484
SWIDTH 630 0
DWIDTH 14 0
BBX 12 14 1 -4
BITMAP
0070
00F0
4100
8100
8100
81F0
8010
8020
81E0
FFC0
7F00
0000
0800
0400
ENDCHAR
STARTCHAR FBE5
ENCODING 64485
SWIDTH 585 0
DWIDTH 13 0
BBX 13 11 0 -5
BITMAP
2000
4078
41F8
8100
81F0
C010
7060
3FC0
0000
0000
0200
ENDCHAR
STARTCHAR FBE6
ENCODING 64486
SWIDTH 225 0
DWIDTH 5 0
BBX 6 14 -1 -4
BITMAP
04
0C
04
04
04
FC
FC
00
00
38
10
10
18
08
ENDCHAR
STARTCHAR FBE7
ENCODING 64487
SWIDTH 225 0
DWIDTH 5 0
BBX 6 14 -1 -4
BITMAP
04
0C
04
04
04
FC
FC
00
00
38
10
10
18
08
ENDCHAR
STARTCHAR FBFC
ENCODING 64508
SWIDTH 630 0
DWIDTH 14 0
BBX 12 11 1 -1
BITMAP
0070
00F0
4100
8100
8100
81F0
8010
8020
81E0
FFC0
7F00
ENDCHAR
STARTCHAR FBFD
ENCODING 64509
SWIDTH 585 0
DWIDTH 13 0
BBX 13 8 0 -2
BITMAP
2000
4078
41F8
8100
81F0
C010
7060
3FC0
ENDCHAR
STARTCHAR FBFE
ENCODING 64510
SWIDTH 225 0
DWIDTH 5 0
BBX 6 11 -1 -2
BITMAP
04
0C
04
04
04
FC
FC
00
08
2C
74
ENDCHAR
STARTCHAR FBFF
ENCODING 64511
SWIDTH 225 0
DWIDTH 5 0
BBX 6 11 -1 -2
BITMAP
04
0C
04
04
04
FC
FC
00
08
2C
74
ENDCHAR
STARTCHAR FC5E
ENCODING 64606
SWIDTH 225 0
DWIDTH 5 0
BBX 4 8 1 13
BITMAP
10
30
B0
70
10
50
E0
80
ENDCHAR
STARTCHAR FC5F
ENCODING 64607
SWIDTH 225 0
DWIDTH 5 0
BBX 4 7 1 13
BITMAP
10
70
E0
20
D0
60
80
ENDCHAR
STARTCHAR FC60
ENCODING 64608
SWIDTH 225 0
DWIDTH 5 0
BBX 4 6 1 13
BITMAP
10
60
90
50
E0
80
ENDCHAR
STARTCHAR FC61
ENCODING 64609
SWIDTH 225 0
DWIDTH 5 0
BBX 4 7 1 13
BITMAP
20
60
30
D0
50
E0
80
ENDCHAR
STARTCHAR FC62
ENCODING 64610
SWIDTH 225 0
DWIDTH 5 0
BBX 4 6 1 13
BITMAP
10
50
E0
90
60
80
ENDCHAR
STARTCHAR FD3E
ENCODING 64830
SWIDTH 315 0
DWIDTH 7 0
BBX 5 22 1 -5
BITMAP
08
10
30
30
20
60
60
60
E0
E0
E0
E0
E0
60
60
60
60
30
30
10
08
08
ENDCHAR
STARTCHAR FD3F
ENCODING 64831
SWIDTH 315 0
DWIDTH 7 0
BBX 5 22 1 -5
BITMAP
80
40
60
60
30
30
30
30
38
38
38
38
38
30
30
30
30
20
60
40
80
80
ENDCHAR
STARTCHAR FDF2
ENCODING 65010
SWIDTH 630 0
DWIDTH 14 0
BBX 13 14 0 3
BITMAP
0100
0100
0000
02C0
03C0
0000
0090
0898
0888
0CC8
3448
6448
FFF8
F398
ENDCHAR
STARTCHAR FE80
ENCODING 65152
SWIDTH 405 0
DWIDTH 9 0
BBX 7 7 1 2
BITMAP
18
38
40
C2
FE
38
20
ENDCHAR
STARTCHAR FE81
ENCODING 65153
SWIDTH 225 0
DWIDTH 5 0
BBX 3 15 1 3
BITMAP
E0
00
40
40
40
40
40
40
40
60
60
60
60
40
40
ENDCHAR
STARTCHAR FE82
ENCODING 65154
SWIDTH 225 0
DWIDTH 5 0
BBX 5 15 0 3
BITMAP
F0
00
40
C0
40
40
40
40
40
40
40
20
20
38
18
ENDCHAR
STARTCHAR FE83
ENCODING 65155
SWIDTH 225 0
DWIDTH 5 0
BBX 3 16 1 4
BITMAP
C0
E0
80
40
40
40
40
40
40
40
60
60
60
60
40
40
ENDCHAR
STARTCHAR FE84
ENCODING 65156
SWIDTH 225 0
DWIDTH 5 0
BBX 5 16 0 4
BITMAP
E0
60
80
40
C0
40
40
40
40
40
40
40
20
20
38
18
ENDCHAR
STARTCHAR FE85
ENCODING 65157
SWIDTH 450 0
DWIDTH 10 0
BBX 9 14 1 -2
BITMAP
0800
1800
1000
0000
0700
0580
0480
0780
0380
0100
0100
0200
8E00
7800
ENDCHAR
STARTCHAR FE86
ENCODING 65158
SWIDTH 450 0
DWIDTH 10 0
BBX 9 14 1 -2
BITMAP
0800
1800
1000
0000
0700
0580
0480
0780
0380
0100
0100
0200
8E00
7800
ENDCHAR
STARTCHAR FE87
ENCODING 65159
SWIDTH 225 0
DWIDTH 5 0
BBX 3 18 1 -2
BITMAP
40
40
40
40
40
40
40
60
60
60
60
40
40
00
00
C0
80
C0
ENDCHAR
STARTCHAR FE88
ENCODING 65160
SWIDTH 225 0
DWIDTH 5 0
BBX 5 18 0 -2
BITMAP
40
C0
40
40
40
40
40
40
40
20
20
38
18
00
00
60
40
60
ENDCHAR
STARTCHAR FE89
ENCODING 65161
SWIDTH 630 0
DWIDTH 14 0
BBX 12 13 1 -1
BITMAP
4000
C000
8070
00F0
4100
8100
8100
81F0
8010
8020
81E0
FFC0
7F00
ENDCHAR
STARTCHAR FE8A
ENCODING 65162
SWIDTH 585 0
DWIDTH 13 0
BBX 13 13 0 -2
BITMAP
2000
4000
2000
0000
0000
2000
4078
41F8
8100
81F0
C010
7060
3FC0
ENDCHAR
STARTCHAR FE8B
ENCODING 65163
SWIDTH 225 0
DWIDTH 5 0
BBX 6 12 -1 3
BITMAP
18
20
18
00
00
04
0C
04
04
04
FC
FC
ENDCHAR
STARTCHAR FE8C
ENCODING 65164
SWIDTH 225 0
DWIDTH 5 0
BBX 6 12 -1 3
BITMAP
18
20
18
00
00
04
0C
04
04
04
FC
FC
ENDCHAR
STARTCHAR FE8D
ENCODING 65165
SWIDTH 225 0
DWIDTH 5 0
BBX 2 13 2 3
BITMAP
80
80
80
80
80
80
80
C0
C0
C0
C0
80
80
ENDCHAR
STARTCHAR FE8E
ENCODING 65166
SWIDTH 225 0
DWIDTH 5 0
BBX 5 13 0 3
BITMAP
40
C0
40
40
40
40
40
40
40
20
20
38
18
ENDCHAR
STARTCHAR FE8F
ENCODING 65167
SWIDTH 720 0
DWIDTH 16 0
BBX 15 11 1 -1
BITMAP
8004
8006
8002
8002
C002
FFFE
3FFE
0000
0000
0380
0100
ENDCHAR
STARTCHAR FE90
ENCODING 65168
SWIDTH 720 0
DWIDTH 16 0
BBX 15 11 1 -1
BITMAP
8004
8006
8002
8002
C002
FFFE
3FFE
0000
0000
0380
0100
ENDCHAR
STARTCHAR FE91
ENCODING 65169
SWIDTH 225 0
DWIDTH 5 0
BBX 6 11 -1 -1
BITMAP
04
0C
04
04
04
FC
FC
00
00
18
18
ENDCHAR
STARTCHAR FE92
ENCODING 65170
SWIDTH 225 0
DWIDTH 5 0
BBX 6 11 -1 -1
BITMAP
04
0C
04
04
04
FC
FC
00
00
18
18
ENDCHAR
STARTCHAR FE93
ENCODING 65171
SWIDTH 270 0
DWIDTH 6 0
BBX 6 11 0 3
BITMAP
18
D8
C0
00
00
30
3C
4C
44
7C
78
ENDCHAR
STARTCHAR FE94
ENCODING 65172
SWIDTH 360 0
DWIDTH 8 0
BBX 8 14 0 3
BITMAP
18
58
E0
00
08
08
08
38
6C
CC
F4
04
07
03
ENDCHAR
STARTCHAR FE95
ENCODING 65173
SWIDTH 720 0
DWIDTH 16 0
BBX 15 11 1 3
BITMAP
0080
0580
0600
0000
8004
8006
8002
8002
C002
FFFE
3FFE
ENDCHAR
STARTCHAR FE96
ENCODING 65174
SWIDTH 720 0
DWIDTH 16 0
BBX 15 11 1 3
BITMAP
0080
0580
0600
0000
8004
8006
8002
8002
C002
FFFE
3FFE
ENDCHAR
STARTCHAR FE97
ENCODING 65175
SWIDTH 225 0
DWIDTH 5 0
BBX 6 12 -1 3
BITMAP
08
2C
74
00
00
04
0C
04
04
04
FC
FC
ENDCHAR
STARTCHAR FE98
ENCODING 65176
SWIDTH 225 0
DWIDTH 5 0
BBX 6 12 -1 3
BITMAP
08
2C
74
00
00
04
0C
04
04
04
FC
FC
ENDCHAR
STARTCHAR FE99
ENCODING 65177
SWIDTH 720 0
DWIDTH 16 0
BBX 15 13 1 3
BITMAP
0200
0600
0080
0580
0600
0000
8004
8006
8002
8002
C002
FFFE
3FFE
ENDCHAR
STARTCHAR FE9A
ENCODING 65178
SWIDTH 720 0
DWIDTH 16 0
BBX 15 13 1 3
BITMAP
0200
0600
0080
0580
0600
0000
8004
8006
8002
8002
C002
FFFE
3FFE
ENDCHAR
STARTCHAR FE9B
ENCODING 65179
SWIDTH 225 0
DWIDTH 5 0
BBX 6 14 -1 3
BITMAP
20
30
18
2C
74
00
00
04
0C
04
04
04
FC
FC
ENDCHAR
STARTCHAR FE9C
ENCODING 65180
SWIDTH 225 0
DWIDTH 5 0
BBX 6 14 -1 3
BITMAP
20
30
18
2C
74
00
00
04
0C
04
04
04
FC
FC
ENDCHAR
ENDFONT
